<ttFont>
    <TTGlyph name="A" xMin="-28" yMin="-105" xMax="613" yMax="746">
      <contour>
        <pt x="-22" y="-62" on="1"/>
        <pt x="-28" y="-62" on="0"/>
        <pt x="-28" y="-40" on="0"/>
        <pt x="-20" y="-33" on="1"/>
        <pt x="-14" y="-31" on="0"/>
        <pt x="-11" y="-31" on="1"/>
        <pt x="5" y="-33" on="1"/>
        <pt x="20" y="-31" on="1"/>
        <pt x="29" y="-32" on="1"/>
        <pt x="44" y="-32" on="0"/>
        <pt x="49" y="4" on="1"/>
        <pt x="51" y="18" on="0"/>
        <pt x="55" y="46" on="0"/>
        <pt x="61" y="52" on="1"/>
        <pt x="59" y="53" on="0"/>
        <pt x="59" y="59" on="0"/>
        <pt x="63" y="71" on="0"/>
        <pt x="66" y="83" on="0"/>
        <pt x="70" y="94" on="0"/>
        <pt x="71" y="97" on="1"/>
        <pt x="72" y="100" on="0"/>
        <pt x="75" y="105" on="0"/>
        <pt x="78" y="117" on="0"/>
        <pt x="78" y="131" on="0"/>
        <pt x="81" y="142" on="0"/>
        <pt x="83" y="148" on="0"/>
        <pt x="90" y="174" on="0"/>
        <pt x="96" y="219" on="0"/>
        <pt x="108" y="264" on="0"/>
        <pt x="122" y="309" on="0"/>
        <pt x="129" y="339" on="0"/>
        <pt x="130" y="346" on="1"/>
        <pt x="132" y="360" on="0"/>
        <pt x="141" y="376" on="0"/>
        <pt x="144" y="388" on="0"/>
        <pt x="151" y="408" on="0"/>
        <pt x="155" y="441" on="0"/>
        <pt x="161" y="459" on="0"/>
        <pt x="162" y="461" on="0"/>
        <pt x="162" y="471" on="0"/>
        <pt x="165" y="475" on="0"/>
        <pt x="167" y="478" on="1"/>
        <pt x="172" y="506" on="1"/>
        <pt x="174" y="507" on="1"/>
        <pt x="173" y="511" on="1"/>
        <pt x="173" y="525" on="0"/>
        <pt x="196" y="568" on="0"/>
        <pt x="198" y="570" on="1"/>
        <pt x="199" y="575" on="0"/>
        <pt x="198" y="580" on="1"/>
        <pt x="198" y="591" on="0"/>
        <pt x="203" y="594" on="1"/>
        <pt x="206" y="597" on="0"/>
        <pt x="208" y="608" on="1"/>
        <pt x="212" y="610" on="1"/>
        <pt x="212" y="615" on="1"/>
        <pt x="212" y="619" on="0"/>
        <pt x="218" y="622" on="1"/>
        <pt x="220" y="630" on="0"/>
        <pt x="223" y="644" on="0"/>
        <pt x="225" y="651" on="1"/>
        <pt x="232" y="664" on="1"/>
        <pt x="234" y="667" on="0"/>
        <pt x="234" y="674" on="0"/>
        <pt x="239" y="683" on="0"/>
        <pt x="249" y="693" on="0"/>
        <pt x="254" y="712" on="0"/>
        <pt x="251" y="733" on="0"/>
        <pt x="257" y="743" on="1"/>
        <pt x="263" y="746" on="0"/>
        <pt x="286" y="746" on="0"/>
        <pt x="302" y="719" on="0"/>
        <pt x="302" y="705" on="1"/>
        <pt x="307" y="698" on="0"/>
        <pt x="312" y="682" on="0"/>
        <pt x="318" y="677" on="1"/>
        <pt x="318" y="675" on="1"/>
        <pt x="318" y="659" on="0"/>
        <pt x="341" y="613" on="0"/>
        <pt x="341" y="603" on="1"/>
        <pt x="344" y="600" on="0"/>
        <pt x="351" y="572" on="0"/>
        <pt x="364" y="559" on="1"/>
        <pt x="363" y="556" on="1"/>
        <pt x="363" y="545" on="0"/>
        <pt x="368" y="536" on="1"/>
        <pt x="379" y="517" on="0"/>
        <pt x="379" y="484" on="0"/>
        <pt x="411" y="399" on="0"/>
        <pt x="413" y="380" on="1"/>
        <pt x="412" y="379" on="1"/>
        <pt x="412" y="376" on="0"/>
        <pt x="414" y="376" on="1"/>
        <pt x="421" y="374" on="0"/>
        <pt x="421" y="354" on="0"/>
        <pt x="430" y="343" on="1"/>
        <pt x="435" y="334" on="0"/>
        <pt x="440" y="313" on="0"/>
        <pt x="448" y="305" on="1"/>
        <pt x="448" y="303" on="1"/>
        <pt x="448" y="296" on="0"/>
        <pt x="454" y="284" on="0"/>
        <pt x="457" y="274" on="0"/>
        <pt x="458" y="267" on="0"/>
        <pt x="461" y="261" on="0"/>
        <pt x="468" y="244" on="0"/>
        <pt x="475" y="224" on="0"/>
        <pt x="481" y="208" on="0"/>
        <pt x="481" y="206" on="1"/>
        <pt x="481" y="203" on="1"/>
        <pt x="486" y="198" on="0"/>
        <pt x="488" y="187" on="0"/>
        <pt x="490" y="181" on="1"/>
        <pt x="496" y="173" on="0"/>
        <pt x="498" y="153" on="0"/>
        <pt x="503" y="135" on="0"/>
        <pt x="510" y="123" on="0"/>
        <pt x="517" y="109" on="0"/>
        <pt x="520" y="88" on="0"/>
        <pt x="524" y="73" on="0"/>
        <pt x="531" y="60" on="0"/>
        <pt x="535" y="45" on="0"/>
        <pt x="534" y="37" on="1"/>
        <pt x="534" y="22" on="0"/>
        <pt x="543" y="7" on="0"/>
        <pt x="546" y="-5" on="1"/>
        <pt x="552" y="-18" on="0"/>
        <pt x="556" y="-40" on="0"/>
        <pt x="563" y="-46" on="1"/>
        <pt x="566" y="-47" on="1"/>
        <pt x="578" y="-47" on="0"/>
        <pt x="589" y="-36" on="0"/>
        <pt x="599" y="-35" on="1"/>
        <pt x="613" y="-43" on="0"/>
        <pt x="613" y="-57" on="1"/>
        <pt x="613" y="-60" on="0"/>
        <pt x="612" y="-62" on="1"/>
        <pt x="614" y="-68" on="0"/>
        <pt x="595" y="-73" on="0"/>
        <pt x="591" y="-74" on="1"/>
        <pt x="583" y="-80" on="0"/>
        <pt x="570" y="-79" on="0"/>
        <pt x="563" y="-81" on="0"/>
        <pt x="560" y="-83" on="0"/>
        <pt x="558" y="-84" on="1"/>
        <pt x="550" y="-84" on="1"/>
        <pt x="545" y="-84" on="0"/>
        <pt x="534" y="-94" on="0"/>
        <pt x="526" y="-94" on="0"/>
        <pt x="511" y="-92" on="1"/>
        <pt x="480" y="-98" on="1"/>
        <pt x="475" y="-98" on="0"/>
        <pt x="473" y="-97" on="1"/>
        <pt x="466" y="-99" on="0"/>
        <pt x="456" y="-105" on="0"/>
        <pt x="448" y="-105" on="1"/>
        <pt x="445" y="-100" on="0"/>
        <pt x="439" y="-90" on="0"/>
        <pt x="439" y="-83" on="1"/>
        <pt x="442" y="-74" on="0"/>
        <pt x="464" y="-66" on="0"/>
        <pt x="484" y="-59" on="0"/>
        <pt x="500" y="-52" on="0"/>
        <pt x="500" y="-45" on="1"/>
        <pt x="490" y="-9" on="1"/>
        <pt x="488" y="-6" on="0"/>
        <pt x="484" y="-1" on="0"/>
        <pt x="481" y="9" on="0"/>
        <pt x="481" y="24" on="0"/>
        <pt x="479" y="30" on="1"/>
        <pt x="477" y="36" on="0"/>
        <pt x="473" y="48" on="0"/>
        <pt x="471" y="53" on="1"/>
        <pt x="466" y="57" on="0"/>
        <pt x="452" y="74" on="0"/>
        <pt x="445" y="74" on="1"/>
        <pt x="432" y="72" on="1"/>
        <pt x="420" y="74" on="1"/>
        <pt x="416" y="74" on="0"/>
        <pt x="412" y="72" on="1"/>
        <pt x="400" y="68" on="0"/>
        <pt x="383" y="68" on="1"/>
        <pt x="364" y="68" on="1"/>
        <pt x="347" y="70" on="1"/>
        <pt x="342" y="68" on="1"/>
        <pt x="326" y="72" on="1"/>
        <pt x="315" y="71" on="1"/>
        <pt x="311" y="71" on="0"/>
        <pt x="308" y="74" on="1"/>
        <pt x="296" y="68" on="0"/>
        <pt x="292" y="68" on="1"/>
        <pt x="269" y="72" on="1"/>
        <pt x="258" y="70" on="1"/>
        <pt x="243" y="74" on="1"/>
        <pt x="216" y="72" on="1"/>
        <pt x="200" y="72" on="1"/>
        <pt x="148" y="72" on="0"/>
        <pt x="129" y="59" on="1"/>
        <pt x="129" y="55" on="1"/>
        <pt x="125" y="55" on="1"/>
        <pt x="118" y="48" on="0"/>
        <pt x="98" y="-24" on="0"/>
        <pt x="98" y="-34" on="0"/>
        <pt x="111" y="-40" on="0"/>
        <pt x="116" y="-40" on="1"/>
        <pt x="121" y="-40" on="0"/>
        <pt x="133" y="-37" on="1"/>
        <pt x="142" y="-43" on="0"/>
        <pt x="149" y="-52" on="1"/>
        <pt x="148" y="-60" on="0"/>
        <pt x="142" y="-72" on="0"/>
        <pt x="139" y="-78" on="1"/>
        <pt x="99" y="-73" on="1"/>
        <pt x="92" y="-70" on="1"/>
        <pt x="77" y="-72" on="1"/>
        <pt x="58" y="-67" on="1"/>
        <pt x="48" y="-69" on="1"/>
        <pt x="37" y="-68" on="1"/>
        <pt x="29" y="-68" on="0"/>
        <pt x="28" y="-71" on="1"/>
        <pt x="26" y="-71" on="0"/>
        <pt x="26" y="-69" on="0"/>
        <pt x="24" y="-69" on="1"/>
        <pt x="9" y="-74" on="1"/>
        <pt x="5" y="-74" on="0"/>
        <pt x="-15" y="-69" on="0"/>
        <pt x="-15" y="-63" on="1"/>
        <pt x="-15" y="-60" on="0"/>
        <pt x="-18" y="-60" on="1"/>
        <pt x="-20" y="-62" on="0"/>
      </contour>
      <contour>
        <pt x="345" y="109" on="1"/>
        <pt x="349" y="109" on="0"/>
        <pt x="354" y="111" on="0"/>
        <pt x="364" y="104" on="1"/>
        <pt x="375" y="108" on="0"/>
        <pt x="385" y="108" on="1"/>
        <pt x="408" y="108" on="1"/>
        <pt x="423" y="108" on="0"/>
        <pt x="438" y="111" on="1"/>
        <pt x="437" y="115" on="0"/>
        <pt x="443" y="119" on="1"/>
        <pt x="443" y="122" on="1"/>
        <pt x="443" y="133" on="0"/>
        <pt x="436" y="152" on="0"/>
        <pt x="433" y="166" on="0"/>
        <pt x="434" y="174" on="0"/>
        <pt x="430" y="181" on="0"/>
        <pt x="428" y="184" on="1"/>
        <pt x="423" y="190" on="0"/>
        <pt x="421" y="202" on="1"/>
        <pt x="420" y="209" on="0"/>
        <pt x="413" y="223" on="0"/>
        <pt x="413" y="231" on="0"/>
        <pt x="411" y="237" on="1"/>
        <pt x="389" y="284" on="1"/>
        <pt x="388" y="286" on="0"/>
        <pt x="389" y="287" on="0"/>
        <pt x="389" y="293" on="0"/>
        <pt x="368" y="327" on="0"/>
        <pt x="371" y="337" on="0"/>
        <pt x="365" y="354" on="0"/>
        <pt x="355" y="380" on="0"/>
        <pt x="353" y="394" on="1"/>
        <pt x="348" y="396" on="0"/>
        <pt x="349" y="401" on="0"/>
        <pt x="347" y="406" on="1"/>
        <pt x="343" y="410" on="1"/>
        <pt x="341" y="415" on="0"/>
        <pt x="341" y="427" on="0"/>
        <pt x="340" y="433" on="1"/>
        <pt x="328" y="448" on="0"/>
        <pt x="328" y="474" on="1"/>
        <pt x="318" y="495" on="1"/>
        <pt x="321" y="501" on="0"/>
        <pt x="321" y="511" on="0"/>
        <pt x="312" y="516" on="0"/>
        <pt x="312" y="536" on="0"/>
        <pt x="300" y="554" on="0"/>
        <pt x="300" y="567" on="1"/>
        <pt x="299" y="569" on="0"/>
        <pt x="294" y="570" on="0"/>
        <pt x="286" y="579" on="0"/>
        <pt x="279" y="593" on="0"/>
        <pt x="270" y="598" on="1"/>
        <pt x="270" y="600" on="1"/>
        <pt x="267" y="600" on="0"/>
        <pt x="267" y="598" on="1"/>
        <pt x="261" y="598" on="0"/>
        <pt x="255" y="566" on="0"/>
        <pt x="247" y="557" on="1"/>
        <pt x="246" y="553" on="0"/>
        <pt x="247" y="546" on="0"/>
        <pt x="243" y="532" on="0"/>
        <pt x="240" y="520" on="1"/>
        <pt x="234" y="512" on="0"/>
        <pt x="231" y="486" on="0"/>
        <pt x="225" y="476" on="1"/>
        <pt x="224" y="471" on="0"/>
        <pt x="223" y="459" on="0"/>
        <pt x="220" y="450" on="0"/>
        <pt x="217" y="443" on="0"/>
        <pt x="216" y="439" on="1"/>
        <pt x="210" y="388" on="1"/>
        <pt x="199" y="372" on="0"/>
        <pt x="200" y="354" on="1"/>
        <pt x="197" y="352" on="0"/>
        <pt x="196" y="345" on="0"/>
        <pt x="193" y="343" on="1"/>
        <pt x="190" y="317" on="0"/>
        <pt x="170" y="274" on="1"/>
        <pt x="170" y="256" on="1"/>
        <pt x="164" y="247" on="0"/>
        <pt x="153" y="185" on="0"/>
        <pt x="153" y="181" on="1"/>
        <pt x="151" y="179" on="0"/>
        <pt x="149" y="172" on="0"/>
        <pt x="144" y="170" on="1"/>
        <pt x="145" y="167" on="0"/>
        <pt x="145" y="162" on="1"/>
        <pt x="139" y="119" on="1"/>
        <pt x="148" y="111" on="0"/>
        <pt x="164" y="111" on="1"/>
        <pt x="236" y="114" on="1"/>
        <pt x="242" y="114" on="0"/>
        <pt x="248" y="114" on="1"/>
        <pt x="290" y="109" on="1"/>
        <pt x="326" y="111" on="1"/>
      </contour>
    </TTGlyph>
    <TTGlyph name="AE" xMin="-24" yMin="-28" xMax="751" yMax="821">
      <contour>
        <pt x="148" y="-17" on="1"/>
        <pt x="148" y="-28" on="0"/>
        <pt x="132" y="-28" on="1"/>
        <pt x="116" y="-28" on="1"/>
        <pt x="96" y="-28" on="0"/>
        <pt x="70" y="-20" on="0"/>
        <pt x="69" y="-17" on="0"/>
        <pt x="66" y="-17" on="1"/>
        <pt x="63" y="-17" on="0"/>
        <pt x="61" y="-22" on="0"/>
        <pt x="37" y="-10" on="0"/>
        <pt x="21" y="-10" on="0"/>
        <pt x="19" y="-12" on="1"/>
        <pt x="14" y="-10" on="0"/>
        <pt x="1" y="-2" on="0"/>
        <pt x="-5" y="-2" on="1"/>
        <pt x="-10" y="-4" on="1"/>
        <pt x="-24" y="5" on="1"/>
        <pt x="-24" y="24" on="1"/>
        <pt x="-20" y="28" on="0"/>
        <pt x="11" y="39" on="0"/>
        <pt x="17" y="39" on="1"/>
        <pt x="31" y="34" on="1"/>
        <pt x="40" y="34" on="0"/>
        <pt x="45" y="17" on="0"/>
        <pt x="59" y="17" on="0"/>
        <pt x="62" y="30" on="0"/>
        <pt x="67" y="41" on="0"/>
        <pt x="73" y="46" on="0"/>
        <pt x="73" y="53" on="1"/>
        <pt x="73" y="54" on="1"/>
        <pt x="77" y="58" on="1"/>
        <pt x="77" y="63" on="1"/>
        <pt x="77" y="68" on="0"/>
        <pt x="85" y="84" on="1"/>
        <pt x="84" y="93" on="1"/>
        <pt x="84" y="97" on="0"/>
        <pt x="89" y="100" on="0"/>
        <pt x="92" y="105" on="0"/>
        <pt x="91" y="112" on="0"/>
        <pt x="94" y="119" on="0"/>
        <pt x="102" y="129" on="0"/>
        <pt x="102" y="137" on="0"/>
        <pt x="100" y="137" on="0"/>
        <pt x="100" y="139" on="1"/>
        <pt x="100" y="141" on="0"/>
        <pt x="111" y="161" on="0"/>
        <pt x="113" y="163" on="1"/>
        <pt x="113" y="177" on="0"/>
        <pt x="125" y="206" on="0"/>
        <pt x="128" y="222" on="1"/>
        <pt x="134" y="232" on="0"/>
        <pt x="134" y="245" on="0"/>
        <pt x="140" y="261" on="0"/>
        <pt x="149" y="272" on="0"/>
        <pt x="147" y="287" on="1"/>
        <pt x="163" y="322" on="0"/>
        <pt x="165" y="329" on="0"/>
        <pt x="163" y="339" on="0"/>
        <pt x="167" y="351" on="0"/>
        <pt x="171" y="350" on="0"/>
        <pt x="171" y="360" on="1"/>
        <pt x="171" y="361" on="1"/>
        <pt x="175" y="364" on="1"/>
        <pt x="177" y="369" on="0"/>
        <pt x="177" y="382" on="0"/>
        <pt x="179" y="387" on="1"/>
        <pt x="183" y="389" on="1"/>
        <pt x="192" y="411" on="1"/>
        <pt x="196" y="420" on="0"/>
        <pt x="203" y="443" on="0"/>
        <pt x="209" y="453" on="0"/>
        <pt x="218" y="474" on="0"/>
        <pt x="227" y="507" on="0"/>
        <pt x="236" y="527" on="0"/>
        <pt x="242" y="538" on="0"/>
        <pt x="244" y="543" on="1"/>
        <pt x="244" y="548" on="0"/>
        <pt x="246" y="552" on="1"/>
        <pt x="250" y="552" on="1"/>
        <pt x="256" y="563" on="0"/>
        <pt x="265" y="589" on="0"/>
        <pt x="273" y="599" on="1"/>
        <pt x="276" y="617" on="0"/>
        <pt x="295" y="649" on="0"/>
        <pt x="302" y="669" on="0"/>
        <pt x="301" y="674" on="0"/>
        <pt x="305" y="681" on="0"/>
        <pt x="316" y="690" on="0"/>
        <pt x="322" y="698" on="0"/>
        <pt x="325" y="705" on="0"/>
        <pt x="327" y="708" on="1"/>
        <pt x="342" y="726" on="0"/>
        <pt x="342" y="753" on="1"/>
        <pt x="348" y="757" on="0"/>
        <pt x="357" y="768" on="0"/>
        <pt x="371" y="768" on="0"/>
        <pt x="377" y="763" on="0"/>
        <pt x="382" y="761" on="1"/>
        <pt x="385" y="761" on="1"/>
        <pt x="422" y="763" on="1"/>
        <pt x="436" y="761" on="1"/>
        <pt x="439" y="761" on="0"/>
        <pt x="442" y="762" on="1"/>
        <pt x="451" y="767" on="0"/>
        <pt x="473" y="767" on="1"/>
        <pt x="498" y="767" on="1"/>
        <pt x="515" y="765" on="1"/>
        <pt x="532" y="768" on="1"/>
        <pt x="548" y="765" on="1"/>
        <pt x="552" y="765" on="0"/>
        <pt x="560" y="767" on="1"/>
        <pt x="599" y="767" on="1"/>
        <pt x="616" y="767" on="0"/>
        <pt x="619" y="763" on="1"/>
        <pt x="639" y="769" on="0"/>
        <pt x="678" y="769" on="0"/>
        <pt x="694" y="767" on="1"/>
        <pt x="698" y="772" on="0"/>
        <pt x="698" y="811" on="0"/>
        <pt x="703" y="817" on="1"/>
        <pt x="709" y="821" on="0"/>
        <pt x="714" y="821" on="1"/>
        <pt x="716" y="821" on="1"/>
        <pt x="718" y="817" on="0"/>
        <pt x="729" y="813" on="0"/>
        <pt x="733" y="806" on="0"/>
        <pt x="731" y="801" on="0"/>
        <pt x="731" y="799" on="1"/>
        <pt x="737" y="788" on="0"/>
        <pt x="737" y="780" on="1"/>
        <pt x="737" y="765" on="1"/>
        <pt x="737" y="761" on="0"/>
        <pt x="735" y="757" on="1"/>
        <pt x="741" y="738" on="1"/>
        <pt x="741" y="735" on="0"/>
        <pt x="739" y="733" on="1"/>
        <pt x="739" y="731" on="1"/>
        <pt x="739" y="729" on="0"/>
        <pt x="745" y="729" on="0"/>
        <pt x="749" y="698" on="0"/>
        <pt x="751" y="686" on="0"/>
        <pt x="751" y="665" on="0"/>
        <pt x="742" y="657" on="0"/>
        <pt x="741" y="650" on="1"/>
        <pt x="733" y="651" on="1"/>
        <pt x="729" y="651" on="0"/>
        <pt x="728" y="648" on="1"/>
        <pt x="723" y="653" on="0"/>
        <pt x="711" y="659" on="0"/>
        <pt x="705" y="665" on="1"/>
        <pt x="703" y="673" on="0"/>
        <pt x="704" y="686" on="0"/>
        <pt x="704" y="717" on="0"/>
        <pt x="698" y="723" on="1"/>
        <pt x="694" y="725" on="1"/>
        <pt x="690" y="730" on="0"/>
        <pt x="687" y="732" on="0"/>
        <pt x="681" y="732" on="1"/>
        <pt x="661" y="731" on="1"/>
        <pt x="647" y="734" on="1"/>
        <pt x="638" y="733" on="1"/>
        <pt x="630" y="733" on="0"/>
        <pt x="615" y="739" on="1"/>
        <pt x="607" y="736" on="0"/>
        <pt x="605" y="733" on="0"/>
        <pt x="594" y="733" on="1"/>
        <pt x="569" y="732" on="1"/>
        <pt x="563" y="732" on="0"/>
        <pt x="560" y="733" on="1"/>
        <pt x="547" y="727" on="1"/>
        <pt x="538" y="729" on="0"/>
        <pt x="518" y="727" on="0"/>
        <pt x="504" y="727" on="0"/>
        <pt x="493" y="729" on="1"/>
        <pt x="467" y="718" on="0"/>
        <pt x="438" y="720" on="0"/>
        <pt x="409" y="720" on="0"/>
        <pt x="401" y="714" on="1"/>
        <pt x="398" y="699" on="0"/>
        <pt x="398" y="687" on="1"/>
        <pt x="405" y="624" on="1"/>
        <pt x="405" y="613" on="0"/>
        <pt x="410" y="603" on="0"/>
        <pt x="408" y="578" on="0"/>
        <pt x="408" y="570" on="1"/>
        <pt x="408" y="555" on="1"/>
        <pt x="408" y="548" on="0"/>
        <pt x="416" y="529" on="0"/>
        <pt x="420" y="509" on="0"/>
        <pt x="418" y="476" on="0"/>
        <pt x="420" y="427" on="0"/>
        <pt x="425" y="417" on="0"/>
        <pt x="425" y="413" on="1"/>
        <pt x="423" y="407" on="1"/>
        <pt x="427" y="383" on="1"/>
        <pt x="426" y="362" on="1"/>
        <pt x="426" y="354" on="0"/>
        <pt x="429" y="348" on="1"/>
        <pt x="433" y="345" on="0"/>
        <pt x="438" y="345" on="1"/>
        <pt x="449" y="345" on="0"/>
        <pt x="523" y="355" on="0"/>
        <pt x="532" y="360" on="0"/>
        <pt x="545" y="364" on="0"/>
        <pt x="563" y="361" on="0"/>
        <pt x="570" y="368" on="1"/>
        <pt x="578" y="366" on="0"/>
        <pt x="598" y="366" on="0"/>
        <pt x="605" y="370" on="0"/>
        <pt x="631" y="375" on="0"/>
        <pt x="666" y="373" on="0"/>
        <pt x="680" y="379" on="1"/>
        <pt x="683" y="387" on="0"/>
        <pt x="691" y="437" on="0"/>
        <pt x="700" y="444" on="1"/>
        <pt x="700" y="443" on="0"/>
        <pt x="702" y="443" on="1"/>
        <pt x="711" y="446" on="1"/>
        <pt x="719" y="446" on="0"/>
        <pt x="729" y="422" on="0"/>
        <pt x="729" y="416" on="1"/>
        <pt x="723" y="383" on="1"/>
        <pt x="728" y="359" on="1"/>
        <pt x="727" y="347" on="1"/>
        <pt x="727" y="339" on="0"/>
        <pt x="736" y="322" on="0"/>
        <pt x="736" y="308" on="0"/>
        <pt x="733" y="304" on="1"/>
        <pt x="734" y="303" on="1"/>
        <pt x="734" y="300" on="0"/>
        <pt x="727" y="301" on="0"/>
        <pt x="720" y="301" on="0"/>
        <pt x="719" y="289" on="0"/>
        <pt x="699" y="289" on="0"/>
        <pt x="688" y="300" on="0"/>
        <pt x="685" y="316" on="0"/>
        <pt x="684" y="336" on="0"/>
        <pt x="682" y="344" on="1"/>
        <pt x="678" y="346" on="0"/>
        <pt x="673" y="346" on="1"/>
        <pt x="661" y="346" on="1"/>
        <pt x="629" y="340" on="1"/>
        <pt x="607" y="342" on="1"/>
        <pt x="596" y="342" on="0"/>
        <pt x="572" y="332" on="0"/>
        <pt x="566" y="332" on="1"/>
        <pt x="551" y="334" on="1"/>
        <pt x="541" y="334" on="0"/>
        <pt x="523" y="326" on="0"/>
        <pt x="510" y="326" on="0"/>
        <pt x="502" y="328" on="1"/>
        <pt x="497" y="327" on="0"/>
        <pt x="492" y="318" on="0"/>
        <pt x="487" y="316" on="1"/>
        <pt x="480" y="316" on="1"/>
        <pt x="453" y="316" on="0"/>
        <pt x="429" y="300" on="1"/>
        <pt x="428" y="283" on="0"/>
        <pt x="436" y="250" on="0"/>
        <pt x="436" y="232" on="1"/>
        <pt x="434" y="202" on="1"/>
        <pt x="434" y="183" on="0"/>
        <pt x="444" y="145" on="0"/>
        <pt x="444" y="131" on="1"/>
        <pt x="444" y="108" on="1"/>
        <pt x="444" y="100" on="0"/>
        <pt x="442" y="92" on="1"/>
        <pt x="448" y="83" on="0"/>
        <pt x="472" y="87" on="0"/>
        <pt x="481" y="82" on="1"/>
        <pt x="499" y="88" on="0"/>
        <pt x="554" y="94" on="0"/>
        <pt x="586" y="98" on="0"/>
        <pt x="609" y="100" on="0"/>
        <pt x="649" y="97" on="0"/>
        <pt x="664" y="103" on="1"/>
        <pt x="667" y="104" on="0"/>
        <pt x="667" y="110" on="1"/>
        <pt x="671" y="121" on="1"/>
        <pt x="669" y="138" on="1"/>
        <pt x="669" y="139" on="0"/>
        <pt x="671" y="144" on="1"/>
        <pt x="674" y="154" on="1"/>
        <pt x="679" y="168" on="0"/>
        <pt x="683" y="171" on="0"/>
        <pt x="690" y="169" on="0"/>
        <pt x="692" y="173" on="1"/>
        <pt x="698" y="169" on="1"/>
        <pt x="700" y="165" on="1"/>
        <pt x="703" y="165" on="1"/>
        <pt x="706" y="162" on="0"/>
        <pt x="704" y="158" on="0"/>
        <pt x="710" y="153" on="1"/>
        <pt x="712" y="144" on="0"/>
        <pt x="712" y="139" on="1"/>
        <pt x="710" y="110" on="1"/>
        <pt x="712" y="86" on="1"/>
        <pt x="712" y="74" on="0"/>
        <pt x="698" y="54" on="0"/>
        <pt x="696" y="43" on="1"/>
        <pt x="677" y="38" on="1"/>
        <pt x="667" y="38" on="0"/>
        <pt x="667" y="47" on="1"/>
        <pt x="667" y="67" on="1"/>
        <pt x="658" y="71" on="0"/>
        <pt x="627" y="71" on="0"/>
        <pt x="617" y="62" on="1"/>
        <pt x="586" y="68" on="0"/>
        <pt x="511" y="56" on="0"/>
        <pt x="476" y="56" on="0"/>
        <pt x="474" y="50" on="0"/>
        <pt x="470" y="49" on="1"/>
        <pt x="454" y="51" on="0"/>
        <pt x="422" y="49" on="0"/>
        <pt x="413" y="49" on="1"/>
        <pt x="398" y="49" on="1"/>
        <pt x="372" y="49" on="0"/>
        <pt x="372" y="55" on="1"/>
        <pt x="374" y="62" on="1"/>
        <pt x="372" y="74" on="1"/>
        <pt x="372" y="82" on="0"/>
        <pt x="384" y="85" on="0"/>
        <pt x="382" y="90" on="1"/>
        <pt x="384" y="112" on="0"/>
        <pt x="384" y="128" on="1"/>
        <pt x="384" y="154" on="1"/>
        <pt x="376" y="204" on="1"/>
        <pt x="377" y="216" on="1"/>
        <pt x="377" y="219" on="0"/>
        <pt x="374" y="222" on="1"/>
        <pt x="377" y="222" on="0"/>
        <pt x="375" y="230" on="0"/>
        <pt x="378" y="231" on="1"/>
        <pt x="373" y="243" on="0"/>
        <pt x="376" y="266" on="0"/>
        <pt x="370" y="276" on="1"/>
        <pt x="372" y="285" on="0"/>
        <pt x="372" y="289" on="1"/>
        <pt x="372" y="293" on="1"/>
        <pt x="365" y="298" on="0"/>
        <pt x="353" y="298" on="1"/>
        <pt x="317" y="297" on="1"/>
        <pt x="298" y="295" on="1"/>
        <pt x="292" y="295" on="0"/>
        <pt x="289" y="290" on="0"/>
        <pt x="283" y="290" on="0"/>
        <pt x="282" y="293" on="1"/>
        <pt x="277" y="293" on="0"/>
        <pt x="275" y="289" on="1"/>
        <pt x="267" y="291" on="1"/>
        <pt x="258" y="288" on="0"/>
        <pt x="236" y="286" on="0"/>
        <pt x="235" y="281" on="1"/>
        <pt x="233" y="281" on="1"/>
        <pt x="228" y="281" on="0"/>
        <pt x="227" y="289" on="0"/>
        <pt x="219" y="289" on="0"/>
        <pt x="218" y="278" on="0"/>
        <pt x="216" y="274" on="1"/>
        <pt x="212" y="273" on="1"/>
        <pt x="209" y="263" on="1"/>
        <pt x="207" y="261" on="0"/>
        <pt x="204" y="259" on="0"/>
        <pt x="201" y="254" on="0"/>
        <pt x="202" y="247" on="0"/>
        <pt x="195" y="240" on="0"/>
        <pt x="189" y="215" on="0"/>
        <pt x="190" y="210" on="1"/>
        <pt x="179" y="196" on="0"/>
        <pt x="177" y="171" on="1"/>
        <pt x="174" y="170" on="0"/>
        <pt x="172" y="165" on="0"/>
        <pt x="169" y="163" on="1"/>
        <pt x="166" y="139" on="0"/>
        <pt x="160" y="131" on="1"/>
        <pt x="158" y="126" on="0"/>
        <pt x="160" y="117" on="0"/>
        <pt x="155" y="103" on="0"/>
        <pt x="142" y="91" on="0"/>
        <pt x="143" y="80" on="1"/>
        <pt x="137" y="77" on="0"/>
        <pt x="133" y="62" on="0"/>
        <pt x="126" y="60" on="1"/>
        <pt x="125" y="56" on="0"/>
        <pt x="123" y="52" on="0"/>
        <pt x="124" y="47" on="1"/>
        <pt x="106" y="36" on="0"/>
        <pt x="106" y="13" on="1"/>
        <pt x="108" y="7" on="0"/>
        <pt x="116" y="6" on="1"/>
        <pt x="129" y="4" on="1"/>
        <pt x="134" y="4" on="0"/>
        <pt x="137" y="3" on="1"/>
        <pt x="148" y="-11" on="0"/>
      </contour>
      <contour>
        <pt x="368" y="370" on="1"/>
        <pt x="370" y="385" on="1"/>
        <pt x="370" y="390" on="0"/>
        <pt x="365" y="397" on="1"/>
        <pt x="365" y="450" on="1"/>
        <pt x="361" y="461" on="0"/>
        <pt x="364" y="485" on="0"/>
        <pt x="364" y="514" on="0"/>
        <pt x="359" y="526" on="1"/>
        <pt x="359" y="527" on="0"/>
        <pt x="363" y="541" on="1"/>
        <pt x="358" y="546" on="0"/>
        <pt x="359" y="565" on="0"/>
        <pt x="354" y="571" on="1"/>
        <pt x="358" y="577" on="0"/>
        <pt x="358" y="585" on="1"/>
        <pt x="354" y="612" on="1"/>
        <pt x="356" y="627" on="1"/>
        <pt x="356" y="634" on="0"/>
        <pt x="352" y="641" on="0"/>
        <pt x="344" y="641" on="1"/>
        <pt x="342" y="641" on="1"/>
        <pt x="340" y="635" on="1"/>
        <pt x="340" y="618" on="1"/>
        <pt x="336" y="611" on="0"/>
        <pt x="326" y="600" on="0"/>
        <pt x="320" y="585" on="0"/>
        <pt x="321" y="572" on="0"/>
        <pt x="314" y="561" on="0"/>
        <pt x="309" y="556" on="0"/>
        <pt x="306" y="551" on="1"/>
        <pt x="301" y="540" on="1"/>
        <pt x="291" y="522" on="0"/>
        <pt x="291" y="505" on="0"/>
        <pt x="289" y="499" on="1"/>
        <pt x="285" y="496" on="1"/>
        <pt x="286" y="489" on="1"/>
        <pt x="286" y="487" on="0"/>
        <pt x="284" y="486" on="1"/>
        <pt x="278" y="481" on="0"/>
        <pt x="258" y="425" on="0"/>
        <pt x="258" y="417" on="1"/>
        <pt x="258" y="415" on="1"/>
        <pt x="254" y="411" on="1"/>
        <pt x="252" y="398" on="1"/>
        <pt x="249" y="392" on="0"/>
        <pt x="246" y="389" on="1"/>
        <pt x="244" y="384" on="0"/>
        <pt x="241" y="372" on="0"/>
        <pt x="235" y="368" on="1"/>
        <pt x="235" y="357" on="0"/>
        <pt x="227" y="340" on="0"/>
        <pt x="227" y="330" on="1"/>
        <pt x="228" y="324" on="1"/>
        <pt x="231" y="322" on="0"/>
        <pt x="240" y="322" on="1"/>
        <pt x="264" y="324" on="1"/>
        <pt x="273" y="323" on="1"/>
        <pt x="278" y="327" on="0"/>
        <pt x="288" y="327" on="1"/>
        <pt x="301" y="326" on="1"/>
        <pt x="309" y="328" on="1"/>
        <pt x="316" y="326" on="1"/>
        <pt x="331" y="330" on="1"/>
        <pt x="340" y="332" on="0"/>
        <pt x="359" y="332" on="0"/>
        <pt x="368" y="338" on="1"/>
        <pt x="369" y="342" on="0"/>
        <pt x="369" y="349" on="1"/>
      </contour>
    </TTGlyph>
    <TTGlyph name="Aacute" xMin="-28" yMin="-105" xMax="613" yMax="994">
      <component glyphName="A" x="0" y="0" flags="0x1204"/>
      <component glyphName="acute" x="192" y="171" flags="0x1004"/>
    </TTGlyph>
    <TTGlyph name="Acircumflex" xMin="-28" yMin="-105" xMax="613" yMax="974">
      <component glyphName="A" x="0" y="0" flags="0x1204"/>
      <component glyphName="circumflex" x="120" y="101" flags="0x1004"/>
    </TTGlyph>
    <TTGlyph name="Adieresis" xMin="-28" yMin="-105" xMax="613" yMax="909">
      <component glyphName="A" x="0" y="0" flags="0x1204"/>
      <component glyphName="dieresis" x="150" y="106" flags="0x1004"/>
    </TTGlyph>
    <TTGlyph name="Agrave" xMin="-28" yMin="-105" xMax="613" yMax="963">
      <component glyphName="A" x="0" y="0" flags="0x1204"/>
      <component glyphName="grave" x="185" y="135" flags="0x1004"/>
    </TTGlyph>
    <TTGlyph name="Aring" xMin="-29" yMin="-105" xMax="612" yMax="878">
      <contour>
        <pt x="344" y="109" on="1"/>
        <pt x="348" y="109" on="0"/>
        <pt x="353" y="111" on="0"/>
        <pt x="363" y="104" on="1"/>
        <pt x="374" y="108" on="0"/>
        <pt x="384" y="108" on="1"/>
        <pt x="407" y="108" on="1"/>
        <pt x="422" y="108" on="0"/>
        <pt x="437" y="111" on="1"/>
        <pt x="436" y="115" on="0"/>
        <pt x="442" y="119" on="1"/>
        <pt x="442" y="122" on="1"/>
        <pt x="442" y="133" on="0"/>
        <pt x="435" y="152" on="0"/>
        <pt x="432" y="166" on="0"/>
        <pt x="433" y="174" on="0"/>
        <pt x="429" y="181" on="0"/>
        <pt x="427" y="184" on="1"/>
        <pt x="422" y="190" on="0"/>
        <pt x="420" y="202" on="1"/>
        <pt x="419" y="209" on="0"/>
        <pt x="412" y="223" on="0"/>
        <pt x="412" y="231" on="0"/>
        <pt x="410" y="237" on="1"/>
        <pt x="388" y="284" on="1"/>
        <pt x="387" y="286" on="0"/>
        <pt x="388" y="287" on="0"/>
        <pt x="388" y="293" on="0"/>
        <pt x="367" y="327" on="0"/>
        <pt x="370" y="337" on="0"/>
        <pt x="364" y="354" on="0"/>
        <pt x="354" y="380" on="0"/>
        <pt x="352" y="394" on="1"/>
        <pt x="347" y="396" on="0"/>
        <pt x="348" y="401" on="0"/>
        <pt x="346" y="406" on="1"/>
        <pt x="342" y="410" on="1"/>
        <pt x="340" y="415" on="0"/>
        <pt x="340" y="427" on="0"/>
        <pt x="339" y="433" on="1"/>
        <pt x="327" y="448" on="0"/>
        <pt x="327" y="474" on="1"/>
        <pt x="317" y="495" on="1"/>
        <pt x="320" y="501" on="0"/>
        <pt x="320" y="511" on="0"/>
        <pt x="311" y="516" on="0"/>
        <pt x="311" y="536" on="0"/>
        <pt x="299" y="554" on="0"/>
        <pt x="299" y="567" on="1"/>
        <pt x="298" y="569" on="0"/>
        <pt x="293" y="570" on="0"/>
        <pt x="285" y="579" on="0"/>
        <pt x="278" y="593" on="0"/>
        <pt x="269" y="598" on="1"/>
        <pt x="269" y="600" on="1"/>
        <pt x="266" y="600" on="0"/>
        <pt x="266" y="598" on="1"/>
        <pt x="260" y="598" on="0"/>
        <pt x="254" y="566" on="0"/>
        <pt x="246" y="557" on="1"/>
        <pt x="245" y="553" on="0"/>
        <pt x="246" y="546" on="0"/>
        <pt x="242" y="532" on="0"/>
        <pt x="239" y="520" on="1"/>
        <pt x="233" y="512" on="0"/>
        <pt x="230" y="486" on="0"/>
        <pt x="224" y="476" on="1"/>
        <pt x="223" y="471" on="0"/>
        <pt x="222" y="459" on="0"/>
        <pt x="219" y="450" on="0"/>
        <pt x="216" y="443" on="0"/>
        <pt x="215" y="439" on="1"/>
        <pt x="209" y="388" on="1"/>
        <pt x="198" y="372" on="0"/>
        <pt x="199" y="354" on="1"/>
        <pt x="196" y="352" on="0"/>
        <pt x="195" y="345" on="0"/>
        <pt x="192" y="343" on="1"/>
        <pt x="189" y="317" on="0"/>
        <pt x="169" y="274" on="1"/>
        <pt x="169" y="256" on="1"/>
        <pt x="163" y="247" on="0"/>
        <pt x="152" y="185" on="0"/>
        <pt x="152" y="181" on="1"/>
        <pt x="150" y="179" on="0"/>
        <pt x="148" y="172" on="0"/>
        <pt x="143" y="170" on="1"/>
        <pt x="144" y="167" on="0"/>
        <pt x="144" y="162" on="1"/>
        <pt x="138" y="119" on="1"/>
        <pt x="147" y="111" on="0"/>
        <pt x="163" y="111" on="1"/>
        <pt x="235" y="114" on="1"/>
        <pt x="241" y="114" on="0"/>
        <pt x="247" y="114" on="1"/>
        <pt x="289" y="109" on="1"/>
        <pt x="325" y="111" on="1"/>
      </contour>
      <contour>
        <pt x="-22" y="-62" on="1"/>
        <pt x="-29" y="-62" on="0"/>
        <pt x="-29" y="-40" on="0"/>
        <pt x="-21" y="-33" on="1"/>
        <pt x="-15" y="-31" on="0"/>
        <pt x="-12" y="-31" on="1"/>
        <pt x="4" y="-33" on="1"/>
        <pt x="19" y="-31" on="1"/>
        <pt x="28" y="-32" on="1"/>
        <pt x="43" y="-32" on="0"/>
        <pt x="48" y="4" on="1"/>
        <pt x="50" y="18" on="0"/>
        <pt x="54" y="46" on="0"/>
        <pt x="60" y="52" on="1"/>
        <pt x="58" y="53" on="0"/>
        <pt x="58" y="59" on="0"/>
        <pt x="62" y="71" on="0"/>
        <pt x="65" y="83" on="0"/>
        <pt x="69" y="94" on="0"/>
        <pt x="70" y="97" on="1"/>
        <pt x="71" y="100" on="0"/>
        <pt x="74" y="105" on="0"/>
        <pt x="77" y="117" on="0"/>
        <pt x="77" y="131" on="0"/>
        <pt x="80" y="142" on="0"/>
        <pt x="82" y="148" on="0"/>
        <pt x="89" y="174" on="0"/>
        <pt x="95" y="219" on="0"/>
        <pt x="107" y="264" on="0"/>
        <pt x="121" y="309" on="0"/>
        <pt x="128" y="339" on="0"/>
        <pt x="129" y="346" on="1"/>
        <pt x="131" y="360" on="0"/>
        <pt x="140" y="376" on="0"/>
        <pt x="143" y="388" on="0"/>
        <pt x="150" y="408" on="0"/>
        <pt x="154" y="441" on="0"/>
        <pt x="160" y="459" on="0"/>
        <pt x="161" y="461" on="0"/>
        <pt x="161" y="471" on="0"/>
        <pt x="164" y="475" on="0"/>
        <pt x="166" y="478" on="1"/>
        <pt x="171" y="506" on="1"/>
        <pt x="173" y="507" on="1"/>
        <pt x="172" y="511" on="1"/>
        <pt x="172" y="525" on="0"/>
        <pt x="195" y="568" on="0"/>
        <pt x="197" y="570" on="1"/>
        <pt x="198" y="575" on="0"/>
        <pt x="198" y="580" on="1"/>
        <pt x="197" y="591" on="0"/>
        <pt x="202" y="594" on="1"/>
        <pt x="205" y="597" on="0"/>
        <pt x="207" y="608" on="1"/>
        <pt x="211" y="610" on="1"/>
        <pt x="211" y="615" on="1"/>
        <pt x="211" y="619" on="0"/>
        <pt x="217" y="622" on="1"/>
        <pt x="219" y="630" on="0"/>
        <pt x="222" y="644" on="0"/>
        <pt x="224" y="651" on="1"/>
        <pt x="231" y="664" on="1"/>
        <pt x="233" y="667" on="0"/>
        <pt x="233" y="670" on="1"/>
        <pt x="233" y="678" on="0"/>
        <pt x="253" y="698" on="0"/>
        <pt x="251" y="720" on="0"/>
        <pt x="252" y="727" on="1"/>
        <pt x="248" y="727" on="0"/>
        <pt x="246" y="728" on="1"/>
        <pt x="238" y="737" on="0"/>
        <pt x="218" y="752" on="0"/>
        <pt x="209" y="760" on="1"/>
        <pt x="207" y="765" on="0"/>
        <pt x="200" y="782" on="0"/>
        <pt x="200" y="786" on="1"/>
        <pt x="201" y="796" on="1"/>
        <pt x="201" y="799" on="0"/>
        <pt x="199" y="803" on="1"/>
        <pt x="200" y="809" on="0"/>
        <pt x="206" y="824" on="0"/>
        <pt x="208" y="830" on="1"/>
        <pt x="210" y="840" on="0"/>
        <pt x="220" y="845" on="0"/>
        <pt x="220" y="850" on="0"/>
        <pt x="229" y="860" on="0"/>
        <pt x="255" y="872" on="0"/>
        <pt x="263" y="878" on="1"/>
        <pt x="267" y="878" on="1"/>
        <pt x="277" y="874" on="0"/>
        <pt x="298" y="866" on="0"/>
        <pt x="308" y="862" on="1"/>
        <pt x="341" y="848" on="0"/>
        <pt x="345" y="818" on="1"/>
        <pt x="346" y="811" on="0"/>
        <pt x="350" y="803" on="1"/>
        <pt x="348" y="797" on="0"/>
        <pt x="338" y="793" on="0"/>
        <pt x="334" y="779" on="0"/>
        <pt x="333" y="762" on="0"/>
        <pt x="331" y="754" on="1"/>
        <pt x="328" y="752" on="0"/>
        <pt x="324" y="746" on="0"/>
        <pt x="319" y="746" on="1"/>
        <pt x="319" y="738" on="0"/>
        <pt x="308" y="731" on="0"/>
        <pt x="303" y="726" on="1"/>
        <pt x="300" y="727" on="0"/>
        <pt x="296" y="727" on="1"/>
        <pt x="301" y="715" on="0"/>
        <pt x="301" y="705" on="1"/>
        <pt x="306" y="698" on="0"/>
        <pt x="311" y="682" on="0"/>
        <pt x="317" y="677" on="1"/>
        <pt x="317" y="675" on="1"/>
        <pt x="317" y="659" on="0"/>
        <pt x="340" y="613" on="0"/>
        <pt x="340" y="603" on="1"/>
        <pt x="343" y="600" on="0"/>
        <pt x="350" y="572" on="0"/>
        <pt x="363" y="559" on="1"/>
        <pt x="362" y="556" on="1"/>
        <pt x="362" y="545" on="0"/>
        <pt x="368" y="536" on="1"/>
        <pt x="378" y="517" on="0"/>
        <pt x="378" y="484" on="0"/>
        <pt x="410" y="399" on="0"/>
        <pt x="412" y="380" on="1"/>
        <pt x="411" y="379" on="1"/>
        <pt x="411" y="376" on="0"/>
        <pt x="414" y="376" on="1"/>
        <pt x="420" y="374" on="0"/>
        <pt x="420" y="354" on="0"/>
        <pt x="429" y="343" on="1"/>
        <pt x="434" y="334" on="0"/>
        <pt x="439" y="313" on="0"/>
        <pt x="447" y="305" on="1"/>
        <pt x="447" y="303" on="1"/>
        <pt x="447" y="296" on="0"/>
        <pt x="453" y="284" on="0"/>
        <pt x="456" y="274" on="0"/>
        <pt x="457" y="267" on="0"/>
        <pt x="460" y="261" on="0"/>
        <pt x="467" y="244" on="0"/>
        <pt x="474" y="224" on="0"/>
        <pt x="480" y="208" on="0"/>
        <pt x="480" y="206" on="1"/>
        <pt x="480" y="203" on="1"/>
        <pt x="485" y="198" on="0"/>
        <pt x="487" y="187" on="0"/>
        <pt x="489" y="181" on="1"/>
        <pt x="495" y="173" on="0"/>
        <pt x="497" y="153" on="0"/>
        <pt x="502" y="135" on="0"/>
        <pt x="509" y="123" on="0"/>
        <pt x="516" y="109" on="0"/>
        <pt x="519" y="88" on="0"/>
        <pt x="523" y="73" on="0"/>
        <pt x="530" y="60" on="0"/>
        <pt x="534" y="45" on="0"/>
        <pt x="534" y="37" on="1"/>
        <pt x="533" y="22" on="0"/>
        <pt x="542" y="7" on="0"/>
        <pt x="545" y="-5" on="1"/>
        <pt x="551" y="-18" on="0"/>
        <pt x="555" y="-40" on="0"/>
        <pt x="562" y="-46" on="1"/>
        <pt x="565" y="-47" on="1"/>
        <pt x="577" y="-47" on="0"/>
        <pt x="588" y="-36" on="0"/>
        <pt x="598" y="-35" on="1"/>
        <pt x="612" y="-43" on="0"/>
        <pt x="612" y="-57" on="1"/>
        <pt x="612" y="-60" on="0"/>
        <pt x="611" y="-62" on="1"/>
        <pt x="613" y="-68" on="0"/>
        <pt x="594" y="-73" on="0"/>
        <pt x="590" y="-74" on="1"/>
        <pt x="582" y="-80" on="0"/>
        <pt x="569" y="-79" on="0"/>
        <pt x="562" y="-81" on="0"/>
        <pt x="559" y="-83" on="0"/>
        <pt x="557" y="-84" on="1"/>
        <pt x="549" y="-84" on="1"/>
        <pt x="544" y="-84" on="0"/>
        <pt x="533" y="-94" on="0"/>
        <pt x="525" y="-94" on="1"/>
        <pt x="510" y="-92" on="1"/>
        <pt x="479" y="-98" on="1"/>
        <pt x="474" y="-98" on="0"/>
        <pt x="472" y="-97" on="1"/>
        <pt x="465" y="-99" on="0"/>
        <pt x="455" y="-105" on="0"/>
        <pt x="447" y="-105" on="1"/>
        <pt x="444" y="-100" on="0"/>
        <pt x="438" y="-90" on="0"/>
        <pt x="438" y="-83" on="1"/>
        <pt x="441" y="-74" on="0"/>
        <pt x="463" y="-66" on="0"/>
        <pt x="483" y="-59" on="0"/>
        <pt x="499" y="-52" on="0"/>
        <pt x="499" y="-45" on="1"/>
        <pt x="489" y="-9" on="1"/>
        <pt x="487" y="-6" on="0"/>
        <pt x="483" y="-1" on="0"/>
        <pt x="480" y="9" on="0"/>
        <pt x="480" y="24" on="0"/>
        <pt x="478" y="30" on="1"/>
        <pt x="476" y="36" on="0"/>
        <pt x="472" y="48" on="0"/>
        <pt x="470" y="53" on="1"/>
        <pt x="465" y="57" on="0"/>
        <pt x="451" y="74" on="0"/>
        <pt x="444" y="74" on="1"/>
        <pt x="431" y="72" on="1"/>
        <pt x="419" y="74" on="1"/>
        <pt x="415" y="74" on="0"/>
        <pt x="411" y="72" on="1"/>
        <pt x="399" y="68" on="0"/>
        <pt x="382" y="68" on="1"/>
        <pt x="363" y="68" on="1"/>
        <pt x="346" y="70" on="1"/>
        <pt x="341" y="68" on="1"/>
        <pt x="325" y="72" on="1"/>
        <pt x="314" y="71" on="1"/>
        <pt x="310" y="71" on="0"/>
        <pt x="307" y="74" on="1"/>
        <pt x="295" y="68" on="0"/>
        <pt x="291" y="68" on="1"/>
        <pt x="268" y="72" on="1"/>
        <pt x="257" y="70" on="1"/>
        <pt x="242" y="74" on="1"/>
        <pt x="215" y="72" on="1"/>
        <pt x="199" y="72" on="1"/>
        <pt x="147" y="72" on="0"/>
        <pt x="128" y="59" on="1"/>
        <pt x="128" y="55" on="1"/>
        <pt x="124" y="55" on="1"/>
        <pt x="117" y="48" on="0"/>
        <pt x="97" y="-24" on="0"/>
        <pt x="97" y="-34" on="0"/>
        <pt x="110" y="-40" on="0"/>
        <pt x="115" y="-40" on="1"/>
        <pt x="120" y="-40" on="0"/>
        <pt x="132" y="-37" on="1"/>
        <pt x="141" y="-43" on="0"/>
        <pt x="148" y="-52" on="1"/>
        <pt x="147" y="-60" on="0"/>
        <pt x="141" y="-72" on="0"/>
        <pt x="138" y="-78" on="1"/>
        <pt x="98" y="-73" on="1"/>
        <pt x="91" y="-70" on="1"/>
        <pt x="76" y="-72" on="1"/>
        <pt x="57" y="-67" on="1"/>
        <pt x="47" y="-69" on="1"/>
        <pt x="36" y="-68" on="1"/>
        <pt x="28" y="-68" on="0"/>
        <pt x="27" y="-71" on="1"/>
        <pt x="25" y="-71" on="0"/>
        <pt x="25" y="-69" on="0"/>
        <pt x="23" y="-69" on="1"/>
        <pt x="8" y="-74" on="1"/>
        <pt x="4" y="-74" on="0"/>
        <pt x="-16" y="-69" on="0"/>
        <pt x="-16" y="-63" on="1"/>
        <pt x="-16" y="-60" on="0"/>
        <pt x="-19" y="-60" on="1"/>
        <pt x="-21" y="-62" on="0"/>
      </contour>
      <contour>
        <pt x="244" y="807" on="1"/>
        <pt x="242" y="796" on="1"/>
        <pt x="242" y="788" on="0"/>
        <pt x="267" y="756" on="0"/>
        <pt x="274" y="756" on="1"/>
        <pt x="279" y="759" on="0"/>
        <pt x="291" y="758" on="0"/>
        <pt x="297" y="760" on="1"/>
        <pt x="298" y="764" on="0"/>
        <pt x="303" y="766" on="1"/>
        <pt x="304" y="774" on="0"/>
        <pt x="321" y="801" on="0"/>
        <pt x="321" y="818" on="0"/>
        <pt x="309" y="826" on="1"/>
        <pt x="307" y="828" on="0"/>
        <pt x="295" y="828" on="0"/>
        <pt x="291" y="830" on="1"/>
        <pt x="287" y="837" on="0"/>
        <pt x="282" y="837" on="1"/>
        <pt x="264" y="835" on="1"/>
        <pt x="244" y="835" on="0"/>
        <pt x="242" y="826" on="1"/>
        <pt x="245" y="824" on="0"/>
        <pt x="245" y="816" on="0"/>
        <pt x="242" y="813" on="1"/>
      </contour>
    </TTGlyph>
    <TTGlyph name="Atilde" xMin="-28" yMin="-105" xMax="613" yMax="929">
      <component glyphName="A" x="0" y="0" flags="0x1204"/>
      <component glyphName="tilde" x="82" y="95" flags="0x1004"/>
    </TTGlyph>
    <TTGlyph name="B" xMin="-11" yMin="-17" xMax="463" yMax="815">
      <contour>
        <pt x="463" y="579" on="1"/>
        <pt x="461" y="570" on="1"/>
        <pt x="463" y="568" on="0"/>
        <pt x="463" y="559" on="0"/>
        <pt x="457" y="542" on="0"/>
        <pt x="453" y="524" on="0"/>
        <pt x="453" y="500" on="0"/>
        <pt x="447" y="480" on="0"/>
        <pt x="436" y="467" on="0"/>
        <pt x="437" y="459" on="1"/>
        <pt x="435" y="459" on="1"/>
        <pt x="432" y="459" on="0"/>
        <pt x="431" y="452" on="0"/>
        <pt x="428" y="446" on="0"/>
        <pt x="418" y="438" on="0"/>
        <pt x="416" y="435" on="1"/>
        <pt x="408" y="422" on="1"/>
        <pt x="406" y="419" on="0"/>
        <pt x="399" y="414" on="0"/>
        <pt x="399" y="410" on="1"/>
        <pt x="399" y="408" on="1"/>
        <pt x="388" y="404" on="0"/>
        <pt x="384" y="390" on="1"/>
        <pt x="377" y="389" on="0"/>
        <pt x="367" y="376" on="1"/>
        <pt x="365" y="376" on="0"/>
        <pt x="351" y="371" on="0"/>
        <pt x="349" y="369" on="1"/>
        <pt x="349" y="365" on="1"/>
        <pt x="347" y="362" on="0"/>
        <pt x="343" y="365" on="0"/>
        <pt x="339" y="360" on="0"/>
        <pt x="339" y="356" on="0"/>
        <pt x="337" y="354" on="1"/>
        <pt x="325" y="354" on="1"/>
        <pt x="318" y="350" on="0"/>
        <pt x="313" y="341" on="1"/>
        <pt x="298" y="335" on="1"/>
        <pt x="301" y="326" on="0"/>
        <pt x="313" y="324" on="1"/>
        <pt x="318" y="315" on="0"/>
        <pt x="329" y="311" on="1"/>
        <pt x="335" y="298" on="0"/>
        <pt x="372" y="273" on="0"/>
        <pt x="397" y="217" on="0"/>
        <pt x="397" y="170" on="0"/>
        <pt x="384" y="162" on="1"/>
        <pt x="385" y="161" on="0"/>
        <pt x="385" y="152" on="0"/>
        <pt x="381" y="141" on="0"/>
        <pt x="380" y="136" on="1"/>
        <pt x="376" y="134" on="0"/>
        <pt x="370" y="129" on="0"/>
        <pt x="365" y="128" on="1"/>
        <pt x="362" y="126" on="0"/>
        <pt x="364" y="117" on="0"/>
        <pt x="361" y="115" on="1"/>
        <pt x="361" y="113" on="0"/>
        <pt x="356" y="114" on="0"/>
        <pt x="355" y="114" on="1"/>
        <pt x="352" y="113" on="1"/>
        <pt x="351" y="112" on="0"/>
        <pt x="352" y="109" on="0"/>
        <pt x="349" y="105" on="0"/>
        <pt x="346" y="106" on="0"/>
        <pt x="343" y="103" on="0"/>
        <pt x="344" y="100" on="0"/>
        <pt x="339" y="94" on="0"/>
        <pt x="328" y="90" on="0"/>
        <pt x="325" y="83" on="1"/>
        <pt x="323" y="83" on="1"/>
        <pt x="314" y="84" on="0"/>
        <pt x="308" y="75" on="0"/>
        <pt x="301" y="69" on="0"/>
        <pt x="294" y="69" on="0"/>
        <pt x="287" y="66" on="0"/>
        <pt x="290" y="63" on="0"/>
        <pt x="286" y="63" on="1"/>
        <pt x="280" y="63" on="0"/>
        <pt x="272" y="55" on="1"/>
        <pt x="264" y="50" on="0"/>
        <pt x="248" y="43" on="0"/>
        <pt x="241" y="36" on="1"/>
        <pt x="233" y="36" on="1"/>
        <pt x="226" y="36" on="0"/>
        <pt x="225" y="34" on="1"/>
        <pt x="219" y="34" on="0"/>
        <pt x="216" y="26" on="0"/>
        <pt x="213" y="23" on="1"/>
        <pt x="211" y="22" on="0"/>
        <pt x="199" y="14" on="0"/>
        <pt x="174" y="3" on="0"/>
        <pt x="170" y="-1" on="1"/>
        <pt x="167" y="-1" on="1"/>
        <pt x="164" y="-3" on="0"/>
        <pt x="160" y="1" on="1"/>
        <pt x="158" y="0" on="0"/>
        <pt x="158" y="-6" on="0"/>
        <pt x="156" y="-7" on="1"/>
        <pt x="151" y="-4" on="0"/>
        <pt x="136" y="-4" on="0"/>
        <pt x="119" y="-17" on="0"/>
        <pt x="107" y="-17" on="1"/>
        <pt x="101" y="-17" on="1"/>
        <pt x="95" y="-11" on="0"/>
        <pt x="95" y="9" on="0"/>
        <pt x="102" y="20" on="0"/>
        <pt x="113" y="25" on="0"/>
        <pt x="123" y="27" on="0"/>
        <pt x="127" y="32" on="1"/>
        <pt x="128" y="81" on="1"/>
        <pt x="128" y="83" on="0"/>
        <pt x="130" y="83" on="0"/>
        <pt x="130" y="85" on="1"/>
        <pt x="127" y="95" on="1"/>
        <pt x="127" y="100" on="0"/>
        <pt x="129" y="102" on="1"/>
        <pt x="129" y="114" on="0"/>
        <pt x="118" y="162" on="0"/>
        <pt x="119" y="224" on="0"/>
        <pt x="115" y="243" on="1"/>
        <pt x="117" y="252" on="1"/>
        <pt x="113" y="262" on="1"/>
        <pt x="115" y="272" on="1"/>
        <pt x="110" y="325" on="1"/>
        <pt x="110" y="330" on="0"/>
        <pt x="113" y="335" on="1"/>
        <pt x="105" y="364" on="0"/>
        <pt x="105" y="382" on="1"/>
        <pt x="106" y="419" on="1"/>
        <pt x="106" y="424" on="0"/>
        <pt x="106" y="434" on="0"/>
        <pt x="105" y="439" on="1"/>
        <pt x="101" y="454" on="1"/>
        <pt x="103" y="467" on="1"/>
        <pt x="103" y="481" on="0"/>
        <pt x="94" y="511" on="0"/>
        <pt x="94" y="528" on="1"/>
        <pt x="97" y="551" on="1"/>
        <pt x="97" y="554" on="0"/>
        <pt x="94" y="560" on="0"/>
        <pt x="92" y="568" on="0"/>
        <pt x="93" y="578" on="0"/>
        <pt x="93" y="583" on="1"/>
        <pt x="92" y="604" on="1"/>
        <pt x="92" y="614" on="0"/>
        <pt x="95" y="620" on="1"/>
        <pt x="92" y="628" on="0"/>
        <pt x="92" y="644" on="0"/>
        <pt x="92" y="652" on="1"/>
        <pt x="89" y="676" on="1"/>
        <pt x="93" y="684" on="1"/>
        <pt x="93" y="687" on="1"/>
        <pt x="90" y="700" on="0"/>
        <pt x="91" y="729" on="0"/>
        <pt x="88" y="741" on="1"/>
        <pt x="83" y="767" on="0"/>
        <pt x="48" y="767" on="1"/>
        <pt x="-3" y="764" on="1"/>
        <pt x="-7" y="764" on="1"/>
        <pt x="-11" y="774" on="0"/>
        <pt x="-11" y="787" on="1"/>
        <pt x="-11" y="792" on="1"/>
        <pt x="-4" y="797" on="0"/>
        <pt x="5" y="798" on="1"/>
        <pt x="53" y="800" on="0"/>
        <pt x="120" y="812" on="0"/>
        <pt x="128" y="815" on="0"/>
        <pt x="132" y="815" on="1"/>
        <pt x="146" y="813" on="1"/>
        <pt x="188" y="815" on="1"/>
        <pt x="236" y="809" on="1"/>
        <pt x="247" y="809" on="0"/>
        <pt x="267" y="798" on="0"/>
        <pt x="283" y="794" on="0"/>
        <pt x="291" y="795" on="0"/>
        <pt x="295" y="794" on="1"/>
        <pt x="333" y="779" on="0"/>
        <pt x="343" y="769" on="1"/>
        <pt x="346" y="770" on="1"/>
        <pt x="358" y="770" on="0"/>
        <pt x="378" y="755" on="0"/>
        <pt x="385" y="743" on="0"/>
        <pt x="393" y="734" on="0"/>
        <pt x="407" y="723" on="0"/>
        <pt x="414" y="715" on="0"/>
        <pt x="416" y="709" on="0"/>
        <pt x="424" y="698" on="0"/>
        <pt x="433" y="690" on="0"/>
        <pt x="439" y="676" on="0"/>
        <pt x="439" y="667" on="0"/>
        <pt x="442" y="658" on="0"/>
        <pt x="447" y="653" on="0"/>
        <pt x="448" y="649" on="1"/>
        <pt x="447" y="640" on="1"/>
        <pt x="447" y="634" on="0"/>
        <pt x="455" y="613" on="0"/>
        <pt x="459" y="602" on="0"/>
        <pt x="461" y="600" on="1"/>
        <pt x="459" y="598" on="0"/>
        <pt x="459" y="595" on="1"/>
      </contour>
      <contour>
        <pt x="394" y="537" on="1"/>
        <pt x="398" y="569" on="1"/>
        <pt x="396" y="585" on="1"/>
        <pt x="398" y="587" on="0"/>
        <pt x="398" y="592" on="0"/>
        <pt x="395" y="596" on="0"/>
        <pt x="392" y="602" on="0"/>
        <pt x="386" y="631" on="0"/>
        <pt x="386" y="638" on="0"/>
        <pt x="388" y="644" on="1"/>
        <pt x="378" y="657" on="0"/>
        <pt x="374" y="677" on="1"/>
        <pt x="369" y="680" on="0"/>
        <pt x="366" y="690" on="0"/>
        <pt x="359" y="699" on="0"/>
        <pt x="350" y="707" on="0"/>
        <pt x="350" y="715" on="1"/>
        <pt x="328" y="725" on="0"/>
        <pt x="318" y="738" on="1"/>
        <pt x="318" y="733" on="0"/>
        <pt x="312" y="733" on="1"/>
        <pt x="302" y="737" on="0"/>
        <pt x="290" y="746" on="0"/>
        <pt x="278" y="745" on="1"/>
        <pt x="269" y="751" on="0"/>
        <pt x="257" y="765" on="0"/>
        <pt x="240" y="765" on="0"/>
        <pt x="237" y="764" on="1"/>
        <pt x="217" y="768" on="0"/>
        <pt x="174" y="768" on="0"/>
        <pt x="163" y="763" on="0"/>
        <pt x="157" y="764" on="0"/>
        <pt x="146" y="764" on="0"/>
        <pt x="144" y="762" on="1"/>
        <pt x="143" y="760" on="0"/>
        <pt x="143" y="756" on="1"/>
        <pt x="146" y="737" on="1"/>
        <pt x="142" y="724" on="1"/>
        <pt x="144" y="678" on="1"/>
        <pt x="144" y="670" on="0"/>
        <pt x="149" y="662" on="0"/>
        <pt x="149" y="658" on="1"/>
        <pt x="146" y="649" on="1"/>
        <pt x="150" y="641" on="1"/>
        <pt x="149" y="634" on="1"/>
        <pt x="149" y="632" on="0"/>
        <pt x="152" y="623" on="0"/>
        <pt x="150" y="610" on="0"/>
        <pt x="150" y="605" on="1"/>
        <pt x="156" y="557" on="1"/>
        <pt x="157" y="552" on="0"/>
        <pt x="156" y="543" on="0"/>
        <pt x="156" y="538" on="1"/>
        <pt x="162" y="486" on="1"/>
        <pt x="160" y="478" on="1"/>
        <pt x="166" y="461" on="1"/>
        <pt x="164" y="455" on="1"/>
        <pt x="164" y="446" on="0"/>
        <pt x="172" y="430" on="0"/>
        <pt x="172" y="422" on="1"/>
        <pt x="170" y="399" on="1"/>
        <pt x="170" y="382" on="0"/>
        <pt x="176" y="337" on="1"/>
        <pt x="181" y="332" on="0"/>
        <pt x="190" y="333" on="0"/>
        <pt x="196" y="333" on="1"/>
        <pt x="207" y="331" on="1"/>
        <pt x="224" y="331" on="0"/>
        <pt x="276" y="352" on="1"/>
        <pt x="286" y="357" on="0"/>
        <pt x="304" y="376" on="0"/>
        <pt x="315" y="376" on="1"/>
        <pt x="325" y="390" on="0"/>
        <pt x="339" y="398" on="1"/>
        <pt x="343" y="404" on="0"/>
        <pt x="350" y="412" on="1"/>
        <pt x="375" y="441" on="0"/>
        <pt x="382" y="469" on="1"/>
        <pt x="383" y="471" on="0"/>
        <pt x="385" y="474" on="0"/>
        <pt x="387" y="479" on="0"/>
        <pt x="386" y="485" on="0"/>
        <pt x="386" y="497" on="0"/>
        <pt x="396" y="514" on="0"/>
        <pt x="396" y="523" on="1"/>
      </contour>
      <contour>
        <pt x="341" y="185" on="1"/>
        <pt x="343" y="199" on="1"/>
        <pt x="343" y="207" on="0"/>
        <pt x="334" y="218" on="0"/>
        <pt x="335" y="226" on="1"/>
        <pt x="330" y="230" on="0"/>
        <pt x="326" y="240" on="0"/>
        <pt x="322" y="245" on="1"/>
        <pt x="282" y="281" on="0"/>
        <pt x="282" y="290" on="0"/>
        <pt x="280" y="292" on="1"/>
        <pt x="253" y="300" on="0"/>
        <pt x="229" y="300" on="0"/>
        <pt x="213" y="292" on="1"/>
        <pt x="207" y="292" on="1"/>
        <pt x="195" y="292" on="0"/>
        <pt x="185" y="288" on="1"/>
        <pt x="184" y="276" on="0"/>
        <pt x="175" y="259" on="0"/>
        <pt x="175" y="238" on="0"/>
        <pt x="178" y="219" on="0"/>
        <pt x="181" y="195" on="0"/>
        <pt x="180" y="168" on="0"/>
        <pt x="182" y="150" on="0"/>
        <pt x="185" y="142" on="0"/>
        <pt x="185" y="138" on="1"/>
        <pt x="183" y="130" on="1"/>
        <pt x="185" y="123" on="1"/>
        <pt x="183" y="103" on="1"/>
        <pt x="187" y="84" on="1"/>
        <pt x="185" y="68" on="1"/>
        <pt x="185" y="63" on="0"/>
        <pt x="190" y="57" on="1"/>
        <pt x="194" y="57" on="1"/>
        <pt x="202" y="57" on="0"/>
        <pt x="212" y="63" on="0"/>
        <pt x="221" y="61" on="1"/>
        <pt x="226" y="69" on="0"/>
        <pt x="245" y="74" on="0"/>
        <pt x="252" y="78" on="1"/>
        <pt x="254" y="81" on="1"/>
        <pt x="258" y="83" on="0"/>
        <pt x="266" y="84" on="0"/>
        <pt x="270" y="85" on="1"/>
        <pt x="283" y="103" on="0"/>
        <pt x="303" y="113" on="1"/>
        <pt x="306" y="118" on="0"/>
        <pt x="310" y="120" on="1"/>
        <pt x="320" y="125" on="0"/>
        <pt x="320" y="132" on="1"/>
        <pt x="320" y="135" on="0"/>
        <pt x="337" y="160" on="0"/>
      </contour>
    </TTGlyph>
    <TTGlyph name="C" xMin="39" yMin="25" xMax="659" yMax="774">
      <contour>
        <pt x="232" y="674" on="1"/>
        <pt x="212" y="674" on="0"/>
        <pt x="212" y="665" on="1"/>
        <pt x="212" y="659" on="0"/>
        <pt x="208" y="657" on="1"/>
        <pt x="193" y="649" on="1"/>
        <pt x="184" y="629" on="0"/>
        <pt x="173" y="624" on="1"/>
        <pt x="167" y="610" on="1"/>
        <pt x="163" y="609" on="0"/>
        <pt x="161" y="602" on="0"/>
        <pt x="157" y="600" on="1"/>
        <pt x="157" y="590" on="0"/>
        <pt x="147" y="579" on="0"/>
        <pt x="148" y="567" on="1"/>
        <pt x="143" y="565" on="0"/>
        <pt x="141" y="557" on="0"/>
        <pt x="135" y="555" on="1"/>
        <pt x="137" y="554" on="0"/>
        <pt x="137" y="544" on="0"/>
        <pt x="130" y="536" on="1"/>
        <pt x="130" y="522" on="0"/>
        <pt x="110" y="462" on="0"/>
        <pt x="108" y="459" on="1"/>
        <pt x="110" y="458" on="0"/>
        <pt x="110" y="454" on="1"/>
        <pt x="108" y="441" on="1"/>
        <pt x="111" y="422" on="1"/>
        <pt x="110" y="403" on="1"/>
        <pt x="110" y="395" on="0"/>
        <pt x="110" y="379" on="0"/>
        <pt x="113" y="368" on="0"/>
        <pt x="116" y="361" on="0"/>
        <pt x="116" y="360" on="1"/>
        <pt x="116" y="342" on="1"/>
        <pt x="116" y="329" on="0"/>
        <pt x="127" y="305" on="0"/>
        <pt x="128" y="285" on="0"/>
        <pt x="139" y="282" on="0"/>
        <pt x="139" y="275" on="1"/>
        <pt x="135" y="268" on="1"/>
        <pt x="135" y="266" on="1"/>
        <pt x="162" y="198" on="0"/>
        <pt x="207" y="156" on="1"/>
        <pt x="218" y="145" on="0"/>
        <pt x="227" y="132" on="1"/>
        <pt x="233" y="132" on="0"/>
        <pt x="250" y="121" on="1"/>
        <pt x="259" y="113" on="1"/>
        <pt x="268" y="108" on="0"/>
        <pt x="282" y="101" on="0"/>
        <pt x="287" y="93" on="1"/>
        <pt x="295" y="92" on="0"/>
        <pt x="308" y="83" on="0"/>
        <pt x="312" y="83" on="1"/>
        <pt x="321" y="85" on="1"/>
        <pt x="323" y="85" on="1"/>
        <pt x="325" y="81" on="0"/>
        <pt x="354" y="73" on="0"/>
        <pt x="356" y="73" on="1"/>
        <pt x="366" y="74" on="1"/>
        <pt x="374" y="74" on="0"/>
        <pt x="389" y="69" on="0"/>
        <pt x="398" y="70" on="1"/>
        <pt x="402" y="70" on="1"/>
        <pt x="404" y="72" on="0"/>
        <pt x="407" y="72" on="1"/>
        <pt x="413" y="70" on="1"/>
        <pt x="431" y="74" on="1"/>
        <pt x="463" y="72" on="1"/>
        <pt x="479" y="72" on="0"/>
        <pt x="493" y="80" on="0"/>
        <pt x="492" y="83" on="1"/>
        <pt x="511" y="83" on="0"/>
        <pt x="523" y="93" on="0"/>
        <pt x="528" y="97" on="0"/>
        <pt x="535" y="99" on="0"/>
        <pt x="539" y="102" on="0"/>
        <pt x="539" y="105" on="0"/>
        <pt x="543" y="109" on="0"/>
        <pt x="545" y="108" on="0"/>
        <pt x="548" y="110" on="1"/>
        <pt x="555" y="114" on="0"/>
        <pt x="571" y="130" on="1"/>
        <pt x="591" y="146" on="0"/>
        <pt x="594" y="146" on="1"/>
        <pt x="596" y="152" on="0"/>
        <pt x="602" y="160" on="0"/>
        <pt x="603" y="166" on="1"/>
        <pt x="616" y="171" on="0"/>
        <pt x="626" y="195" on="0"/>
        <pt x="637" y="200" on="1"/>
        <pt x="659" y="191" on="0"/>
        <pt x="659" y="177" on="1"/>
        <pt x="659" y="169" on="0"/>
        <pt x="644" y="160" on="0"/>
        <pt x="636" y="151" on="0"/>
        <pt x="634" y="142" on="0"/>
        <pt x="631" y="138" on="1"/>
        <pt x="618" y="133" on="0"/>
        <pt x="618" y="125" on="1"/>
        <pt x="616" y="125" on="1"/>
        <pt x="613" y="125" on="0"/>
        <pt x="609" y="122" on="0"/>
        <pt x="606" y="121" on="1"/>
        <pt x="603" y="116" on="0"/>
        <pt x="596" y="106" on="0"/>
        <pt x="594" y="101" on="1"/>
        <pt x="589" y="99" on="0"/>
        <pt x="581" y="92" on="0"/>
        <pt x="576" y="91" on="1"/>
        <pt x="572" y="83" on="0"/>
        <pt x="557" y="72" on="0"/>
        <pt x="552" y="63" on="1"/>
        <pt x="545" y="63" on="0"/>
        <pt x="538" y="56" on="0"/>
        <pt x="525" y="56" on="0"/>
        <pt x="522" y="50" on="0"/>
        <pt x="513" y="52" on="1"/>
        <pt x="511" y="50" on="0"/>
        <pt x="498" y="38" on="1"/>
        <pt x="476" y="34" on="1"/>
        <pt x="462" y="38" on="1"/>
        <pt x="429" y="38" on="0"/>
        <pt x="419" y="34" on="1"/>
        <pt x="404" y="28" on="1"/>
        <pt x="395" y="25" on="0"/>
        <pt x="378" y="25" on="1"/>
        <pt x="350" y="29" on="1"/>
        <pt x="344" y="29" on="0"/>
        <pt x="336" y="25" on="1"/>
        <pt x="332" y="28" on="0"/>
        <pt x="327" y="28" on="1"/>
        <pt x="316" y="28" on="1"/>
        <pt x="309" y="28" on="0"/>
        <pt x="304" y="34" on="0"/>
        <pt x="294" y="34" on="1"/>
        <pt x="293" y="34" on="1"/>
        <pt x="289" y="38" on="1"/>
        <pt x="242" y="56" on="0"/>
        <pt x="218" y="61" on="1"/>
        <pt x="212" y="74" on="0"/>
        <pt x="193" y="79" on="1"/>
        <pt x="193" y="82" on="0"/>
        <pt x="185" y="84" on="0"/>
        <pt x="185" y="91" on="0"/>
        <pt x="183" y="93" on="1"/>
        <pt x="163" y="99" on="0"/>
        <pt x="148" y="125" on="1"/>
        <pt x="140" y="126" on="0"/>
        <pt x="132" y="130" on="1"/>
        <pt x="130" y="133" on="0"/>
        <pt x="121" y="142" on="0"/>
        <pt x="112" y="154" on="0"/>
        <pt x="105" y="162" on="0"/>
        <pt x="105" y="164" on="1"/>
        <pt x="98" y="167" on="0"/>
        <pt x="90" y="172" on="1"/>
        <pt x="74" y="201" on="0"/>
        <pt x="66" y="239" on="0"/>
        <pt x="61" y="250" on="0"/>
        <pt x="54" y="261" on="0"/>
        <pt x="49" y="270" on="0"/>
        <pt x="51" y="278" on="0"/>
        <pt x="49" y="282" on="1"/>
        <pt x="45" y="294" on="1"/>
        <pt x="44" y="297" on="0"/>
        <pt x="45" y="304" on="0"/>
        <pt x="45" y="307" on="1"/>
        <pt x="39" y="348" on="1"/>
        <pt x="41" y="384" on="1"/>
        <pt x="41" y="402" on="1"/>
        <pt x="41" y="419" on="0"/>
        <pt x="53" y="454" on="0"/>
        <pt x="58" y="469" on="1"/>
        <pt x="57" y="471" on="0"/>
        <pt x="57" y="477" on="0"/>
        <pt x="62" y="493" on="0"/>
        <pt x="69" y="510" on="0"/>
        <pt x="75" y="525" on="0"/>
        <pt x="80" y="532" on="0"/>
        <pt x="88" y="543" on="0"/>
        <pt x="96" y="566" on="0"/>
        <pt x="110" y="584" on="0"/>
        <pt x="110" y="593" on="1"/>
        <pt x="131" y="606" on="0"/>
        <pt x="135" y="628" on="1"/>
        <pt x="142" y="630" on="0"/>
        <pt x="169" y="660" on="0"/>
        <pt x="169" y="662" on="1"/>
        <pt x="172" y="663" on="0"/>
        <pt x="171" y="667" on="0"/>
        <pt x="173" y="669" on="1"/>
        <pt x="177" y="671" on="1"/>
        <pt x="182" y="680" on="0"/>
        <pt x="201" y="694" on="0"/>
        <pt x="201" y="698" on="1"/>
        <pt x="209" y="700" on="0"/>
        <pt x="223" y="713" on="0"/>
        <pt x="235" y="719" on="0"/>
        <pt x="244" y="723" on="0"/>
        <pt x="246" y="728" on="1"/>
        <pt x="249" y="727" on="1"/>
        <pt x="255" y="727" on="0"/>
        <pt x="259" y="736" on="0"/>
        <pt x="271" y="736" on="1"/>
        <pt x="272" y="736" on="0"/>
        <pt x="274" y="740" on="1"/>
        <pt x="282" y="742" on="0"/>
        <pt x="296" y="744" on="0"/>
        <pt x="303" y="752" on="1"/>
        <pt x="320" y="752" on="0"/>
        <pt x="336" y="762" on="1"/>
        <pt x="338" y="761" on="0"/>
        <pt x="343" y="761" on="1"/>
        <pt x="348" y="761" on="0"/>
        <pt x="355" y="765" on="0"/>
        <pt x="368" y="767" on="0"/>
        <pt x="388" y="766" on="0"/>
        <pt x="401" y="772" on="0"/>
        <pt x="402" y="774" on="0"/>
        <pt x="409" y="774" on="1"/>
        <pt x="435" y="769" on="1"/>
        <pt x="457" y="772" on="1"/>
        <pt x="471" y="768" on="1"/>
        <pt x="482" y="769" on="1"/>
        <pt x="482" y="768" on="1"/>
        <pt x="482" y="765" on="0"/>
        <pt x="487" y="766" on="0"/>
        <pt x="495" y="766" on="0"/>
        <pt x="498" y="760" on="1"/>
        <pt x="503" y="760" on="1"/>
        <pt x="520" y="760" on="0"/>
        <pt x="556" y="734" on="1"/>
        <pt x="568" y="726" on="0"/>
        <pt x="577" y="718" on="0"/>
        <pt x="592" y="715" on="1"/>
        <pt x="594" y="721" on="0"/>
        <pt x="596" y="728" on="1"/>
        <pt x="602" y="762" on="0"/>
        <pt x="622" y="762" on="1"/>
        <pt x="629" y="762" on="0"/>
        <pt x="639" y="750" on="0"/>
        <pt x="639" y="738" on="0"/>
        <pt x="637" y="732" on="1"/>
        <pt x="638" y="730" on="0"/>
        <pt x="638" y="724" on="1"/>
        <pt x="638" y="718" on="0"/>
        <pt x="627" y="677" on="0"/>
        <pt x="627" y="645" on="1"/>
        <pt x="629" y="635" on="1"/>
        <pt x="629" y="614" on="0"/>
        <pt x="637" y="606" on="1"/>
        <pt x="632" y="600" on="0"/>
        <pt x="626" y="585" on="1"/>
        <pt x="622" y="583" on="0"/>
        <pt x="615" y="579" on="0"/>
        <pt x="602" y="579" on="0"/>
        <pt x="596" y="586" on="1"/>
        <pt x="587" y="596" on="0"/>
        <pt x="587" y="604" on="1"/>
        <pt x="587" y="611" on="1"/>
        <pt x="587" y="622" on="0"/>
        <pt x="578" y="636" on="0"/>
        <pt x="580" y="642" on="1"/>
        <pt x="574" y="646" on="0"/>
        <pt x="569" y="651" on="1"/>
        <pt x="569" y="657" on="1"/>
        <pt x="569" y="680" on="0"/>
        <pt x="542" y="694" on="1"/>
        <pt x="537" y="696" on="0"/>
        <pt x="537" y="700" on="1"/>
        <pt x="522" y="705" on="1"/>
        <pt x="519" y="710" on="0"/>
        <pt x="507" y="713" on="0"/>
        <pt x="505" y="719" on="1"/>
        <pt x="503" y="719" on="1"/>
        <pt x="493" y="716" on="1"/>
        <pt x="478" y="726" on="1"/>
        <pt x="475" y="725" on="0"/>
        <pt x="469" y="725" on="1"/>
        <pt x="463" y="725" on="0"/>
        <pt x="458" y="730" on="1"/>
        <pt x="458" y="728" on="0"/>
        <pt x="453" y="728" on="0"/>
        <pt x="453" y="730" on="1"/>
        <pt x="435" y="726" on="1"/>
        <pt x="426" y="726" on="0"/>
        <pt x="415" y="734" on="0"/>
        <pt x="391" y="734" on="0"/>
        <pt x="383" y="726" on="1"/>
        <pt x="352" y="726" on="0"/>
        <pt x="336" y="715" on="1"/>
        <pt x="332" y="715" on="1"/>
        <pt x="319" y="715" on="0"/>
        <pt x="304" y="708" on="0"/>
        <pt x="299" y="709" on="0"/>
        <pt x="294" y="709" on="0"/>
        <pt x="290" y="706" on="0"/>
        <pt x="263" y="696" on="0"/>
        <pt x="238" y="673" on="1"/>
        <pt x="237" y="674" on="0"/>
      </contour>
    </TTGlyph>
    <TTGlyph name="Ccedilla" xMin="39" yMin="-261" xMax="659" yMax="748">
      <contour>
        <pt x="431" y="47" on="1"/>
        <pt x="463" y="46" on="1"/>
        <pt x="479" y="46" on="0"/>
        <pt x="493" y="54" on="0"/>
        <pt x="492" y="57" on="1"/>
        <pt x="511" y="57" on="0"/>
        <pt x="515" y="61" on="1"/>
        <pt x="523" y="69" on="0"/>
        <pt x="539" y="74" on="0"/>
        <pt x="539" y="79" on="0"/>
        <pt x="541" y="81" on="1"/>
        <pt x="552" y="85" on="0"/>
        <pt x="590" y="120" on="0"/>
        <pt x="594" y="120" on="1"/>
        <pt x="596" y="125" on="0"/>
        <pt x="602" y="134" on="0"/>
        <pt x="603" y="139" on="1"/>
        <pt x="616" y="144" on="0"/>
        <pt x="626" y="168" on="0"/>
        <pt x="637" y="173" on="1"/>
        <pt x="644" y="171" on="0"/>
        <pt x="659" y="159" on="0"/>
        <pt x="659" y="142" on="0"/>
        <pt x="637" y="129" on="0"/>
        <pt x="634" y="116" on="0"/>
        <pt x="626" y="110" on="0"/>
        <pt x="618" y="105" on="0"/>
        <pt x="618" y="98" on="1"/>
        <pt x="616" y="98" on="1"/>
        <pt x="608" y="96" on="1"/>
        <pt x="604" y="91" on="0"/>
        <pt x="596" y="81" on="0"/>
        <pt x="594" y="75" on="1"/>
        <pt x="589" y="73" on="0"/>
        <pt x="582" y="67" on="0"/>
        <pt x="577" y="65" on="1"/>
        <pt x="572" y="56" on="0"/>
        <pt x="557" y="46" on="0"/>
        <pt x="552" y="38" on="1"/>
        <pt x="526" y="28" on="1"/>
        <pt x="512" y="24" on="1"/>
        <pt x="506" y="23" on="0"/>
        <pt x="502" y="15" on="1"/>
        <pt x="482" y="10" on="0"/>
        <pt x="421" y="13" on="0"/>
        <pt x="421" y="6" on="1"/>
        <pt x="423" y="-3" on="1"/>
        <pt x="423" y="-6" on="1"/>
        <pt x="416" y="-10" on="0"/>
        <pt x="413" y="-24" on="0"/>
        <pt x="408" y="-32" on="0"/>
        <pt x="401" y="-35" on="0"/>
        <pt x="400" y="-37" on="1"/>
        <pt x="400" y="-41" on="1"/>
        <pt x="396" y="-43" on="1"/>
        <pt x="395" y="-45" on="0"/>
        <pt x="396" y="-46" on="0"/>
        <pt x="396" y="-48" on="1"/>
        <pt x="396" y="-50" on="0"/>
        <pt x="390" y="-51" on="0"/>
        <pt x="387" y="-54" on="1"/>
        <pt x="382" y="-62" on="0"/>
        <pt x="376" y="-83" on="1"/>
        <pt x="380" y="-87" on="0"/>
        <pt x="384" y="-87" on="1"/>
        <pt x="400" y="-84" on="1"/>
        <pt x="405" y="-84" on="0"/>
        <pt x="431" y="-94" on="0"/>
        <pt x="437" y="-96" on="1"/>
        <pt x="441" y="-100" on="1"/>
        <pt x="449" y="-100" on="1"/>
        <pt x="451" y="-104" on="1"/>
        <pt x="456" y="-106" on="0"/>
        <pt x="465" y="-112" on="0"/>
        <pt x="470" y="-114" on="1"/>
        <pt x="470" y="-116" on="1"/>
        <pt x="470" y="-118" on="0"/>
        <pt x="478" y="-126" on="0"/>
        <pt x="476" y="-128" on="0"/>
        <pt x="478" y="-130" on="1"/>
        <pt x="482" y="-132" on="1"/>
        <pt x="487" y="-142" on="0"/>
        <pt x="487" y="-176" on="0"/>
        <pt x="476" y="-187" on="0"/>
        <pt x="478" y="-195" on="1"/>
        <pt x="471" y="-196" on="0"/>
        <pt x="467" y="-206" on="0"/>
        <pt x="460" y="-212" on="0"/>
        <pt x="455" y="-214" on="0"/>
        <pt x="449" y="-219" on="0"/>
        <pt x="444" y="-225" on="0"/>
        <pt x="431" y="-232" on="0"/>
        <pt x="420" y="-243" on="0"/>
        <pt x="405" y="-247" on="0"/>
        <pt x="396" y="-250" on="1"/>
        <pt x="371" y="-258" on="1"/>
        <pt x="363" y="-257" on="1"/>
        <pt x="351" y="-261" on="1"/>
        <pt x="323" y="-255" on="1"/>
        <pt x="317" y="-256" on="1"/>
        <pt x="313" y="-256" on="0"/>
        <pt x="305" y="-242" on="0"/>
        <pt x="297" y="-244" on="1"/>
        <pt x="296" y="-237" on="0"/>
        <pt x="279" y="-227" on="0"/>
        <pt x="279" y="-219" on="1"/>
        <pt x="275" y="-204" on="1"/>
        <pt x="275" y="-197" on="0"/>
        <pt x="278" y="-190" on="1"/>
        <pt x="281" y="-189" on="0"/>
        <pt x="287" y="-186" on="0"/>
        <pt x="296" y="-186" on="0"/>
        <pt x="303" y="-199" on="0"/>
        <pt x="309" y="-201" on="1"/>
        <pt x="309" y="-204" on="1"/>
        <pt x="309" y="-211" on="0"/>
        <pt x="317" y="-217" on="0"/>
        <pt x="317" y="-224" on="1"/>
        <pt x="328" y="-223" on="0"/>
        <pt x="340" y="-232" on="0"/>
        <pt x="348" y="-232" on="1"/>
        <pt x="362" y="-230" on="1"/>
        <pt x="364" y="-230" on="0"/>
        <pt x="370" y="-232" on="1"/>
        <pt x="412" y="-208" on="0"/>
        <pt x="441" y="-179" on="1"/>
        <pt x="439" y="-173" on="0"/>
        <pt x="439" y="-164" on="0"/>
        <pt x="443" y="-156" on="1"/>
        <pt x="430" y="-135" on="1"/>
        <pt x="417" y="-131" on="0"/>
        <pt x="409" y="-116" on="1"/>
        <pt x="407" y="-118" on="0"/>
        <pt x="404" y="-118" on="1"/>
        <pt x="389" y="-114" on="1"/>
        <pt x="370" y="-114" on="0"/>
        <pt x="337" y="-140" on="1"/>
        <pt x="330" y="-145" on="0"/>
        <pt x="327" y="-145" on="1"/>
        <pt x="320" y="-145" on="0"/>
        <pt x="314" y="-129" on="0"/>
        <pt x="314" y="-124" on="1"/>
        <pt x="314" y="-119" on="0"/>
        <pt x="320" y="-93" on="0"/>
        <pt x="323" y="-90" on="1"/>
        <pt x="327" y="-88" on="1"/>
        <pt x="329" y="-84" on="0"/>
        <pt x="333" y="-75" on="0"/>
        <pt x="338" y="-73" on="1"/>
        <pt x="339" y="-64" on="0"/>
        <pt x="374" y="-9" on="0"/>
        <pt x="387" y="4" on="1"/>
        <pt x="370" y="0" on="1"/>
        <pt x="347" y="3" on="1"/>
        <pt x="341" y="3" on="0"/>
        <pt x="336" y="-2" on="1"/>
        <pt x="332" y="2" on="0"/>
        <pt x="322" y="1" on="0"/>
        <pt x="309" y="1" on="0"/>
        <pt x="307" y="6" on="0"/>
        <pt x="298" y="9" on="0"/>
        <pt x="291" y="8" on="0"/>
        <pt x="285" y="12" on="0"/>
        <pt x="286" y="14" on="0"/>
        <pt x="274" y="14" on="0"/>
        <pt x="272" y="15" on="1"/>
        <pt x="270" y="19" on="1"/>
        <pt x="263" y="22" on="0"/>
        <pt x="246" y="25" on="0"/>
        <pt x="232" y="34" on="0"/>
        <pt x="227" y="34" on="1"/>
        <pt x="226" y="39" on="0"/>
        <pt x="219" y="44" on="0"/>
        <pt x="216" y="47" on="1"/>
        <pt x="206" y="49" on="0"/>
        <pt x="187" y="56" on="0"/>
        <pt x="183" y="67" on="1"/>
        <pt x="181" y="67" on="1"/>
        <pt x="173" y="67" on="0"/>
        <pt x="149" y="96" on="0"/>
        <pt x="148" y="98" on="1"/>
        <pt x="139" y="99" on="0"/>
        <pt x="132" y="104" on="1"/>
        <pt x="130" y="108" on="0"/>
        <pt x="126" y="112" on="1"/>
        <pt x="105" y="133" on="0"/>
        <pt x="105" y="137" on="1"/>
        <pt x="101" y="139" on="0"/>
        <pt x="94" y="143" on="0"/>
        <pt x="90" y="145" on="1"/>
        <pt x="79" y="166" on="0"/>
        <pt x="71" y="199" on="0"/>
        <pt x="61" y="223" on="0"/>
        <pt x="54" y="234" on="0"/>
        <pt x="49" y="244" on="0"/>
        <pt x="51" y="252" on="0"/>
        <pt x="49" y="256" on="1"/>
        <pt x="45" y="267" on="1"/>
        <pt x="44" y="271" on="0"/>
        <pt x="45" y="278" on="0"/>
        <pt x="45" y="282" on="1"/>
        <pt x="39" y="323" on="1"/>
        <pt x="41" y="358" on="1"/>
        <pt x="41" y="388" on="1"/>
        <pt x="41" y="401" on="0"/>
        <pt x="52" y="419" on="1"/>
        <pt x="54" y="425" on="0"/>
        <pt x="53" y="437" on="0"/>
        <pt x="58" y="442" on="1"/>
        <pt x="57" y="444" on="0"/>
        <pt x="57" y="456" on="0"/>
        <pt x="66" y="478" on="0"/>
        <pt x="77" y="502" on="0"/>
        <pt x="89" y="524" on="0"/>
        <pt x="92" y="531" on="1"/>
        <pt x="97" y="535" on="1"/>
        <pt x="97" y="540" on="1"/>
        <pt x="97" y="544" on="0"/>
        <pt x="112" y="557" on="0"/>
        <pt x="110" y="566" on="1"/>
        <pt x="131" y="580" on="0"/>
        <pt x="135" y="602" on="1"/>
        <pt x="140" y="602" on="0"/>
        <pt x="169" y="634" on="0"/>
        <pt x="169" y="635" on="1"/>
        <pt x="172" y="636" on="0"/>
        <pt x="172" y="641" on="0"/>
        <pt x="173" y="643" on="1"/>
        <pt x="177" y="645" on="1"/>
        <pt x="182" y="654" on="0"/>
        <pt x="201" y="668" on="0"/>
        <pt x="201" y="673" on="1"/>
        <pt x="209" y="675" on="0"/>
        <pt x="223" y="686" on="0"/>
        <pt x="244" y="696" on="0"/>
        <pt x="246" y="702" on="1"/>
        <pt x="247" y="701" on="0"/>
        <pt x="255" y="701" on="0"/>
        <pt x="259" y="710" on="0"/>
        <pt x="273" y="710" on="0"/>
        <pt x="273" y="713" on="0"/>
        <pt x="274" y="714" on="1"/>
        <pt x="282" y="716" on="0"/>
        <pt x="296" y="719" on="0"/>
        <pt x="303" y="726" on="1"/>
        <pt x="319" y="724" on="0"/>
        <pt x="336" y="735" on="1"/>
        <pt x="343" y="734" on="1"/>
        <pt x="348" y="734" on="0"/>
        <pt x="355" y="738" on="0"/>
        <pt x="368" y="741" on="0"/>
        <pt x="387" y="739" on="0"/>
        <pt x="401" y="745" on="0"/>
        <pt x="403" y="748" on="0"/>
        <pt x="409" y="748" on="1"/>
        <pt x="435" y="743" on="1"/>
        <pt x="457" y="745" on="1"/>
        <pt x="471" y="742" on="1"/>
        <pt x="482" y="743" on="1"/>
        <pt x="482" y="741" on="1"/>
        <pt x="482" y="739" on="0"/>
        <pt x="485" y="739" on="1"/>
        <pt x="489" y="739" on="1"/>
        <pt x="495" y="739" on="0"/>
        <pt x="498" y="733" on="1"/>
        <pt x="503" y="733" on="1"/>
        <pt x="516" y="733" on="0"/>
        <pt x="530" y="724" on="0"/>
        <pt x="544" y="716" on="0"/>
        <pt x="547" y="715" on="1"/>
        <pt x="552" y="714" on="0"/>
        <pt x="555" y="710" on="1"/>
        <pt x="556" y="706" on="0"/>
        <pt x="560" y="708" on="0"/>
        <pt x="563" y="706" on="1"/>
        <pt x="567" y="703" on="0"/>
        <pt x="570" y="694" on="0"/>
        <pt x="579" y="690" on="0"/>
        <pt x="588" y="691" on="0"/>
        <pt x="592" y="688" on="1"/>
        <pt x="594" y="694" on="0"/>
        <pt x="596" y="702" on="1"/>
        <pt x="602" y="735" on="0"/>
        <pt x="633" y="735" on="0"/>
        <pt x="639" y="720" on="1"/>
        <pt x="640" y="719" on="0"/>
        <pt x="640" y="717" on="1"/>
        <pt x="637" y="708" on="1"/>
        <pt x="638" y="699" on="1"/>
        <pt x="638" y="689" on="0"/>
        <pt x="629" y="668" on="0"/>
        <pt x="629" y="662" on="1"/>
        <pt x="631" y="653" on="1"/>
        <pt x="629" y="609" on="1"/>
        <pt x="629" y="589" on="0"/>
        <pt x="637" y="581" on="1"/>
        <pt x="635" y="575" on="0"/>
        <pt x="629" y="566" on="0"/>
        <pt x="627" y="560" on="1"/>
        <pt x="623" y="558" on="0"/>
        <pt x="615" y="553" on="0"/>
        <pt x="601" y="553" on="0"/>
        <pt x="590" y="566" on="0"/>
        <pt x="587" y="574" on="0"/>
        <pt x="587" y="582" on="0"/>
        <pt x="587" y="590" on="0"/>
        <pt x="584" y="601" on="0"/>
        <pt x="579" y="609" on="0"/>
        <pt x="580" y="615" on="1"/>
        <pt x="569" y="626" on="1"/>
        <pt x="569" y="631" on="1"/>
        <pt x="569" y="654" on="0"/>
        <pt x="543" y="666" on="1"/>
        <pt x="538" y="669" on="0"/>
        <pt x="537" y="675" on="1"/>
        <pt x="522" y="679" on="1"/>
        <pt x="522" y="680" on="1"/>
        <pt x="522" y="682" on="0"/>
        <pt x="517" y="682" on="1"/>
        <pt x="503" y="692" on="1"/>
        <pt x="501" y="692" on="1"/>
        <pt x="494" y="690" on="1"/>
        <pt x="492" y="690" on="1"/>
        <pt x="489" y="693" on="0"/>
        <pt x="481" y="696" on="0"/>
        <pt x="478" y="700" on="1"/>
        <pt x="473" y="698" on="0"/>
        <pt x="463" y="698" on="0"/>
        <pt x="458" y="703" on="1"/>
        <pt x="457" y="702" on="0"/>
        <pt x="456" y="702" on="1"/>
        <pt x="454" y="702" on="1"/>
        <pt x="453" y="702" on="0"/>
        <pt x="453" y="703" on="1"/>
        <pt x="435" y="700" on="1"/>
        <pt x="426" y="700" on="0"/>
        <pt x="415" y="708" on="0"/>
        <pt x="391" y="708" on="0"/>
        <pt x="383" y="700" on="1"/>
        <pt x="372" y="699" on="0"/>
        <pt x="346" y="696" on="0"/>
        <pt x="336" y="688" on="1"/>
        <pt x="326" y="688" on="1"/>
        <pt x="297" y="683" on="1"/>
        <pt x="294" y="683" on="0"/>
        <pt x="290" y="680" on="0"/>
        <pt x="285" y="677" on="0"/>
        <pt x="282" y="678" on="1"/>
        <pt x="274" y="679" on="0"/>
        <pt x="238" y="647" on="1"/>
        <pt x="234" y="647" on="1"/>
        <pt x="212" y="647" on="0"/>
        <pt x="212" y="638" on="1"/>
        <pt x="212" y="633" on="0"/>
        <pt x="208" y="631" on="1"/>
        <pt x="193" y="624" on="1"/>
        <pt x="186" y="604" on="0"/>
        <pt x="173" y="598" on="1"/>
        <pt x="173" y="593" on="0"/>
        <pt x="167" y="590" on="0"/>
        <pt x="169" y="584" on="1"/>
        <pt x="168" y="584" on="1"/>
        <pt x="163" y="585" on="0"/>
        <pt x="162" y="575" on="0"/>
        <pt x="158" y="574" on="1"/>
        <pt x="157" y="564" on="0"/>
        <pt x="147" y="552" on="0"/>
        <pt x="148" y="541" on="1"/>
        <pt x="143" y="540" on="0"/>
        <pt x="141" y="530" on="0"/>
        <pt x="135" y="529" on="1"/>
        <pt x="137" y="527" on="0"/>
        <pt x="137" y="519" on="0"/>
        <pt x="132" y="513" on="0"/>
        <pt x="128" y="506" on="0"/>
        <pt x="129" y="494" on="0"/>
        <pt x="126" y="485" on="0"/>
        <pt x="122" y="478" on="0"/>
        <pt x="117" y="464" on="0"/>
        <pt x="116" y="441" on="0"/>
        <pt x="109" y="433" on="1"/>
        <pt x="110" y="431" on="0"/>
        <pt x="110" y="427" on="1"/>
        <pt x="109" y="415" on="1"/>
        <pt x="112" y="397" on="1"/>
        <pt x="109" y="385" on="1"/>
        <pt x="111" y="367" on="0"/>
        <pt x="110" y="352" on="0"/>
        <pt x="113" y="341" on="0"/>
        <pt x="116" y="336" on="0"/>
        <pt x="116" y="334" on="1"/>
        <pt x="116" y="315" on="1"/>
        <pt x="116" y="302" on="0"/>
        <pt x="127" y="280" on="0"/>
        <pt x="128" y="259" on="0"/>
        <pt x="139" y="256" on="0"/>
        <pt x="139" y="250" on="1"/>
        <pt x="135" y="242" on="1"/>
        <pt x="135" y="240" on="1"/>
        <pt x="150" y="187" on="0"/>
        <pt x="207" y="130" on="1"/>
        <pt x="218" y="119" on="0"/>
        <pt x="227" y="106" on="1"/>
        <pt x="238" y="100" on="1"/>
        <pt x="247" y="96" on="0"/>
        <pt x="250" y="94" on="1"/>
        <pt x="259" y="87" on="1"/>
        <pt x="268" y="82" on="0"/>
        <pt x="282" y="75" on="0"/>
        <pt x="287" y="67" on="1"/>
        <pt x="295" y="67" on="0"/>
        <pt x="308" y="56" on="0"/>
        <pt x="312" y="56" on="1"/>
        <pt x="321" y="59" on="1"/>
        <pt x="323" y="59" on="1"/>
        <pt x="324" y="56" on="0"/>
        <pt x="348" y="47" on="0"/>
        <pt x="356" y="47" on="1"/>
        <pt x="364" y="47" on="1"/>
        <pt x="387" y="43" on="1"/>
        <pt x="404" y="45" on="1"/>
        <pt x="413" y="43" on="1"/>
      </contour>
    </TTGlyph>
    <TTGlyph name="D" xMin="-11" yMin="71" xMax="557" yMax="826">
      <contour>
        <pt x="553" y="494" on="1"/>
        <pt x="550" y="480" on="1"/>
        <pt x="550" y="476" on="0"/>
        <pt x="554" y="468" on="0"/>
        <pt x="557" y="456" on="0"/>
        <pt x="556" y="438" on="0"/>
        <pt x="556" y="384" on="0"/>
        <pt x="551" y="384" on="1"/>
        <pt x="549" y="384" on="0"/>
        <pt x="549" y="370" on="0"/>
        <pt x="543" y="368" on="0"/>
        <pt x="543" y="359" on="1"/>
        <pt x="542" y="358" on="1"/>
        <pt x="538" y="356" on="1"/>
        <pt x="536" y="352" on="0"/>
        <pt x="537" y="344" on="0"/>
        <pt x="536" y="339" on="1"/>
        <pt x="528" y="333" on="0"/>
        <pt x="522" y="318" on="0"/>
        <pt x="518" y="310" on="1"/>
        <pt x="514" y="308" on="1"/>
        <pt x="516" y="304" on="1"/>
        <pt x="516" y="302" on="0"/>
        <pt x="511" y="299" on="0"/>
        <pt x="511" y="292" on="0"/>
        <pt x="503" y="290" on="0"/>
        <pt x="505" y="284" on="1"/>
        <pt x="503" y="282" on="0"/>
        <pt x="495" y="282" on="0"/>
        <pt x="493" y="280" on="1"/>
        <pt x="478" y="252" on="0"/>
        <pt x="446" y="229" on="1"/>
        <pt x="443" y="224" on="0"/>
        <pt x="442" y="214" on="0"/>
        <pt x="440" y="210" on="1"/>
        <pt x="435" y="206" on="0"/>
        <pt x="425" y="205" on="0"/>
        <pt x="418" y="198" on="1"/>
        <pt x="392" y="186" on="0"/>
        <pt x="385" y="173" on="1"/>
        <pt x="383" y="173" on="1"/>
        <pt x="370" y="173" on="0"/>
        <pt x="363" y="166" on="0"/>
        <pt x="356" y="157" on="1"/>
        <pt x="348" y="157" on="0"/>
        <pt x="341" y="147" on="0"/>
        <pt x="336" y="142" on="1"/>
        <pt x="334" y="142" on="1"/>
        <pt x="328" y="143" on="0"/>
        <pt x="319" y="136" on="0"/>
        <pt x="312" y="137" on="1"/>
        <pt x="309" y="136" on="0"/>
        <pt x="306" y="130" on="0"/>
        <pt x="304" y="128" on="1"/>
        <pt x="303" y="128" on="1"/>
        <pt x="293" y="128" on="0"/>
        <pt x="261" y="106" on="0"/>
        <pt x="259" y="104" on="1"/>
        <pt x="254" y="104" on="0"/>
        <pt x="248" y="104" on="1"/>
        <pt x="229" y="106" on="0"/>
        <pt x="227" y="96" on="1"/>
        <pt x="224" y="87" on="0"/>
        <pt x="173" y="87" on="0"/>
        <pt x="166" y="76" on="1"/>
        <pt x="160" y="77" on="1"/>
        <pt x="115" y="71" on="1"/>
        <pt x="101" y="71" on="0"/>
        <pt x="94" y="76" on="1"/>
        <pt x="93" y="79" on="0"/>
        <pt x="93" y="99" on="0"/>
        <pt x="103" y="109" on="1"/>
        <pt x="109" y="110" on="0"/>
        <pt x="121" y="113" on="0"/>
        <pt x="130" y="113" on="0"/>
        <pt x="136" y="111" on="1"/>
        <pt x="141" y="115" on="0"/>
        <pt x="155" y="117" on="0"/>
        <pt x="160" y="120" on="1"/>
        <pt x="160" y="191" on="0"/>
        <pt x="153" y="222" on="0"/>
        <pt x="153" y="224" on="1"/>
        <pt x="154" y="238" on="1"/>
        <pt x="151" y="254" on="1"/>
        <pt x="151" y="257" on="0"/>
        <pt x="154" y="260" on="1"/>
        <pt x="144" y="274" on="0"/>
        <pt x="146" y="315" on="0"/>
        <pt x="146" y="341" on="0"/>
        <pt x="143" y="345" on="1"/>
        <pt x="146" y="350" on="1"/>
        <pt x="146" y="356" on="0"/>
        <pt x="140" y="374" on="0"/>
        <pt x="140" y="385" on="1"/>
        <pt x="142" y="438" on="1"/>
        <pt x="142" y="446" on="0"/>
        <pt x="139" y="461" on="1"/>
        <pt x="140" y="471" on="1"/>
        <pt x="136" y="479" on="1"/>
        <pt x="139" y="490" on="1"/>
        <pt x="139" y="493" on="0"/>
        <pt x="137" y="493" on="0"/>
        <pt x="137" y="495" on="1"/>
        <pt x="137" y="497" on="0"/>
        <pt x="139" y="497" on="0"/>
        <pt x="139" y="499" on="1"/>
        <pt x="139" y="501" on="0"/>
        <pt x="136" y="503" on="0"/>
        <pt x="136" y="511" on="1"/>
        <pt x="136" y="512" on="1"/>
        <pt x="129" y="561" on="0"/>
        <pt x="129" y="566" on="1"/>
        <pt x="127" y="570" on="0"/>
        <pt x="127" y="572" on="1"/>
        <pt x="130" y="578" on="1"/>
        <pt x="126" y="590" on="1"/>
        <pt x="129" y="605" on="1"/>
        <pt x="129" y="609" on="0"/>
        <pt x="127" y="617" on="0"/>
        <pt x="125" y="626" on="0"/>
        <pt x="126" y="634" on="0"/>
        <pt x="124" y="642" on="0"/>
        <pt x="121" y="648" on="0"/>
        <pt x="119" y="653" on="0"/>
        <pt x="120" y="657" on="0"/>
        <pt x="120" y="659" on="1"/>
        <pt x="120" y="660" on="1"/>
        <pt x="117" y="665" on="1"/>
        <pt x="119" y="671" on="0"/>
        <pt x="119" y="673" on="1"/>
        <pt x="114" y="724" on="1"/>
        <pt x="117" y="742" on="1"/>
        <pt x="117" y="752" on="0"/>
        <pt x="105" y="767" on="0"/>
        <pt x="105" y="774" on="0"/>
        <pt x="107" y="778" on="1"/>
        <pt x="105" y="780" on="0"/>
        <pt x="89" y="790" on="0"/>
        <pt x="86" y="790" on="1"/>
        <pt x="83" y="790" on="0"/>
        <pt x="81" y="784" on="0"/>
        <pt x="73" y="781" on="0"/>
        <pt x="54" y="779" on="0"/>
        <pt x="46" y="776" on="0"/>
        <pt x="39" y="776" on="0"/>
        <pt x="36" y="783" on="0"/>
        <pt x="21" y="783" on="0"/>
        <pt x="8" y="769" on="0"/>
        <pt x="-3" y="769" on="1"/>
        <pt x="-11" y="777" on="0"/>
        <pt x="-11" y="785" on="1"/>
        <pt x="-10" y="805" on="1"/>
        <pt x="-4" y="811" on="0"/>
        <pt x="11" y="810" on="0"/>
        <pt x="23" y="812" on="0"/>
        <pt x="28" y="816" on="0"/>
        <pt x="34" y="818" on="0"/>
        <pt x="40" y="816" on="0"/>
        <pt x="43" y="816" on="0"/>
        <pt x="51" y="820" on="1"/>
        <pt x="62" y="819" on="1"/>
        <pt x="65" y="819" on="0"/>
        <pt x="67" y="820" on="1"/>
        <pt x="73" y="825" on="0"/>
        <pt x="100" y="825" on="1"/>
        <pt x="113" y="822" on="1"/>
        <pt x="124" y="826" on="1"/>
        <pt x="136" y="823" on="1"/>
        <pt x="144" y="825" on="1"/>
        <pt x="150" y="823" on="1"/>
        <pt x="156" y="826" on="1"/>
        <pt x="163" y="826" on="0"/>
        <pt x="175" y="822" on="0"/>
        <pt x="190" y="820" on="0"/>
        <pt x="208" y="821" on="0"/>
        <pt x="217" y="819" on="1"/>
        <pt x="235" y="815" on="1"/>
        <pt x="239" y="814" on="0"/>
        <pt x="246" y="815" on="0"/>
        <pt x="253" y="813" on="0"/>
        <pt x="258" y="810" on="0"/>
        <pt x="266" y="808" on="0"/>
        <pt x="278" y="808" on="0"/>
        <pt x="293" y="804" on="0"/>
        <pt x="310" y="798" on="0"/>
        <pt x="325" y="793" on="0"/>
        <pt x="334" y="792" on="0"/>
        <pt x="347" y="786" on="0"/>
        <pt x="362" y="775" on="0"/>
        <pt x="383" y="764" on="0"/>
        <pt x="410" y="750" on="0"/>
        <pt x="426" y="735" on="0"/>
        <pt x="433" y="725" on="0"/>
        <pt x="443" y="714" on="0"/>
        <pt x="456" y="703" on="0"/>
        <pt x="464" y="693" on="0"/>
        <pt x="466" y="689" on="1"/>
        <pt x="471" y="679" on="0"/>
        <pt x="475" y="679" on="1"/>
        <pt x="476" y="679" on="0"/>
        <pt x="479" y="671" on="1"/>
        <pt x="481" y="669" on="0"/>
        <pt x="485" y="663" on="0"/>
        <pt x="489" y="663" on="1"/>
        <pt x="503" y="629" on="0"/>
        <pt x="521" y="607" on="1"/>
        <pt x="529" y="575" on="0"/>
        <pt x="544" y="549" on="0"/>
        <pt x="546" y="528" on="0"/>
        <pt x="550" y="511" on="0"/>
        <pt x="553" y="500" on="0"/>
      </contour>
      <contour>
        <pt x="347" y="730" on="1"/>
        <pt x="340" y="730" on="1"/>
        <pt x="340" y="730" on="0"/>
        <pt x="320" y="735" on="0"/>
        <pt x="307" y="744" on="1"/>
        <pt x="305" y="744" on="1"/>
        <pt x="297" y="744" on="0"/>
        <pt x="277" y="754" on="1"/>
        <pt x="256" y="751" on="0"/>
        <pt x="243" y="751" on="0"/>
        <pt x="229" y="757" on="0"/>
        <pt x="212" y="760" on="0"/>
        <pt x="192" y="760" on="0"/>
        <pt x="182" y="760" on="1"/>
        <pt x="178" y="759" on="1"/>
        <pt x="178" y="757" on="0"/>
        <pt x="178" y="753" on="0"/>
        <pt x="176" y="753" on="1"/>
        <pt x="176" y="751" on="1"/>
        <pt x="176" y="733" on="0"/>
        <pt x="181" y="710" on="0"/>
        <pt x="181" y="699" on="0"/>
        <pt x="179" y="697" on="1"/>
        <pt x="186" y="687" on="0"/>
        <pt x="183" y="663" on="0"/>
        <pt x="186" y="651" on="1"/>
        <pt x="192" y="638" on="0"/>
        <pt x="192" y="610" on="1"/>
        <pt x="199" y="579" on="1"/>
        <pt x="196" y="557" on="1"/>
        <pt x="196" y="552" on="0"/>
        <pt x="200" y="544" on="0"/>
        <pt x="202" y="535" on="0"/>
        <pt x="201" y="528" on="0"/>
        <pt x="201" y="524" on="1"/>
        <pt x="203" y="511" on="1"/>
        <pt x="211" y="455" on="0"/>
        <pt x="211" y="440" on="1"/>
        <pt x="211" y="418" on="1"/>
        <pt x="211" y="411" on="0"/>
        <pt x="210" y="404" on="1"/>
        <pt x="214" y="398" on="0"/>
        <pt x="214" y="393" on="1"/>
        <pt x="212" y="381" on="1"/>
        <pt x="215" y="358" on="1"/>
        <pt x="213" y="351" on="1"/>
        <pt x="216" y="335" on="1"/>
        <pt x="214" y="333" on="0"/>
        <pt x="214" y="325" on="0"/>
        <pt x="218" y="315" on="0"/>
        <pt x="220" y="306" on="0"/>
        <pt x="219" y="299" on="0"/>
        <pt x="222" y="278" on="0"/>
        <pt x="228" y="245" on="0"/>
        <pt x="228" y="228" on="1"/>
        <pt x="226" y="187" on="1"/>
        <pt x="226" y="179" on="0"/>
        <pt x="229" y="137" on="1"/>
        <pt x="235" y="137" on="1"/>
        <pt x="241" y="137" on="0"/>
        <pt x="270" y="150" on="0"/>
        <pt x="287" y="155" on="0"/>
        <pt x="297" y="163" on="0"/>
        <pt x="308" y="167" on="1"/>
        <pt x="343" y="191" on="1"/>
        <pt x="378" y="216" on="0"/>
        <pt x="457" y="301" on="0"/>
        <pt x="488" y="394" on="0"/>
        <pt x="488" y="444" on="0"/>
        <pt x="480" y="494" on="0"/>
        <pt x="479" y="519" on="1"/>
        <pt x="473" y="524" on="0"/>
        <pt x="473" y="540" on="0"/>
        <pt x="470" y="549" on="0"/>
        <pt x="468" y="554" on="0"/>
        <pt x="468" y="556" on="1"/>
        <pt x="469" y="559" on="1"/>
        <pt x="456" y="572" on="0"/>
        <pt x="456" y="601" on="1"/>
        <pt x="450" y="609" on="0"/>
        <pt x="438" y="622" on="0"/>
        <pt x="439" y="633" on="1"/>
        <pt x="426" y="642" on="0"/>
        <pt x="427" y="653" on="1"/>
        <pt x="417" y="657" on="0"/>
        <pt x="410" y="667" on="1"/>
        <pt x="408" y="676" on="0"/>
        <pt x="393" y="689" on="0"/>
        <pt x="391" y="698" on="1"/>
        <pt x="383" y="701" on="0"/>
        <pt x="369" y="709" on="0"/>
        <pt x="369" y="719" on="1"/>
        <pt x="362" y="719" on="0"/>
        <pt x="351" y="730" on="0"/>
      </contour>
    </TTGlyph>
    <TTGlyph name="E" xMin="40" yMin="-31" xMax="473" yMax="818">
      <contour>
        <pt x="88" y="383" on="1"/>
        <pt x="95" y="479" on="1"/>
        <pt x="95" y="512" on="1"/>
        <pt x="95" y="518" on="0"/>
        <pt x="94" y="526" on="1"/>
        <pt x="91" y="562" on="1"/>
        <pt x="90" y="571" on="0"/>
        <pt x="91" y="591" on="0"/>
        <pt x="91" y="598" on="1"/>
        <pt x="91" y="610" on="1"/>
        <pt x="91" y="614" on="0"/>
        <pt x="90" y="620" on="1"/>
        <pt x="87" y="633" on="1"/>
        <pt x="88" y="643" on="1"/>
        <pt x="88" y="648" on="0"/>
        <pt x="84" y="654" on="0"/>
        <pt x="81" y="666" on="0"/>
        <pt x="83" y="682" on="0"/>
        <pt x="80" y="691" on="0"/>
        <pt x="75" y="695" on="0"/>
        <pt x="71" y="700" on="0"/>
        <pt x="70" y="706" on="0"/>
        <pt x="63" y="713" on="0"/>
        <pt x="48" y="719" on="0"/>
        <pt x="42" y="724" on="1"/>
        <pt x="43" y="731" on="0"/>
        <pt x="42" y="744" on="0"/>
        <pt x="46" y="752" on="1"/>
        <pt x="58" y="756" on="0"/>
        <pt x="85" y="756" on="0"/>
        <pt x="100" y="745" on="0"/>
        <pt x="119" y="745" on="0"/>
        <pt x="130" y="754" on="1"/>
        <pt x="139" y="751" on="0"/>
        <pt x="155" y="751" on="1"/>
        <pt x="192" y="752" on="1"/>
        <pt x="241" y="748" on="1"/>
        <pt x="259" y="750" on="1"/>
        <pt x="273" y="750" on="0"/>
        <pt x="299" y="742" on="0"/>
        <pt x="313" y="742" on="1"/>
        <pt x="337" y="743" on="1"/>
        <pt x="351" y="745" on="1"/>
        <pt x="368" y="741" on="1"/>
        <pt x="386" y="743" on="1"/>
        <pt x="403" y="742" on="1"/>
        <pt x="411" y="742" on="0"/>
        <pt x="420" y="745" on="1"/>
        <pt x="428" y="762" on="0"/>
        <pt x="433" y="802" on="0"/>
        <pt x="443" y="816" on="1"/>
        <pt x="453" y="818" on="0"/>
        <pt x="464" y="818" on="0"/>
        <pt x="470" y="808" on="0"/>
        <pt x="470" y="805" on="1"/>
        <pt x="468" y="799" on="1"/>
        <pt x="471" y="777" on="1"/>
        <pt x="469" y="759" on="1"/>
        <pt x="472" y="730" on="1"/>
        <pt x="470" y="712" on="1"/>
        <pt x="473" y="696" on="1"/>
        <pt x="470" y="676" on="1"/>
        <pt x="471" y="669" on="1"/>
        <pt x="466" y="665" on="0"/>
        <pt x="461" y="651" on="0"/>
        <pt x="458" y="646" on="1"/>
        <pt x="452" y="643" on="0"/>
        <pt x="439" y="636" on="0"/>
        <pt x="435" y="636" on="1"/>
        <pt x="431" y="636" on="0"/>
        <pt x="421" y="662" on="0"/>
        <pt x="421" y="670" on="1"/>
        <pt x="423" y="692" on="1"/>
        <pt x="423" y="698" on="1"/>
        <pt x="415" y="706" on="0"/>
        <pt x="403" y="706" on="1"/>
        <pt x="385" y="701" on="1"/>
        <pt x="355" y="708" on="1"/>
        <pt x="330" y="706" on="1"/>
        <pt x="327" y="706" on="0"/>
        <pt x="325" y="708" on="1"/>
        <pt x="305" y="708" on="1"/>
        <pt x="268" y="710" on="1"/>
        <pt x="257" y="710" on="0"/>
        <pt x="243" y="705" on="0"/>
        <pt x="227" y="701" on="0"/>
        <pt x="204" y="698" on="0"/>
        <pt x="181" y="696" on="0"/>
        <pt x="158" y="694" on="0"/>
        <pt x="153" y="694" on="1"/>
        <pt x="148" y="689" on="0"/>
        <pt x="150" y="674" on="0"/>
        <pt x="146" y="665" on="0"/>
        <pt x="144" y="665" on="0"/>
        <pt x="144" y="658" on="1"/>
        <pt x="150" y="609" on="1"/>
        <pt x="150" y="583" on="1"/>
        <pt x="151" y="569" on="1"/>
        <pt x="149" y="569" on="0"/>
        <pt x="149" y="560" on="0"/>
        <pt x="156" y="546" on="1"/>
        <pt x="155" y="542" on="0"/>
        <pt x="155" y="535" on="1"/>
        <pt x="152" y="522" on="1"/>
        <pt x="155" y="510" on="1"/>
        <pt x="154" y="486" on="1"/>
        <pt x="156" y="456" on="1"/>
        <pt x="149" y="343" on="1"/>
        <pt x="149" y="328" on="0"/>
        <pt x="157" y="296" on="0"/>
        <pt x="154" y="282" on="1"/>
        <pt x="164" y="272" on="0"/>
        <pt x="227" y="272" on="0"/>
        <pt x="234" y="271" on="1"/>
        <pt x="246" y="269" on="1"/>
        <pt x="256" y="271" on="1"/>
        <pt x="279" y="267" on="1"/>
        <pt x="303" y="265" on="1"/>
        <pt x="316" y="265" on="0"/>
        <pt x="320" y="276" on="1"/>
        <pt x="323" y="292" on="0"/>
        <pt x="328" y="297" on="1"/>
        <pt x="328" y="311" on="0"/>
        <pt x="333" y="321" on="1"/>
        <pt x="348" y="325" on="1"/>
        <pt x="353" y="325" on="0"/>
        <pt x="362" y="308" on="0"/>
        <pt x="362" y="303" on="1"/>
        <pt x="354" y="242" on="1"/>
        <pt x="358" y="214" on="1"/>
        <pt x="351" y="202" on="0"/>
        <pt x="347" y="190" on="1"/>
        <pt x="341" y="189" on="0"/>
        <pt x="329" y="184" on="0"/>
        <pt x="323" y="184" on="1"/>
        <pt x="321" y="186" on="0"/>
        <pt x="318" y="193" on="0"/>
        <pt x="311" y="200" on="0"/>
        <pt x="308" y="217" on="0"/>
        <pt x="306" y="224" on="1"/>
        <pt x="299" y="229" on="0"/>
        <pt x="281" y="226" on="0"/>
        <pt x="275" y="232" on="1"/>
        <pt x="267" y="228" on="0"/>
        <pt x="256" y="228" on="0"/>
        <pt x="250" y="232" on="1"/>
        <pt x="238" y="228" on="0"/>
        <pt x="224" y="228" on="1"/>
        <pt x="191" y="229" on="1"/>
        <pt x="182" y="229" on="1"/>
        <pt x="175" y="229" on="0"/>
        <pt x="162" y="223" on="0"/>
        <pt x="158" y="224" on="0"/>
        <pt x="156" y="222" on="1"/>
        <pt x="157" y="218" on="1"/>
        <pt x="151" y="168" on="1"/>
        <pt x="153" y="139" on="1"/>
        <pt x="150" y="122" on="1"/>
        <pt x="153" y="110" on="1"/>
        <pt x="150" y="65" on="1"/>
        <pt x="150" y="33" on="0"/>
        <pt x="171" y="33" on="1"/>
        <pt x="190" y="35" on="1"/>
        <pt x="214" y="32" on="1"/>
        <pt x="222" y="32" on="0"/>
        <pt x="227" y="37" on="1"/>
        <pt x="234" y="34" on="0"/>
        <pt x="243" y="34" on="1"/>
        <pt x="280" y="37" on="1"/>
        <pt x="286" y="37" on="1"/>
        <pt x="290" y="37" on="0"/>
        <pt x="294" y="35" on="1"/>
        <pt x="305" y="39" on="0"/>
        <pt x="339" y="39" on="0"/>
        <pt x="360" y="41" on="0"/>
        <pt x="379" y="44" on="0"/>
        <pt x="388" y="44" on="1"/>
        <pt x="405" y="43" on="1"/>
        <pt x="416" y="43" on="0"/>
        <pt x="421" y="52" on="0"/>
        <pt x="426" y="54" on="1"/>
        <pt x="427" y="58" on="0"/>
        <pt x="428" y="65" on="1"/>
        <pt x="432" y="93" on="0"/>
        <pt x="446" y="93" on="1"/>
        <pt x="455" y="93" on="0"/>
        <pt x="460" y="83" on="0"/>
        <pt x="467" y="78" on="1"/>
        <pt x="470" y="42" on="0"/>
        <pt x="470" y="29" on="1"/>
        <pt x="468" y="29" on="0"/>
        <pt x="468" y="27" on="1"/>
        <pt x="470" y="4" on="1"/>
        <pt x="470" y="-7" on="0"/>
        <pt x="465" y="-15" on="1"/>
        <pt x="466" y="-20" on="0"/>
        <pt x="454" y="-20" on="0"/>
        <pt x="447" y="-25" on="0"/>
        <pt x="443" y="-31" on="0"/>
        <pt x="438" y="-31" on="1"/>
        <pt x="421" y="-25" on="1"/>
        <pt x="420" y="-16" on="0"/>
        <pt x="418" y="6" on="0"/>
        <pt x="413" y="14" on="1"/>
        <pt x="407" y="13" on="0"/>
        <pt x="401" y="13" on="1"/>
        <pt x="388" y="13" on="1"/>
        <pt x="368" y="13" on="0"/>
        <pt x="366" y="7" on="1"/>
        <pt x="362" y="9" on="0"/>
        <pt x="353" y="9" on="0"/>
        <pt x="347" y="5" on="1"/>
        <pt x="344" y="8" on="0"/>
        <pt x="339" y="8" on="1"/>
        <pt x="325" y="7" on="1"/>
        <pt x="314" y="9" on="1"/>
        <pt x="303" y="7" on="1"/>
        <pt x="286" y="12" on="1"/>
        <pt x="276" y="12" on="0"/>
        <pt x="254" y="-3" on="1"/>
        <pt x="228" y="4" on="1"/>
        <pt x="226" y="4" on="0"/>
        <pt x="223" y="-1" on="0"/>
        <pt x="219" y="-1" on="1"/>
        <pt x="188" y="3" on="1"/>
        <pt x="167" y="0" on="1"/>
        <pt x="151" y="0" on="1"/>
        <pt x="125" y="0" on="0"/>
        <pt x="116" y="-7" on="1"/>
        <pt x="111" y="-3" on="0"/>
        <pt x="102" y="-3" on="1"/>
        <pt x="95" y="-5" on="1"/>
        <pt x="90" y="-3" on="1"/>
        <pt x="82" y="-3" on="0"/>
        <pt x="63" y="-15" on="0"/>
        <pt x="60" y="-15" on="1"/>
        <pt x="40" y="-15" on="0"/>
        <pt x="40" y="10" on="1"/>
        <pt x="40" y="15" on="1"/>
        <pt x="44" y="23" on="0"/>
        <pt x="80" y="31" on="0"/>
        <pt x="82" y="31" on="1"/>
        <pt x="86" y="39" on="0"/>
        <pt x="89" y="61" on="0"/>
        <pt x="91" y="75" on="0"/>
        <pt x="91" y="78" on="1"/>
        <pt x="88" y="96" on="1"/>
        <pt x="91" y="108" on="1"/>
        <pt x="88" y="116" on="1"/>
        <pt x="90" y="126" on="1"/>
        <pt x="87" y="135" on="1"/>
        <pt x="90" y="161" on="1"/>
        <pt x="91" y="165" on="0"/>
        <pt x="90" y="172" on="0"/>
        <pt x="90" y="177" on="1"/>
        <pt x="93" y="203" on="1"/>
        <pt x="89" y="228" on="1"/>
        <pt x="89" y="233" on="0"/>
        <pt x="91" y="241" on="0"/>
        <pt x="93" y="252" on="0"/>
        <pt x="92" y="265" on="0"/>
        <pt x="92" y="271" on="1"/>
        <pt x="92" y="282" on="1"/>
        <pt x="90" y="282" on="0"/>
        <pt x="90" y="284" on="1"/>
        <pt x="93" y="291" on="1"/>
        <pt x="90" y="303" on="1"/>
        <pt x="87" y="314" on="0"/>
        <pt x="88" y="349" on="0"/>
        <pt x="88" y="361" on="1"/>
      </contour>
    </TTGlyph>
    <TTGlyph name="Eacute" xMin="40" yMin="-31" xMax="473" yMax="1002">
      <component glyphName="E" x="0" y="0" flags="0x1204"/>
      <component glyphName="acute" x="235" y="179" flags="0x1004"/>
    </TTGlyph>
    <TTGlyph name="Ecircumflex" xMin="40" yMin="-31" xMax="473" yMax="1015">
      <component glyphName="E" x="0" y="0" flags="0x1204"/>
      <component glyphName="circumflex" x="122" y="142" flags="0x1004"/>
    </TTGlyph>
    <TTGlyph name="Edieresis" xMin="40" yMin="-31" xMax="473" yMax="916">
      <component glyphName="E" x="0" y="0" flags="0x1204"/>
      <component glyphName="dieresis" x="115" y="113" flags="0x1004"/>
    </TTGlyph>
    <TTGlyph name="Egrave" xMin="40" yMin="-31" xMax="473" yMax="965">
      <component glyphName="E" x="0" y="0" flags="0x1204"/>
      <component glyphName="grave" x="87" y="137" flags="0x1004"/>
    </TTGlyph>
    <TTGlyph name="Eth" xMin="36" yMin="58" xMax="498" yMax="750">
      <contour>
        <pt x="107" y="365" on="1"/>
        <pt x="65" y="358" on="1"/>
        <pt x="50" y="358" on="0"/>
        <pt x="50" y="380" on="1"/>
        <pt x="50" y="389" on="0"/>
        <pt x="60" y="389" on="1"/>
        <pt x="65" y="389" on="0"/>
        <pt x="76" y="385" on="1"/>
        <pt x="90" y="389" on="0"/>
        <pt x="123" y="389" on="0"/>
        <pt x="138" y="391" on="1"/>
        <pt x="142" y="403" on="0"/>
        <pt x="142" y="438" on="0"/>
        <pt x="136" y="454" on="0"/>
        <pt x="136" y="458" on="1"/>
        <pt x="138" y="473" on="1"/>
        <pt x="136" y="513" on="1"/>
        <pt x="132" y="537" on="1"/>
        <pt x="134" y="547" on="1"/>
        <pt x="132" y="556" on="1"/>
        <pt x="132" y="604" on="0"/>
        <pt x="134" y="613" on="1"/>
        <pt x="136" y="624" on="1"/>
        <pt x="132" y="647" on="1"/>
        <pt x="132" y="664" on="0"/>
        <pt x="136" y="680" on="1"/>
        <pt x="132" y="686" on="0"/>
        <pt x="128" y="700" on="0"/>
        <pt x="120" y="709" on="0"/>
        <pt x="111" y="711" on="0"/>
        <pt x="111" y="716" on="1"/>
        <pt x="101" y="708" on="0"/>
        <pt x="64" y="708" on="0"/>
        <pt x="48" y="712" on="1"/>
        <pt x="36" y="730" on="0"/>
        <pt x="36" y="739" on="0"/>
        <pt x="45" y="741" on="0"/>
        <pt x="48" y="743" on="1"/>
        <pt x="50" y="748" on="1"/>
        <pt x="54" y="748" on="1"/>
        <pt x="80" y="745" on="1"/>
        <pt x="111" y="748" on="1"/>
        <pt x="121" y="745" on="1"/>
        <pt x="128" y="750" on="1"/>
        <pt x="138" y="750" on="1"/>
        <pt x="177" y="745" on="1"/>
        <pt x="201" y="748" on="1"/>
        <pt x="216" y="748" on="0"/>
        <pt x="241" y="731" on="1"/>
        <pt x="257" y="732" on="0"/>
        <pt x="275" y="724" on="1"/>
        <pt x="284" y="725" on="1"/>
        <pt x="287" y="725" on="0"/>
        <pt x="297" y="723" on="0"/>
        <pt x="314" y="720" on="0"/>
        <pt x="322" y="716" on="1"/>
        <pt x="325" y="712" on="1"/>
        <pt x="330" y="710" on="0"/>
        <pt x="341" y="706" on="0"/>
        <pt x="345" y="700" on="0"/>
        <pt x="349" y="700" on="1"/>
        <pt x="364" y="692" on="1"/>
        <pt x="367" y="688" on="1"/>
        <pt x="372" y="686" on="0"/>
        <pt x="379" y="677" on="0"/>
        <pt x="384" y="672" on="1"/>
        <pt x="409" y="655" on="0"/>
        <pt x="433" y="614" on="0"/>
        <pt x="444" y="605" on="1"/>
        <pt x="444" y="599" on="0"/>
        <pt x="452" y="593" on="0"/>
        <pt x="457" y="585" on="0"/>
        <pt x="460" y="574" on="0"/>
        <pt x="465" y="567" on="0"/>
        <pt x="469" y="563" on="0"/>
        <pt x="472" y="555" on="0"/>
        <pt x="474" y="546" on="0"/>
        <pt x="498" y="486" on="0"/>
        <pt x="498" y="439" on="0"/>
        <pt x="496" y="429" on="1"/>
        <pt x="497" y="408" on="1"/>
        <pt x="497" y="399" on="0"/>
        <pt x="491" y="387" on="0"/>
        <pt x="489" y="376" on="0"/>
        <pt x="490" y="369" on="0"/>
        <pt x="490" y="359" on="0"/>
        <pt x="479" y="332" on="0"/>
        <pt x="474" y="329" on="1"/>
        <pt x="471" y="296" on="0"/>
        <pt x="453" y="273" on="1"/>
        <pt x="453" y="261" on="0"/>
        <pt x="446" y="252" on="1"/>
        <pt x="446" y="246" on="0"/>
        <pt x="435" y="244" on="0"/>
        <pt x="431" y="240" on="1"/>
        <pt x="426" y="226" on="0"/>
        <pt x="405" y="209" on="0"/>
        <pt x="390" y="198" on="0"/>
        <pt x="391" y="190" on="0"/>
        <pt x="383" y="187" on="0"/>
        <pt x="381" y="180" on="0"/>
        <pt x="376" y="181" on="1"/>
        <pt x="375" y="171" on="0"/>
        <pt x="369" y="163" on="1"/>
        <pt x="361" y="161" on="0"/>
        <pt x="353" y="154" on="0"/>
        <pt x="345" y="154" on="1"/>
        <pt x="335" y="142" on="0"/>
        <pt x="322" y="139" on="1"/>
        <pt x="313" y="130" on="0"/>
        <pt x="299" y="122" on="1"/>
        <pt x="288" y="108" on="0"/>
        <pt x="271" y="97" on="0"/>
        <pt x="269" y="97" on="1"/>
        <pt x="260" y="98" on="1"/>
        <pt x="256" y="98" on="0"/>
        <pt x="254" y="96" on="1"/>
        <pt x="253" y="97" on="0"/>
        <pt x="250" y="97" on="0"/>
        <pt x="247" y="92" on="0"/>
        <pt x="245" y="90" on="1"/>
        <pt x="242" y="89" on="0"/>
        <pt x="235" y="90" on="0"/>
        <pt x="227" y="86" on="0"/>
        <pt x="220" y="79" on="0"/>
        <pt x="212" y="76" on="0"/>
        <pt x="194" y="73" on="0"/>
        <pt x="175" y="71" on="0"/>
        <pt x="158" y="69" on="0"/>
        <pt x="154" y="69" on="1"/>
        <pt x="133" y="73" on="1"/>
        <pt x="125" y="73" on="0"/>
        <pt x="112" y="59" on="0"/>
        <pt x="100" y="59" on="1"/>
        <pt x="82" y="63" on="1"/>
        <pt x="64" y="58" on="1"/>
        <pt x="59" y="58" on="0"/>
        <pt x="51" y="66" on="0"/>
        <pt x="48" y="67" on="1"/>
        <pt x="47" y="69" on="0"/>
        <pt x="47" y="72" on="1"/>
        <pt x="48" y="90" on="1"/>
        <pt x="50" y="92" on="0"/>
        <pt x="57" y="94" on="0"/>
        <pt x="57" y="98" on="1"/>
        <pt x="63" y="98" on="1"/>
        <pt x="76" y="98" on="0"/>
        <pt x="85" y="94" on="1"/>
        <pt x="104" y="98" on="1"/>
        <pt x="111" y="98" on="0"/>
        <pt x="113" y="96" on="1"/>
        <pt x="121" y="101" on="0"/>
        <pt x="141" y="104" on="0"/>
        <pt x="149" y="106" on="1"/>
        <pt x="149" y="108" on="1"/>
        <pt x="150" y="112" on="0"/>
        <pt x="146" y="118" on="0"/>
        <pt x="146" y="122" on="1"/>
        <pt x="148" y="179" on="1"/>
        <pt x="148" y="201" on="1"/>
        <pt x="147" y="208" on="0"/>
        <pt x="142" y="220" on="0"/>
        <pt x="142" y="228" on="1"/>
        <pt x="145" y="254" on="1"/>
        <pt x="148" y="260" on="1"/>
        <pt x="148" y="263" on="0"/>
        <pt x="146" y="263" on="1"/>
        <pt x="149" y="296" on="0"/>
        <pt x="149" y="305" on="1"/>
        <pt x="146" y="325" on="1"/>
        <pt x="148" y="340" on="1"/>
        <pt x="148" y="346" on="0"/>
        <pt x="141" y="357" on="0"/>
        <pt x="140" y="364" on="1"/>
        <pt x="132" y="365" on="0"/>
        <pt x="125" y="365" on="1"/>
      </contour>
      <contour>
        <pt x="187" y="702" on="1"/>
        <pt x="181" y="688" on="1"/>
        <pt x="183" y="675" on="1"/>
        <pt x="181" y="660" on="1"/>
        <pt x="181" y="653" on="0"/>
        <pt x="189" y="641" on="0"/>
        <pt x="189" y="635" on="1"/>
        <pt x="187" y="626" on="1"/>
        <pt x="189" y="620" on="1"/>
        <pt x="187" y="615" on="0"/>
        <pt x="187" y="611" on="1"/>
        <pt x="189" y="598" on="1"/>
        <pt x="187" y="582" on="1"/>
        <pt x="191" y="551" on="1"/>
        <pt x="189" y="539" on="1"/>
        <pt x="193" y="514" on="1"/>
        <pt x="191" y="492" on="1"/>
        <pt x="191" y="488" on="0"/>
        <pt x="197" y="481" on="0"/>
        <pt x="196" y="474" on="0"/>
        <pt x="196" y="422" on="0"/>
        <pt x="201" y="399" on="1"/>
        <pt x="207" y="398" on="0"/>
        <pt x="212" y="398" on="1"/>
        <pt x="224" y="398" on="1"/>
        <pt x="263" y="398" on="0"/>
        <pt x="288" y="408" on="1"/>
        <pt x="293" y="401" on="0"/>
        <pt x="300" y="393" on="0"/>
        <pt x="299" y="385" on="1"/>
        <pt x="299" y="384" on="1"/>
        <pt x="291" y="376" on="0"/>
        <pt x="262" y="376" on="0"/>
        <pt x="258" y="378" on="1"/>
        <pt x="253" y="370" on="0"/>
        <pt x="241" y="371" on="1"/>
        <pt x="223" y="373" on="0"/>
        <pt x="215" y="365" on="0"/>
        <pt x="208" y="366" on="0"/>
        <pt x="205" y="358" on="0"/>
        <pt x="205" y="336" on="1"/>
        <pt x="206" y="306" on="1"/>
        <pt x="206" y="296" on="1"/>
        <pt x="201" y="264" on="1"/>
        <pt x="203" y="238" on="1"/>
        <pt x="201" y="228" on="1"/>
        <pt x="201" y="187" on="0"/>
        <pt x="209" y="155" on="0"/>
        <pt x="209" y="143" on="1"/>
        <pt x="204" y="118" on="1"/>
        <pt x="204" y="116" on="0"/>
        <pt x="205" y="114" on="0"/>
        <pt x="205" y="113" on="1"/>
        <pt x="218" y="116" on="0"/>
        <pt x="243" y="125" on="0"/>
        <pt x="256" y="128" on="1"/>
        <pt x="258" y="133" on="0"/>
        <pt x="268" y="137" on="1"/>
        <pt x="274" y="142" on="0"/>
        <pt x="286" y="153" on="0"/>
        <pt x="294" y="159" on="0"/>
        <pt x="297" y="160" on="0"/>
        <pt x="303" y="164" on="0"/>
        <pt x="308" y="169" on="0"/>
        <pt x="313" y="173" on="0"/>
        <pt x="317" y="173" on="0"/>
        <pt x="329" y="183" on="0"/>
        <pt x="344" y="201" on="0"/>
        <pt x="354" y="209" on="1"/>
        <pt x="356" y="221" on="0"/>
        <pt x="378" y="239" on="0"/>
        <pt x="382" y="245" on="1"/>
        <pt x="388" y="256" on="0"/>
        <pt x="407" y="313" on="0"/>
        <pt x="407" y="318" on="0"/>
        <pt x="405" y="318" on="1"/>
        <pt x="410" y="331" on="1"/>
        <pt x="412" y="343" on="0"/>
        <pt x="417" y="367" on="0"/>
        <pt x="417" y="379" on="1"/>
        <pt x="421" y="409" on="1"/>
        <pt x="418" y="436" on="1"/>
        <pt x="420" y="446" on="1"/>
        <pt x="420" y="454" on="0"/>
        <pt x="414" y="466" on="0"/>
        <pt x="416" y="474" on="1"/>
        <pt x="407" y="487" on="0"/>
        <pt x="407" y="507" on="1"/>
        <pt x="402" y="512" on="0"/>
        <pt x="401" y="524" on="0"/>
        <pt x="398" y="531" on="0"/>
        <pt x="392" y="541" on="0"/>
        <pt x="392" y="542" on="1"/>
        <pt x="392" y="550" on="1"/>
        <pt x="392" y="552" on="0"/>
        <pt x="384" y="560" on="0"/>
        <pt x="378" y="572" on="0"/>
        <pt x="372" y="587" on="0"/>
        <pt x="365" y="599" on="0"/>
        <pt x="364" y="602" on="1"/>
        <pt x="354" y="609" on="0"/>
        <pt x="345" y="626" on="0"/>
        <pt x="340" y="629" on="0"/>
        <pt x="334" y="644" on="0"/>
        <pt x="331" y="647" on="0"/>
        <pt x="325" y="647" on="0"/>
        <pt x="322" y="649" on="1"/>
        <pt x="321" y="653" on="1"/>
        <pt x="319" y="654" on="0"/>
        <pt x="317" y="653" on="0"/>
        <pt x="310" y="657" on="0"/>
        <pt x="304" y="666" on="0"/>
        <pt x="291" y="674" on="0"/>
        <pt x="269" y="681" on="0"/>
        <pt x="260" y="688" on="1"/>
        <pt x="255" y="688" on="1"/>
        <pt x="248" y="688" on="0"/>
        <pt x="235" y="694" on="0"/>
        <pt x="218" y="698" on="0"/>
        <pt x="198" y="700" on="0"/>
      </contour>
    </TTGlyph>
    <TTGlyph name="Euro" xMin="32" yMin="70" xMax="629" yMax="659">
      <contour>
        <pt x="41" y="462" on="1"/>
        <pt x="50" y="467" on="1"/>
        <pt x="61" y="465" on="1"/>
        <pt x="77" y="469" on="1"/>
        <pt x="97" y="465" on="0"/>
        <pt x="119" y="465" on="0"/>
        <pt x="130" y="465" on="1"/>
        <pt x="140" y="467" on="1"/>
        <pt x="164" y="463" on="1"/>
        <pt x="167" y="463" on="0"/>
        <pt x="169" y="464" on="1"/>
        <pt x="171" y="469" on="0"/>
        <pt x="179" y="477" on="0"/>
        <pt x="183" y="490" on="0"/>
        <pt x="196" y="511" on="0"/>
        <pt x="196" y="517" on="1"/>
        <pt x="213" y="526" on="0"/>
        <pt x="217" y="545" on="1"/>
        <pt x="218" y="545" on="0"/>
        <pt x="222" y="549" on="1"/>
        <pt x="230" y="558" on="1"/>
        <pt x="242" y="569" on="0"/>
        <pt x="242" y="571" on="1"/>
        <pt x="245" y="572" on="0"/>
        <pt x="245" y="575" on="0"/>
        <pt x="246" y="578" on="1"/>
        <pt x="249" y="579" on="1"/>
        <pt x="251" y="584" on="0"/>
        <pt x="267" y="598" on="0"/>
        <pt x="268" y="600" on="1"/>
        <pt x="275" y="602" on="0"/>
        <pt x="284" y="611" on="0"/>
        <pt x="302" y="619" on="0"/>
        <pt x="303" y="624" on="1"/>
        <pt x="309" y="622" on="0"/>
        <pt x="314" y="630" on="0"/>
        <pt x="319" y="630" on="0"/>
        <pt x="321" y="629" on="0"/>
        <pt x="323" y="630" on="1"/>
        <pt x="324" y="633" on="1"/>
        <pt x="332" y="635" on="0"/>
        <pt x="343" y="637" on="0"/>
        <pt x="348" y="642" on="1"/>
        <pt x="361" y="642" on="0"/>
        <pt x="375" y="650" on="1"/>
        <pt x="382" y="647" on="0"/>
        <pt x="393" y="653" on="1"/>
        <pt x="399" y="654" on="0"/>
        <pt x="416" y="653" on="0"/>
        <pt x="425" y="658" on="0"/>
        <pt x="426" y="659" on="0"/>
        <pt x="432" y="659" on="1"/>
        <pt x="451" y="656" on="1"/>
        <pt x="469" y="657" on="1"/>
        <pt x="480" y="655" on="1"/>
        <pt x="482" y="655" on="0"/>
        <pt x="487" y="656" on="0"/>
        <pt x="489" y="656" on="1"/>
        <pt x="486" y="653" on="0"/>
        <pt x="490" y="653" on="1"/>
        <pt x="498" y="653" on="0"/>
        <pt x="502" y="648" on="1"/>
        <pt x="519" y="650" on="0"/>
        <pt x="533" y="638" on="1"/>
        <pt x="556" y="620" on="1"/>
        <pt x="565" y="614" on="0"/>
        <pt x="575" y="612" on="1"/>
        <pt x="577" y="617" on="0"/>
        <pt x="579" y="631" on="0"/>
        <pt x="582" y="636" on="1"/>
        <pt x="588" y="650" on="0"/>
        <pt x="605" y="650" on="0"/>
        <pt x="613" y="640" on="0"/>
        <pt x="613" y="631" on="0"/>
        <pt x="611" y="627" on="1"/>
        <pt x="612" y="625" on="0"/>
        <pt x="612" y="612" on="0"/>
        <pt x="608" y="602" on="1"/>
        <pt x="606" y="591" on="0"/>
        <pt x="604" y="569" on="0"/>
        <pt x="603" y="559" on="1"/>
        <pt x="605" y="555" on="0"/>
        <pt x="605" y="533" on="0"/>
        <pt x="611" y="527" on="1"/>
        <pt x="608" y="523" on="0"/>
        <pt x="602" y="511" on="1"/>
        <pt x="594" y="506" on="0"/>
        <pt x="584" y="506" on="0"/>
        <pt x="578" y="512" on="1"/>
        <pt x="570" y="522" on="0"/>
        <pt x="573" y="529" on="0"/>
        <pt x="570" y="544" on="0"/>
        <pt x="566" y="550" on="0"/>
        <pt x="566" y="553" on="1"/>
        <pt x="566" y="556" on="1"/>
        <pt x="560" y="560" on="0"/>
        <pt x="557" y="563" on="1"/>
        <pt x="559" y="582" on="0"/>
        <pt x="546" y="590" on="1"/>
        <pt x="540" y="594" on="0"/>
        <pt x="532" y="599" on="0"/>
        <pt x="532" y="602" on="1"/>
        <pt x="520" y="605" on="1"/>
        <pt x="518" y="610" on="0"/>
        <pt x="509" y="610" on="0"/>
        <pt x="508" y="615" on="1"/>
        <pt x="505" y="616" on="1"/>
        <pt x="497" y="614" on="1"/>
        <pt x="496" y="614" on="1"/>
        <pt x="486" y="622" on="1"/>
        <pt x="479" y="621" on="1"/>
        <pt x="474" y="621" on="0"/>
        <pt x="471" y="626" on="1"/>
        <pt x="469" y="624" on="1"/>
        <pt x="466" y="626" on="1"/>
        <pt x="451" y="622" on="1"/>
        <pt x="430" y="629" on="1"/>
        <pt x="419" y="629" on="0"/>
        <pt x="411" y="622" on="1"/>
        <pt x="388" y="622" on="0"/>
        <pt x="375" y="612" on="1"/>
        <pt x="364" y="613" on="0"/>
        <pt x="352" y="608" on="0"/>
        <pt x="349" y="608" on="1"/>
        <pt x="327" y="608" on="0"/>
        <pt x="297" y="581" on="1"/>
        <pt x="276" y="581" on="0"/>
        <pt x="276" y="570" on="0"/>
        <pt x="271" y="566" on="0"/>
        <pt x="264" y="564" on="0"/>
        <pt x="261" y="562" on="1"/>
        <pt x="256" y="547" on="0"/>
        <pt x="246" y="542" on="1"/>
        <pt x="243" y="536" on="0"/>
        <pt x="241" y="530" on="1"/>
        <pt x="238" y="530" on="0"/>
        <pt x="236" y="524" on="0"/>
        <pt x="233" y="523" on="1"/>
        <pt x="233" y="515" on="0"/>
        <pt x="226" y="506" on="0"/>
        <pt x="226" y="499" on="1"/>
        <pt x="226" y="497" on="1"/>
        <pt x="222" y="496" on="0"/>
        <pt x="220" y="488" on="0"/>
        <pt x="217" y="487" on="1"/>
        <pt x="220" y="480" on="0"/>
        <pt x="212" y="472" on="1"/>
        <pt x="211" y="466" on="1"/>
        <pt x="218" y="467" on="1"/>
        <pt x="228" y="465" on="1"/>
        <pt x="238" y="467" on="1"/>
        <pt x="274" y="463" on="1"/>
        <pt x="279" y="463" on="0"/>
        <pt x="288" y="464" on="0"/>
        <pt x="296" y="462" on="0"/>
        <pt x="303" y="459" on="0"/>
        <pt x="307" y="459" on="1"/>
        <pt x="331" y="461" on="1"/>
        <pt x="433" y="461" on="0"/>
        <pt x="452" y="463" on="1"/>
        <pt x="458" y="458" on="0"/>
        <pt x="473" y="446" on="0"/>
        <pt x="473" y="433" on="0"/>
        <pt x="464" y="427" on="0"/>
        <pt x="461" y="424" on="1"/>
        <pt x="452" y="427" on="0"/>
        <pt x="445" y="427" on="1"/>
        <pt x="433" y="426" on="1"/>
        <pt x="417" y="430" on="1"/>
        <pt x="411" y="430" on="0"/>
        <pt x="410" y="424" on="0"/>
        <pt x="405" y="424" on="1"/>
        <pt x="395" y="425" on="1"/>
        <pt x="371" y="423" on="1"/>
        <pt x="356" y="426" on="1"/>
        <pt x="352" y="426" on="0"/>
        <pt x="350" y="421" on="0"/>
        <pt x="346" y="420" on="1"/>
        <pt x="342" y="422" on="0"/>
        <pt x="338" y="422" on="1"/>
        <pt x="316" y="420" on="1"/>
        <pt x="308" y="420" on="0"/>
        <pt x="294" y="427" on="0"/>
        <pt x="269" y="427" on="0"/>
        <pt x="259" y="418" on="1"/>
        <pt x="252" y="425" on="0"/>
        <pt x="232" y="421" on="0"/>
        <pt x="224" y="425" on="1"/>
        <pt x="216" y="422" on="0"/>
        <pt x="198" y="420" on="1"/>
        <pt x="196" y="414" on="0"/>
        <pt x="194" y="412" on="1"/>
        <pt x="196" y="410" on="0"/>
        <pt x="196" y="408" on="1"/>
        <pt x="194" y="397" on="1"/>
        <pt x="197" y="382" on="1"/>
        <pt x="195" y="369" on="1"/>
        <pt x="195" y="354" on="0"/>
        <pt x="198" y="342" on="1"/>
        <pt x="202" y="331" on="1"/>
        <pt x="200" y="327" on="1"/>
        <pt x="206" y="327" on="1"/>
        <pt x="248" y="329" on="1"/>
        <pt x="264" y="328" on="1"/>
        <pt x="279" y="328" on="1"/>
        <pt x="317" y="333" on="1"/>
        <pt x="326" y="331" on="1"/>
        <pt x="370" y="335" on="1"/>
        <pt x="378" y="337" on="1"/>
        <pt x="382" y="335" on="0"/>
        <pt x="384" y="335" on="1"/>
        <pt x="398" y="337" on="1"/>
        <pt x="406" y="337" on="0"/>
        <pt x="423" y="319" on="0"/>
        <pt x="423" y="311" on="1"/>
        <pt x="422" y="302" on="1"/>
        <pt x="416" y="300" on="0"/>
        <pt x="403" y="301" on="0"/>
        <pt x="399" y="296" on="1"/>
        <pt x="391" y="298" on="0"/>
        <pt x="373" y="298" on="0"/>
        <pt x="364" y="303" on="1"/>
        <pt x="336" y="297" on="0"/>
        <pt x="326" y="290" on="1"/>
        <pt x="318" y="291" on="0"/>
        <pt x="308" y="291" on="0"/>
        <pt x="300" y="286" on="1"/>
        <pt x="296" y="290" on="0"/>
        <pt x="290" y="290" on="1"/>
        <pt x="274" y="288" on="1"/>
        <pt x="217" y="295" on="1"/>
        <pt x="208" y="295" on="1"/>
        <pt x="210" y="291" on="0"/>
        <pt x="210" y="285" on="0"/>
        <pt x="211" y="274" on="0"/>
        <pt x="218" y="272" on="0"/>
        <pt x="218" y="268" on="1"/>
        <pt x="216" y="261" on="1"/>
        <pt x="216" y="257" on="0"/>
        <pt x="231" y="224" on="0"/>
        <pt x="249" y="201" on="0"/>
        <pt x="265" y="181" on="0"/>
        <pt x="281" y="165" on="0"/>
        <pt x="288" y="155" on="1"/>
        <pt x="291" y="155" on="0"/>
        <pt x="305" y="146" on="0"/>
        <pt x="334" y="128" on="0"/>
        <pt x="336" y="124" on="1"/>
        <pt x="343" y="123" on="0"/>
        <pt x="351" y="116" on="0"/>
        <pt x="355" y="116" on="1"/>
        <pt x="362" y="118" on="1"/>
        <pt x="363" y="118" on="1"/>
        <pt x="365" y="115" on="0"/>
        <pt x="387" y="108" on="0"/>
        <pt x="398" y="108" on="0"/>
        <pt x="414" y="104" on="0"/>
        <pt x="423" y="105" on="1"/>
        <pt x="426" y="105" on="1"/>
        <pt x="427" y="106" on="0"/>
        <pt x="430" y="106" on="1"/>
        <pt x="435" y="105" on="1"/>
        <pt x="449" y="109" on="1"/>
        <pt x="474" y="108" on="1"/>
        <pt x="477" y="108" on="0"/>
        <pt x="496" y="112" on="0"/>
        <pt x="496" y="115" on="1"/>
        <pt x="496" y="116" on="1"/>
        <pt x="511" y="117" on="0"/>
        <pt x="523" y="125" on="1"/>
        <pt x="532" y="130" on="1"/>
        <pt x="533" y="131" on="0"/>
        <pt x="533" y="135" on="0"/>
        <pt x="538" y="135" on="0"/>
        <pt x="540" y="136" on="1"/>
        <pt x="544" y="140" on="0"/>
        <pt x="574" y="166" on="0"/>
        <pt x="577" y="166" on="1"/>
        <pt x="579" y="170" on="0"/>
        <pt x="583" y="176" on="0"/>
        <pt x="584" y="181" on="1"/>
        <pt x="595" y="184" on="0"/>
        <pt x="602" y="203" on="0"/>
        <pt x="611" y="207" on="1"/>
        <pt x="629" y="200" on="0"/>
        <pt x="629" y="189" on="1"/>
        <pt x="629" y="183" on="0"/>
        <pt x="616" y="177" on="0"/>
        <pt x="611" y="169" on="0"/>
        <pt x="608" y="162" on="0"/>
        <pt x="603" y="158" on="0"/>
        <pt x="596" y="154" on="0"/>
        <pt x="596" y="148" on="1"/>
        <pt x="592" y="150" on="0"/>
        <pt x="589" y="146" on="0"/>
        <pt x="587" y="145" on="1"/>
        <pt x="584" y="140" on="0"/>
        <pt x="578" y="135" on="0"/>
        <pt x="577" y="130" on="1"/>
        <pt x="573" y="128" on="0"/>
        <pt x="568" y="123" on="0"/>
        <pt x="563" y="122" on="1"/>
        <pt x="560" y="116" on="0"/>
        <pt x="548" y="108" on="0"/>
        <pt x="545" y="100" on="1"/>
        <pt x="539" y="100" on="0"/>
        <pt x="532" y="94" on="0"/>
        <pt x="530" y="94" on="1"/>
        <pt x="517" y="91" on="1"/>
        <pt x="514" y="91" on="1"/>
        <pt x="502" y="81" on="1"/>
        <pt x="485" y="77" on="1"/>
        <pt x="474" y="81" on="1"/>
        <pt x="446" y="81" on="0"/>
        <pt x="438" y="78" on="1"/>
        <pt x="421" y="70" on="0"/>
        <pt x="407" y="70" on="1"/>
        <pt x="385" y="73" on="1"/>
        <pt x="379" y="73" on="0"/>
        <pt x="375" y="70" on="1"/>
        <pt x="369" y="73" on="0"/>
        <pt x="354" y="73" on="0"/>
        <pt x="348" y="78" on="0"/>
        <pt x="344" y="78" on="1"/>
        <pt x="341" y="78" on="1"/>
        <pt x="338" y="81" on="1"/>
        <pt x="323" y="86" on="0"/>
        <pt x="296" y="96" on="0"/>
        <pt x="281" y="99" on="1"/>
        <pt x="278" y="107" on="0"/>
        <pt x="261" y="113" on="1"/>
        <pt x="256" y="121" on="1"/>
        <pt x="256" y="122" on="0"/>
        <pt x="254" y="124" on="1"/>
        <pt x="241" y="127" on="0"/>
        <pt x="226" y="148" on="1"/>
        <pt x="222" y="150" on="0"/>
        <pt x="217" y="152" on="0"/>
        <pt x="214" y="155" on="1"/>
        <pt x="202" y="168" on="1"/>
        <pt x="192" y="177" on="0"/>
        <pt x="191" y="179" on="1"/>
        <pt x="181" y="185" on="1"/>
        <pt x="173" y="200" on="0"/>
        <pt x="165" y="228" on="0"/>
        <pt x="160" y="243" on="1"/>
        <pt x="157" y="248" on="0"/>
        <pt x="152" y="255" on="0"/>
        <pt x="149" y="261" on="0"/>
        <pt x="145" y="284" on="0"/>
        <pt x="145" y="285" on="1"/>
        <pt x="145" y="293" on="1"/>
        <pt x="143" y="294" on="1"/>
        <pt x="126" y="290" on="1"/>
        <pt x="107" y="294" on="1"/>
        <pt x="95" y="290" on="1"/>
        <pt x="94" y="290" on="1"/>
        <pt x="95" y="294" on="0"/>
        <pt x="89" y="292" on="0"/>
        <pt x="85" y="295" on="0"/>
        <pt x="85" y="300" on="0"/>
        <pt x="83" y="300" on="1"/>
        <pt x="81" y="300" on="1"/>
        <pt x="59" y="298" on="1"/>
        <pt x="56" y="298" on="1"/>
        <pt x="43" y="308" on="0"/>
        <pt x="43" y="325" on="0"/>
        <pt x="45" y="331" on="1"/>
        <pt x="54" y="337" on="0"/>
        <pt x="72" y="337" on="1"/>
        <pt x="121" y="333" on="1"/>
        <pt x="141" y="333" on="1"/>
        <pt x="142" y="354" on="1"/>
        <pt x="142" y="376" on="0"/>
        <pt x="148" y="399" on="0"/>
        <pt x="154" y="420" on="1"/>
        <pt x="154" y="422" on="1"/>
        <pt x="148" y="423" on="0"/>
        <pt x="143" y="427" on="1"/>
        <pt x="132" y="425" on="0"/>
        <pt x="120" y="425" on="1"/>
        <pt x="97" y="425" on="1"/>
        <pt x="92" y="425" on="0"/>
        <pt x="88" y="431" on="0"/>
        <pt x="81" y="431" on="0"/>
        <pt x="81" y="429" on="1"/>
        <pt x="72" y="431" on="1"/>
        <pt x="68" y="431" on="0"/>
        <pt x="53" y="425" on="1"/>
        <pt x="51" y="430" on="0"/>
        <pt x="38" y="432" on="0"/>
        <pt x="33" y="433" on="1"/>
        <pt x="32" y="437" on="0"/>
        <pt x="32" y="455" on="0"/>
        <pt x="37" y="463" on="1"/>
        <pt x="38" y="462" on="0"/>
      </contour>
    </TTGlyph>
    <TTGlyph name="F" xMin="0" yMin="-27" xMax="455" yMax="764">
      <contour>
        <pt x="148" y="113" on="1"/>
        <pt x="147" y="123" on="0"/>
        <pt x="147" y="146" on="1"/>
        <pt x="147" y="158" on="1"/>
        <pt x="147" y="168" on="0"/>
        <pt x="142" y="175" on="0"/>
        <pt x="138" y="190" on="0"/>
        <pt x="137" y="217" on="0"/>
        <pt x="134" y="234" on="0"/>
        <pt x="129" y="260" on="0"/>
        <pt x="129" y="262" on="1"/>
        <pt x="131" y="266" on="1"/>
        <pt x="127" y="275" on="1"/>
        <pt x="129" y="286" on="1"/>
        <pt x="125" y="324" on="1"/>
        <pt x="124" y="336" on="0"/>
        <pt x="124" y="348" on="1"/>
        <pt x="124" y="373" on="1"/>
        <pt x="125" y="378" on="1"/>
        <pt x="122" y="390" on="1"/>
        <pt x="121" y="394" on="0"/>
        <pt x="122" y="401" on="0"/>
        <pt x="122" y="417" on="0"/>
        <pt x="119" y="426" on="1"/>
        <pt x="112" y="449" on="0"/>
        <pt x="112" y="476" on="1"/>
        <pt x="114" y="484" on="1"/>
        <pt x="109" y="497" on="1"/>
        <pt x="109" y="498" on="1"/>
        <pt x="112" y="502" on="0"/>
        <pt x="112" y="504" on="1"/>
        <pt x="112" y="506" on="0"/>
        <pt x="108" y="513" on="0"/>
        <pt x="105" y="536" on="0"/>
        <pt x="107" y="573" on="0"/>
        <pt x="101" y="593" on="1"/>
        <pt x="105" y="608" on="1"/>
        <pt x="101" y="624" on="1"/>
        <pt x="104" y="641" on="1"/>
        <pt x="104" y="652" on="0"/>
        <pt x="77" y="670" on="0"/>
        <pt x="71" y="670" on="1"/>
        <pt x="47" y="668" on="1"/>
        <pt x="42" y="668" on="0"/>
        <pt x="39" y="669" on="1"/>
        <pt x="37" y="673" on="1"/>
        <pt x="36" y="673" on="1"/>
        <pt x="18" y="671" on="1"/>
        <pt x="11" y="671" on="0"/>
        <pt x="1" y="675" on="1"/>
        <pt x="0" y="678" on="0"/>
        <pt x="0" y="683" on="1"/>
        <pt x="0" y="688" on="0"/>
        <pt x="3" y="700" on="1"/>
        <pt x="20" y="705" on="0"/>
        <pt x="42" y="705" on="1"/>
        <pt x="81" y="705" on="1"/>
        <pt x="112" y="705" on="0"/>
        <pt x="121" y="717" on="0"/>
        <pt x="133" y="717" on="0"/>
        <pt x="152" y="706" on="0"/>
        <pt x="155" y="702" on="1"/>
        <pt x="172" y="707" on="1"/>
        <pt x="176" y="707" on="0"/>
        <pt x="182" y="702" on="1"/>
        <pt x="186" y="708" on="0"/>
        <pt x="203" y="707" on="0"/>
        <pt x="208" y="707" on="1"/>
        <pt x="214" y="707" on="1"/>
        <pt x="215" y="709" on="1"/>
        <pt x="222" y="707" on="1"/>
        <pt x="240" y="709" on="1"/>
        <pt x="251" y="707" on="1"/>
        <pt x="266" y="708" on="1"/>
        <pt x="275" y="708" on="0"/>
        <pt x="278" y="705" on="1"/>
        <pt x="289" y="712" on="0"/>
        <pt x="309" y="712" on="1"/>
        <pt x="349" y="711" on="1"/>
        <pt x="363" y="713" on="1"/>
        <pt x="380" y="711" on="1"/>
        <pt x="390" y="715" on="1"/>
        <pt x="391" y="715" on="0"/>
        <pt x="391" y="714" on="0"/>
        <pt x="396" y="714" on="0"/>
        <pt x="399" y="720" on="0"/>
        <pt x="401" y="737" on="0"/>
        <pt x="402" y="745" on="1"/>
        <pt x="406" y="764" on="0"/>
        <pt x="421" y="764" on="1"/>
        <pt x="425" y="764" on="0"/>
        <pt x="432" y="759" on="0"/>
        <pt x="436" y="758" on="1"/>
        <pt x="438" y="749" on="0"/>
        <pt x="444" y="731" on="0"/>
        <pt x="444" y="722" on="1"/>
        <pt x="443" y="692" on="1"/>
        <pt x="443" y="684" on="0"/>
        <pt x="446" y="675" on="0"/>
        <pt x="449" y="658" on="0"/>
        <pt x="448" y="640" on="0"/>
        <pt x="450" y="625" on="0"/>
        <pt x="455" y="611" on="0"/>
        <pt x="455" y="604" on="1"/>
        <pt x="455" y="583" on="0"/>
        <pt x="419" y="583" on="1"/>
        <pt x="412" y="590" on="0"/>
        <pt x="408" y="635" on="0"/>
        <pt x="406" y="657" on="0"/>
        <pt x="400" y="666" on="1"/>
        <pt x="398" y="668" on="0"/>
        <pt x="390" y="666" on="0"/>
        <pt x="383" y="672" on="0"/>
        <pt x="381" y="669" on="1"/>
        <pt x="373" y="674" on="0"/>
        <pt x="368" y="673" on="0"/>
        <pt x="359" y="673" on="1"/>
        <pt x="342" y="677" on="1"/>
        <pt x="337" y="678" on="0"/>
        <pt x="330" y="677" on="0"/>
        <pt x="316" y="677" on="0"/>
        <pt x="312" y="679" on="1"/>
        <pt x="301" y="671" on="0"/>
        <pt x="283" y="671" on="0"/>
        <pt x="272" y="673" on="1"/>
        <pt x="248" y="667" on="0"/>
        <pt x="237" y="667" on="0"/>
        <pt x="229" y="669" on="1"/>
        <pt x="218" y="666" on="1"/>
        <pt x="214" y="665" on="0"/>
        <pt x="208" y="666" on="0"/>
        <pt x="205" y="666" on="1"/>
        <pt x="202" y="666" on="1"/>
        <pt x="197" y="665" on="0"/>
        <pt x="177" y="650" on="0"/>
        <pt x="158" y="650" on="0"/>
        <pt x="158" y="636" on="0"/>
        <pt x="152" y="634" on="1"/>
        <pt x="157" y="622" on="0"/>
        <pt x="157" y="613" on="1"/>
        <pt x="155" y="600" on="1"/>
        <pt x="157" y="595" on="1"/>
        <pt x="155" y="589" on="1"/>
        <pt x="155" y="586" on="0"/>
        <pt x="158" y="580" on="0"/>
        <pt x="161" y="567" on="0"/>
        <pt x="160" y="548" on="0"/>
        <pt x="162" y="529" on="0"/>
        <pt x="165" y="515" on="0"/>
        <pt x="165" y="502" on="0"/>
        <pt x="169" y="497" on="0"/>
        <pt x="169" y="444" on="0"/>
        <pt x="182" y="398" on="0"/>
        <pt x="182" y="392" on="1"/>
        <pt x="180" y="391" on="1"/>
        <pt x="182" y="386" on="1"/>
        <pt x="182" y="382" on="0"/>
        <pt x="178" y="376" on="1"/>
        <pt x="182" y="352" on="0"/>
        <pt x="180" y="293" on="0"/>
        <pt x="188" y="272" on="1"/>
        <pt x="187" y="268" on="0"/>
        <pt x="187" y="262" on="1"/>
        <pt x="187" y="256" on="0"/>
        <pt x="188" y="252" on="1"/>
        <pt x="208" y="249" on="0"/>
        <pt x="258" y="249" on="0"/>
        <pt x="316" y="258" on="0"/>
        <pt x="346" y="258" on="1"/>
        <pt x="350" y="262" on="0"/>
        <pt x="355" y="287" on="0"/>
        <pt x="362" y="296" on="0"/>
        <pt x="377" y="296" on="0"/>
        <pt x="385" y="285" on="0"/>
        <pt x="389" y="269" on="0"/>
        <pt x="391" y="254" on="0"/>
        <pt x="393" y="249" on="1"/>
        <pt x="393" y="246" on="1"/>
        <pt x="391" y="237" on="1"/>
        <pt x="391" y="225" on="0"/>
        <pt x="401" y="206" on="0"/>
        <pt x="401" y="181" on="0"/>
        <pt x="379" y="169" on="0"/>
        <pt x="362" y="169" on="0"/>
        <pt x="359" y="170" on="1"/>
        <pt x="350" y="197" on="0"/>
        <pt x="350" y="215" on="0"/>
        <pt x="351" y="219" on="1"/>
        <pt x="341" y="223" on="0"/>
        <pt x="305" y="223" on="0"/>
        <pt x="297" y="215" on="1"/>
        <pt x="276" y="218" on="1"/>
        <pt x="268" y="218" on="0"/>
        <pt x="267" y="213" on="0"/>
        <pt x="262" y="213" on="1"/>
        <pt x="233" y="217" on="1"/>
        <pt x="230" y="217" on="0"/>
        <pt x="224" y="208" on="0"/>
        <pt x="213" y="208" on="0"/>
        <pt x="201" y="198" on="0"/>
        <pt x="194" y="198" on="1"/>
        <pt x="194" y="186" on="0"/>
        <pt x="200" y="181" on="1"/>
        <pt x="199" y="178" on="0"/>
        <pt x="199" y="172" on="1"/>
        <pt x="205" y="123" on="1"/>
        <pt x="205" y="108" on="0"/>
        <pt x="199" y="97" on="1"/>
        <pt x="201" y="92" on="0"/>
        <pt x="201" y="72" on="0"/>
        <pt x="204" y="58" on="0"/>
        <pt x="208" y="47" on="0"/>
        <pt x="208" y="32" on="0"/>
        <pt x="197" y="32" on="1"/>
        <pt x="200" y="28" on="0"/>
        <pt x="206" y="28" on="1"/>
        <pt x="225" y="32" on="1"/>
        <pt x="236" y="25" on="0"/>
        <pt x="242" y="8" on="1"/>
        <pt x="228" y="-9" on="0"/>
        <pt x="218" y="-9" on="1"/>
        <pt x="202" y="-5" on="1"/>
        <pt x="187" y="-7" on="1"/>
        <pt x="184" y="-7" on="0"/>
        <pt x="180" y="-5" on="1"/>
        <pt x="175" y="-7" on="0"/>
        <pt x="170" y="-16" on="0"/>
        <pt x="157" y="-18" on="0"/>
        <pt x="141" y="-18" on="0"/>
        <pt x="133" y="-20" on="1"/>
        <pt x="121" y="-27" on="0"/>
        <pt x="112" y="-27" on="0"/>
        <pt x="105" y="-23" on="1"/>
        <pt x="104" y="-14" on="1"/>
        <pt x="104" y="-3" on="0"/>
        <pt x="116" y="-1" on="0"/>
        <pt x="122" y="6" on="1"/>
        <pt x="125" y="8" on="0"/>
        <pt x="133" y="7" on="0"/>
        <pt x="142" y="10" on="0"/>
        <pt x="149" y="17" on="0"/>
        <pt x="155" y="18" on="1"/>
        <pt x="151" y="28" on="0"/>
        <pt x="152" y="47" on="0"/>
        <pt x="150" y="57" on="1"/>
        <pt x="147" y="76" on="1"/>
        <pt x="148" y="87" on="1"/>
        <pt x="147" y="93" on="1"/>
      </contour>
    </TTGlyph>
    <TTGlyph name="G" xMin="47" yMin="111" xMax="489" yMax="781">
      <contour>
        <pt x="371" y="502" on="1"/>
        <pt x="408" y="503" on="1"/>
        <pt x="427" y="503" on="0"/>
        <pt x="463" y="494" on="0"/>
        <pt x="481" y="497" on="1"/>
        <pt x="483" y="493" on="0"/>
        <pt x="489" y="486" on="0"/>
        <pt x="489" y="473" on="0"/>
        <pt x="471" y="467" on="0"/>
        <pt x="464" y="465" on="1"/>
        <pt x="460" y="463" on="0"/>
        <pt x="462" y="455" on="0"/>
        <pt x="458" y="453" on="1"/>
        <pt x="456" y="446" on="0"/>
        <pt x="444" y="442" on="0"/>
        <pt x="444" y="434" on="1"/>
        <pt x="448" y="414" on="1"/>
        <pt x="444" y="378" on="1"/>
        <pt x="446" y="364" on="1"/>
        <pt x="446" y="359" on="0"/>
        <pt x="441" y="350" on="0"/>
        <pt x="442" y="337" on="0"/>
        <pt x="442" y="333" on="1"/>
        <pt x="440" y="324" on="1"/>
        <pt x="442" y="317" on="1"/>
        <pt x="442" y="312" on="0"/>
        <pt x="436" y="304" on="0"/>
        <pt x="438" y="298" on="1"/>
        <pt x="430" y="288" on="1"/>
        <pt x="431" y="285" on="1"/>
        <pt x="431" y="276" on="0"/>
        <pt x="424" y="267" on="0"/>
        <pt x="425" y="258" on="1"/>
        <pt x="422" y="258" on="0"/>
        <pt x="399" y="212" on="0"/>
        <pt x="395" y="209" on="1"/>
        <pt x="393" y="204" on="0"/>
        <pt x="393" y="193" on="0"/>
        <pt x="387" y="178" on="0"/>
        <pt x="370" y="169" on="0"/>
        <pt x="365" y="160" on="1"/>
        <pt x="362" y="160" on="1"/>
        <pt x="358" y="163" on="0"/>
        <pt x="331" y="131" on="0"/>
        <pt x="322" y="131" on="1"/>
        <pt x="315" y="132" on="1"/>
        <pt x="311" y="132" on="0"/>
        <pt x="310" y="130" on="1"/>
        <pt x="304" y="129" on="0"/>
        <pt x="298" y="122" on="0"/>
        <pt x="293" y="119" on="1"/>
        <pt x="290" y="119" on="1"/>
        <pt x="278" y="119" on="0"/>
        <pt x="271" y="113" on="1"/>
        <pt x="269" y="117" on="0"/>
        <pt x="261" y="116" on="0"/>
        <pt x="258" y="116" on="1"/>
        <pt x="255" y="116" on="0"/>
        <pt x="254" y="117" on="1"/>
        <pt x="252" y="117" on="1"/>
        <pt x="243" y="111" on="1"/>
        <pt x="240" y="111" on="1"/>
        <pt x="233" y="110" on="0"/>
        <pt x="229" y="115" on="0"/>
        <pt x="224" y="117" on="1"/>
        <pt x="216" y="115" on="0"/>
        <pt x="209" y="115" on="1"/>
        <pt x="188" y="115" on="1"/>
        <pt x="179" y="125" on="0"/>
        <pt x="169" y="128" on="1"/>
        <pt x="167" y="130" on="0"/>
        <pt x="164" y="130" on="0"/>
        <pt x="160" y="124" on="0"/>
        <pt x="157" y="125" on="1"/>
        <pt x="156" y="125" on="1"/>
        <pt x="153" y="130" on="0"/>
        <pt x="145" y="132" on="0"/>
        <pt x="141" y="134" on="1"/>
        <pt x="139" y="139" on="0"/>
        <pt x="133" y="141" on="0"/>
        <pt x="128" y="144" on="1"/>
        <pt x="121" y="163" on="0"/>
        <pt x="102" y="176" on="1"/>
        <pt x="102" y="181" on="0"/>
        <pt x="94" y="188" on="0"/>
        <pt x="90" y="200" on="1"/>
        <pt x="87" y="205" on="0"/>
        <pt x="82" y="208" on="1"/>
        <pt x="73" y="216" on="0"/>
        <pt x="73" y="222" on="1"/>
        <pt x="73" y="226" on="1"/>
        <pt x="73" y="232" on="0"/>
        <pt x="62" y="243" on="1"/>
        <pt x="60" y="257" on="0"/>
        <pt x="53" y="284" on="0"/>
        <pt x="47" y="330" on="0"/>
        <pt x="47" y="399" on="0"/>
        <pt x="55" y="445" on="0"/>
        <pt x="55" y="469" on="1"/>
        <pt x="53" y="481" on="1"/>
        <pt x="53" y="485" on="0"/>
        <pt x="56" y="494" on="0"/>
        <pt x="59" y="507" on="0"/>
        <pt x="62" y="523" on="0"/>
        <pt x="69" y="536" on="0"/>
        <pt x="73" y="543" on="0"/>
        <pt x="78" y="556" on="0"/>
        <pt x="81" y="575" on="0"/>
        <pt x="90" y="601" on="0"/>
        <pt x="109" y="631" on="0"/>
        <pt x="116" y="647" on="1"/>
        <pt x="130" y="655" on="0"/>
        <pt x="144" y="683" on="0"/>
        <pt x="159" y="694" on="0"/>
        <pt x="162" y="693" on="0"/>
        <pt x="163" y="694" on="1"/>
        <pt x="165" y="698" on="1"/>
        <pt x="167" y="700" on="0"/>
        <pt x="170" y="700" on="1"/>
        <pt x="176" y="700" on="0"/>
        <pt x="183" y="710" on="1"/>
        <pt x="192" y="722" on="1"/>
        <pt x="207" y="727" on="0"/>
        <pt x="216" y="742" on="1"/>
        <pt x="226" y="744" on="0"/>
        <pt x="245" y="757" on="0"/>
        <pt x="256" y="754" on="1"/>
        <pt x="258" y="756" on="0"/>
        <pt x="276" y="764" on="0"/>
        <pt x="278" y="764" on="1"/>
        <pt x="289" y="762" on="1"/>
        <pt x="304" y="766" on="1"/>
        <pt x="320" y="764" on="1"/>
        <pt x="337" y="765" on="1"/>
        <pt x="349" y="765" on="0"/>
        <pt x="363" y="755" on="0"/>
        <pt x="363" y="752" on="0"/>
        <pt x="365" y="750" on="1"/>
        <pt x="368" y="749" on="0"/>
        <pt x="370" y="750" on="0"/>
        <pt x="380" y="742" on="0"/>
        <pt x="388" y="726" on="0"/>
        <pt x="399" y="724" on="1"/>
        <pt x="405" y="729" on="0"/>
        <pt x="403" y="749" on="0"/>
        <pt x="403" y="764" on="0"/>
        <pt x="414" y="781" on="0"/>
        <pt x="428" y="781" on="0"/>
        <pt x="435" y="770" on="0"/>
        <pt x="440" y="768" on="1"/>
        <pt x="441" y="758" on="0"/>
        <pt x="442" y="739" on="0"/>
        <pt x="446" y="723" on="0"/>
        <pt x="453" y="708" on="0"/>
        <pt x="453" y="688" on="0"/>
        <pt x="448" y="675" on="1"/>
        <pt x="444" y="673" on="1"/>
        <pt x="442" y="668" on="0"/>
        <pt x="442" y="666" on="0"/>
        <pt x="432" y="666" on="0"/>
        <pt x="431" y="658" on="0"/>
        <pt x="424" y="658" on="1"/>
        <pt x="408" y="659" on="1"/>
        <pt x="405" y="677" on="0"/>
        <pt x="397" y="685" on="1"/>
        <pt x="387" y="696" on="1"/>
        <pt x="380" y="702" on="0"/>
        <pt x="378" y="702" on="1"/>
        <pt x="372" y="700" on="0"/>
        <pt x="368" y="711" on="0"/>
        <pt x="355" y="715" on="1"/>
        <pt x="353" y="719" on="0"/>
        <pt x="348" y="723" on="0"/>
        <pt x="348" y="728" on="1"/>
        <pt x="346" y="728" on="1"/>
        <pt x="341" y="728" on="0"/>
        <pt x="338" y="732" on="0"/>
        <pt x="334" y="734" on="1"/>
        <pt x="316" y="729" on="0"/>
        <pt x="283" y="731" on="0"/>
        <pt x="259" y="727" on="0"/>
        <pt x="255" y="717" on="0"/>
        <pt x="250" y="715" on="1"/>
        <pt x="235" y="714" on="0"/>
        <pt x="222" y="699" on="0"/>
        <pt x="210" y="691" on="0"/>
        <pt x="207" y="692" on="0"/>
        <pt x="205" y="691" on="1"/>
        <pt x="201" y="688" on="0"/>
        <pt x="199" y="679" on="0"/>
        <pt x="190" y="681" on="1"/>
        <pt x="190" y="679" on="0"/>
        <pt x="182" y="662" on="0"/>
        <pt x="181" y="659" on="1"/>
        <pt x="179" y="657" on="0"/>
        <pt x="163" y="647" on="0"/>
        <pt x="161" y="639" on="0"/>
        <pt x="156" y="638" on="1"/>
        <pt x="156" y="622" on="1"/>
        <pt x="151" y="620" on="0"/>
        <pt x="149" y="610" on="0"/>
        <pt x="145" y="608" on="1"/>
        <pt x="144" y="606" on="0"/>
        <pt x="145" y="601" on="0"/>
        <pt x="145" y="595" on="0"/>
        <pt x="141" y="593" on="0"/>
        <pt x="139" y="591" on="1"/>
        <pt x="137" y="581" on="0"/>
        <pt x="132" y="572" on="0"/>
        <pt x="130" y="564" on="0"/>
        <pt x="132" y="552" on="0"/>
        <pt x="132" y="547" on="1"/>
        <pt x="128" y="523" on="1"/>
        <pt x="130" y="498" on="1"/>
        <pt x="126" y="472" on="1"/>
        <pt x="130" y="435" on="1"/>
        <pt x="128" y="406" on="1"/>
        <pt x="130" y="401" on="1"/>
        <pt x="126" y="368" on="1"/>
        <pt x="126" y="355" on="0"/>
        <pt x="128" y="343" on="1"/>
        <pt x="132" y="329" on="1"/>
        <pt x="130" y="316" on="1"/>
        <pt x="134" y="296" on="1"/>
        <pt x="139" y="270" on="0"/>
        <pt x="156" y="249" on="0"/>
        <pt x="160" y="239" on="0"/>
        <pt x="159" y="233" on="0"/>
        <pt x="159" y="231" on="1"/>
        <pt x="159" y="229" on="0"/>
        <pt x="162" y="227" on="0"/>
        <pt x="165" y="221" on="0"/>
        <pt x="165" y="214" on="0"/>
        <pt x="167" y="209" on="0"/>
        <pt x="175" y="197" on="0"/>
        <pt x="180" y="188" on="1"/>
        <pt x="192" y="168" on="1"/>
        <pt x="194" y="166" on="0"/>
        <pt x="199" y="166" on="0"/>
        <pt x="201" y="164" on="1"/>
        <pt x="203" y="162" on="0"/>
        <pt x="203" y="160" on="0"/>
        <pt x="206" y="157" on="0"/>
        <pt x="214" y="158" on="0"/>
        <pt x="216" y="156" on="1"/>
        <pt x="216" y="152" on="1"/>
        <pt x="225" y="149" on="0"/>
        <pt x="228" y="146" on="1"/>
        <pt x="231" y="147" on="0"/>
        <pt x="276" y="147" on="0"/>
        <pt x="279" y="158" on="1"/>
        <pt x="281" y="156" on="0"/>
        <pt x="299" y="156" on="0"/>
        <pt x="306" y="166" on="0"/>
        <pt x="323" y="174" on="0"/>
        <pt x="335" y="174" on="0"/>
        <pt x="344" y="183" on="1"/>
        <pt x="344" y="187" on="1"/>
        <pt x="348" y="187" on="1"/>
        <pt x="350" y="189" on="0"/>
        <pt x="350" y="196" on="0"/>
        <pt x="360" y="210" on="0"/>
        <pt x="382" y="238" on="0"/>
        <pt x="386" y="248" on="1"/>
        <pt x="393" y="268" on="0"/>
        <pt x="408" y="324" on="0"/>
        <pt x="413" y="329" on="1"/>
        <pt x="412" y="346" on="1"/>
        <pt x="412" y="381" on="0"/>
        <pt x="421" y="401" on="1"/>
        <pt x="421" y="402" on="1"/>
        <pt x="417" y="425" on="1"/>
        <pt x="417" y="431" on="1"/>
        <pt x="417" y="438" on="0"/>
        <pt x="408" y="442" on="0"/>
        <pt x="403" y="449" on="0"/>
        <pt x="404" y="452" on="0"/>
        <pt x="390" y="466" on="0"/>
        <pt x="371" y="466" on="0"/>
        <pt x="358" y="459" on="0"/>
        <pt x="350" y="457" on="1"/>
        <pt x="315" y="469" on="0"/>
        <pt x="301" y="471" on="1"/>
        <pt x="302" y="472" on="0"/>
        <pt x="302" y="476" on="0"/>
        <pt x="296" y="476" on="0"/>
        <pt x="296" y="493" on="0"/>
        <pt x="310" y="504" on="1"/>
        <pt x="325" y="502" on="0"/>
        <pt x="341" y="502" on="1"/>
      </contour>
    </TTGlyph>
    <TTGlyph name="H" xMin="22" yMin="-40" xMax="581" yMax="770">
      <contour>
        <pt x="115" y="78" on="1"/>
        <pt x="108" y="138" on="1"/>
        <pt x="110" y="171" on="1"/>
        <pt x="108" y="177" on="1"/>
        <pt x="110" y="184" on="1"/>
        <pt x="110" y="187" on="1"/>
        <pt x="108" y="187" on="0"/>
        <pt x="108" y="189" on="1"/>
        <pt x="110" y="191" on="1"/>
        <pt x="105" y="226" on="1"/>
        <pt x="105" y="233" on="0"/>
        <pt x="106" y="246" on="0"/>
        <pt x="104" y="260" on="0"/>
        <pt x="101" y="265" on="0"/>
        <pt x="101" y="276" on="1"/>
        <pt x="95" y="304" on="1"/>
        <pt x="97" y="319" on="1"/>
        <pt x="90" y="352" on="1"/>
        <pt x="92" y="364" on="1"/>
        <pt x="88" y="406" on="1"/>
        <pt x="83" y="418" on="0"/>
        <pt x="83" y="427" on="1"/>
        <pt x="85" y="454" on="1"/>
        <pt x="81" y="483" on="1"/>
        <pt x="83" y="500" on="1"/>
        <pt x="83" y="501" on="0"/>
        <pt x="81" y="501" on="0"/>
        <pt x="81" y="503" on="1"/>
        <pt x="84" y="510" on="1"/>
        <pt x="84" y="518" on="0"/>
        <pt x="77" y="524" on="0"/>
        <pt x="75" y="530" on="1"/>
        <pt x="77" y="534" on="0"/>
        <pt x="77" y="547" on="0"/>
        <pt x="72" y="559" on="0"/>
        <pt x="69" y="572" on="0"/>
        <pt x="71" y="587" on="0"/>
        <pt x="71" y="593" on="1"/>
        <pt x="67" y="629" on="1"/>
        <pt x="69" y="669" on="1"/>
        <pt x="69" y="696" on="0"/>
        <pt x="42" y="694" on="1"/>
        <pt x="34" y="694" on="0"/>
        <pt x="26" y="693" on="1"/>
        <pt x="26" y="696" on="1"/>
        <pt x="22" y="713" on="1"/>
        <pt x="23" y="719" on="1"/>
        <pt x="24" y="720" on="0"/>
        <pt x="44" y="727" on="0"/>
        <pt x="46" y="727" on="1"/>
        <pt x="54" y="726" on="1"/>
        <pt x="77" y="733" on="1"/>
        <pt x="81" y="733" on="0"/>
        <pt x="83" y="732" on="1"/>
        <pt x="86" y="734" on="0"/>
        <pt x="92" y="741" on="0"/>
        <pt x="98" y="741" on="1"/>
        <pt x="108" y="739" on="1"/>
        <pt x="130" y="743" on="1"/>
        <pt x="135" y="743" on="0"/>
        <pt x="149" y="724" on="0"/>
        <pt x="149" y="713" on="0"/>
        <pt x="143" y="710" on="1"/>
        <pt x="140" y="711" on="1"/>
        <pt x="116" y="711" on="0"/>
        <pt x="118" y="672" on="1"/>
        <pt x="119" y="663" on="0"/>
        <pt x="119" y="656" on="1"/>
        <pt x="123" y="636" on="1"/>
        <pt x="122" y="621" on="1"/>
        <pt x="126" y="603" on="1"/>
        <pt x="124" y="590" on="1"/>
        <pt x="124" y="575" on="0"/>
        <pt x="132" y="540" on="0"/>
        <pt x="133" y="525" on="1"/>
        <pt x="132" y="519" on="1"/>
        <pt x="132" y="517" on="0"/>
        <pt x="136" y="512" on="0"/>
        <pt x="135" y="507" on="0"/>
        <pt x="135" y="503" on="1"/>
        <pt x="135" y="488" on="1"/>
        <pt x="135" y="443" on="0"/>
        <pt x="144" y="428" on="1"/>
        <pt x="143" y="425" on="0"/>
        <pt x="143" y="412" on="0"/>
        <pt x="147" y="398" on="0"/>
        <pt x="150" y="381" on="0"/>
        <pt x="149" y="361" on="0"/>
        <pt x="155" y="332" on="0"/>
        <pt x="156" y="296" on="0"/>
        <pt x="159" y="276" on="1"/>
        <pt x="167" y="264" on="0"/>
        <pt x="209" y="261" on="0"/>
        <pt x="228" y="261" on="0"/>
        <pt x="239" y="257" on="0"/>
        <pt x="258" y="255" on="0"/>
        <pt x="288" y="256" on="0"/>
        <pt x="302" y="256" on="1"/>
        <pt x="355" y="253" on="1"/>
        <pt x="383" y="255" on="1"/>
        <pt x="413" y="252" on="1"/>
        <pt x="419" y="252" on="0"/>
        <pt x="422" y="253" on="1"/>
        <pt x="433" y="267" on="0"/>
        <pt x="433" y="281" on="1"/>
        <pt x="431" y="294" on="1"/>
        <pt x="431" y="302" on="0"/>
        <pt x="439" y="334" on="0"/>
        <pt x="438" y="359" on="0"/>
        <pt x="440" y="379" on="0"/>
        <pt x="442" y="392" on="0"/>
        <pt x="442" y="398" on="1"/>
        <pt x="441" y="417" on="1"/>
        <pt x="441" y="443" on="0"/>
        <pt x="455" y="524" on="0"/>
        <pt x="455" y="541" on="1"/>
        <pt x="462" y="599" on="1"/>
        <pt x="462" y="603" on="0"/>
        <pt x="466" y="612" on="0"/>
        <pt x="469" y="622" on="0"/>
        <pt x="468" y="630" on="0"/>
        <pt x="471" y="639" on="0"/>
        <pt x="474" y="646" on="0"/>
        <pt x="484" y="704" on="0"/>
        <pt x="489" y="723" on="0"/>
        <pt x="489" y="737" on="0"/>
        <pt x="484" y="744" on="0"/>
        <pt x="470" y="741" on="0"/>
        <pt x="455" y="741" on="0"/>
        <pt x="455" y="750" on="0"/>
        <pt x="449" y="754" on="1"/>
        <pt x="449" y="755" on="1"/>
        <pt x="449" y="760" on="0"/>
        <pt x="455" y="764" on="0"/>
        <pt x="455" y="769" on="1"/>
        <pt x="460" y="770" on="0"/>
        <pt x="466" y="770" on="1"/>
        <pt x="477" y="770" on="1"/>
        <pt x="573" y="764" on="1"/>
        <pt x="575" y="762" on="0"/>
        <pt x="574" y="757" on="0"/>
        <pt x="577" y="752" on="0"/>
        <pt x="581" y="746" on="0"/>
        <pt x="581" y="742" on="1"/>
        <pt x="581" y="738" on="0"/>
        <pt x="577" y="732" on="1"/>
        <pt x="572" y="732" on="1"/>
        <pt x="551" y="736" on="1"/>
        <pt x="546" y="736" on="0"/>
        <pt x="540" y="731" on="0"/>
        <pt x="536" y="729" on="1"/>
        <pt x="535" y="728" on="0"/>
        <pt x="535" y="725" on="1"/>
        <pt x="535" y="722" on="1"/>
        <pt x="532" y="712" on="0"/>
        <pt x="529" y="691" on="0"/>
        <pt x="525" y="675" on="0"/>
        <pt x="521" y="665" on="0"/>
        <pt x="513" y="633" on="0"/>
        <pt x="514" y="584" on="0"/>
        <pt x="510" y="548" on="0"/>
        <pt x="508" y="538" on="0"/>
        <pt x="508" y="525" on="1"/>
        <pt x="504" y="508" on="1"/>
        <pt x="502" y="488" on="0"/>
        <pt x="502" y="478" on="1"/>
        <pt x="502" y="429" on="1"/>
        <pt x="498" y="350" on="1"/>
        <pt x="499" y="316" on="1"/>
        <pt x="499" y="281" on="0"/>
        <pt x="478" y="209" on="0"/>
        <pt x="478" y="172" on="1"/>
        <pt x="479" y="153" on="1"/>
        <pt x="479" y="148" on="0"/>
        <pt x="478" y="144" on="1"/>
        <pt x="464" y="88" on="0"/>
        <pt x="464" y="37" on="1"/>
        <pt x="458" y="8" on="1"/>
        <pt x="458" y="3" on="1"/>
        <pt x="465" y="0" on="0"/>
        <pt x="476" y="0" on="0"/>
        <pt x="478" y="2" on="1"/>
        <pt x="493" y="8" on="1"/>
        <pt x="496" y="8" on="1"/>
        <pt x="504" y="0" on="0"/>
        <pt x="504" y="-22" on="0"/>
        <pt x="489" y="-30" on="0"/>
        <pt x="482" y="-35" on="1"/>
        <pt x="476" y="-36" on="1"/>
        <pt x="447" y="-32" on="1"/>
        <pt x="421" y="-37" on="1"/>
        <pt x="410" y="-35" on="1"/>
        <pt x="390" y="-40" on="1"/>
        <pt x="380" y="-40" on="0"/>
        <pt x="370" y="-38" on="1"/>
        <pt x="366" y="-31" on="0"/>
        <pt x="366" y="-7" on="0"/>
        <pt x="378" y="-7" on="1"/>
        <pt x="394" y="-8" on="1"/>
        <pt x="398" y="-5" on="0"/>
        <pt x="398" y="1" on="0"/>
        <pt x="400" y="7" on="0"/>
        <pt x="403" y="12" on="0"/>
        <pt x="404" y="15" on="1"/>
        <pt x="404" y="30" on="1"/>
        <pt x="409" y="69" on="1"/>
        <pt x="409" y="76" on="0"/>
        <pt x="409" y="83" on="1"/>
        <pt x="416" y="142" on="1"/>
        <pt x="415" y="160" on="1"/>
        <pt x="417" y="181" on="1"/>
        <pt x="416" y="197" on="1"/>
        <pt x="415" y="199" on="0"/>
        <pt x="417" y="205" on="0"/>
        <pt x="417" y="208" on="1"/>
        <pt x="416" y="213" on="1"/>
        <pt x="409" y="218" on="0"/>
        <pt x="391" y="215" on="0"/>
        <pt x="386" y="222" on="1"/>
        <pt x="383" y="222" on="1"/>
        <pt x="374" y="217" on="1"/>
        <pt x="353" y="222" on="1"/>
        <pt x="342" y="219" on="1"/>
        <pt x="324" y="224" on="1"/>
        <pt x="301" y="220" on="1"/>
        <pt x="297" y="219" on="0"/>
        <pt x="289" y="220" on="0"/>
        <pt x="277" y="220" on="0"/>
        <pt x="272" y="216" on="1"/>
        <pt x="260" y="220" on="0"/>
        <pt x="235" y="220" on="0"/>
        <pt x="228" y="215" on="1"/>
        <pt x="213" y="219" on="0"/>
        <pt x="185" y="217" on="0"/>
        <pt x="170" y="220" on="1"/>
        <pt x="165" y="216" on="0"/>
        <pt x="166" y="200" on="0"/>
        <pt x="166" y="195" on="1"/>
        <pt x="164" y="163" on="1"/>
        <pt x="164" y="154" on="0"/>
        <pt x="167" y="150" on="1"/>
        <pt x="165" y="129" on="1"/>
        <pt x="168" y="111" on="1"/>
        <pt x="166" y="97" on="1"/>
        <pt x="166" y="88" on="0"/>
        <pt x="171" y="70" on="0"/>
        <pt x="174" y="58" on="0"/>
        <pt x="177" y="58" on="1"/>
        <pt x="187" y="60" on="1"/>
        <pt x="192" y="60" on="0"/>
        <pt x="192" y="37" on="0"/>
        <pt x="164" y="24" on="0"/>
        <pt x="155" y="18" on="1"/>
        <pt x="135" y="18" on="0"/>
        <pt x="109" y="-2" on="0"/>
        <pt x="85" y="-2" on="0"/>
        <pt x="81" y="-1" on="1"/>
        <pt x="79" y="3" on="0"/>
        <pt x="79" y="12" on="0"/>
        <pt x="83" y="22" on="0"/>
        <pt x="85" y="27" on="1"/>
        <pt x="108" y="36" on="0"/>
        <pt x="115" y="45" on="0"/>
        <pt x="115" y="53" on="1"/>
      </contour>
    </TTGlyph>
    <TTGlyph name="I" xMin="14" yMin="8" xMax="272" yMax="707">
      <contour>
        <pt x="155" y="586" on="1"/>
        <pt x="164" y="490" on="1"/>
        <pt x="164" y="456" on="0"/>
        <pt x="166" y="432" on="1"/>
        <pt x="170" y="413" on="1"/>
        <pt x="170" y="394" on="1"/>
        <pt x="170" y="386" on="0"/>
        <pt x="174" y="372" on="0"/>
        <pt x="177" y="355" on="0"/>
        <pt x="176" y="340" on="0"/>
        <pt x="179" y="319" on="0"/>
        <pt x="184" y="294" on="0"/>
        <pt x="185" y="281" on="1"/>
        <pt x="187" y="281" on="0"/>
        <pt x="186" y="275" on="0"/>
        <pt x="186" y="274" on="1"/>
        <pt x="188" y="264" on="1"/>
        <pt x="187" y="253" on="1"/>
        <pt x="187" y="248" on="0"/>
        <pt x="190" y="241" on="0"/>
        <pt x="195" y="210" on="0"/>
        <pt x="197" y="158" on="0"/>
        <pt x="203" y="131" on="1"/>
        <pt x="212" y="113" on="0"/>
        <pt x="209" y="83" on="0"/>
        <pt x="213" y="73" on="1"/>
        <pt x="215" y="72" on="0"/>
        <pt x="219" y="72" on="1"/>
        <pt x="251" y="76" on="1"/>
        <pt x="260" y="75" on="1"/>
        <pt x="263" y="70" on="0"/>
        <pt x="270" y="62" on="0"/>
        <pt x="272" y="57" on="1"/>
        <pt x="270" y="50" on="0"/>
        <pt x="260" y="44" on="0"/>
        <pt x="258" y="39" on="1"/>
        <pt x="238" y="43" on="1"/>
        <pt x="228" y="41" on="1"/>
        <pt x="218" y="43" on="1"/>
        <pt x="210" y="43" on="0"/>
        <pt x="202" y="34" on="0"/>
        <pt x="184" y="29" on="0"/>
        <pt x="176" y="30" on="1"/>
        <pt x="145" y="32" on="0"/>
        <pt x="130" y="15" on="1"/>
        <pt x="91" y="8" on="1"/>
        <pt x="83" y="8" on="0"/>
        <pt x="76" y="15" on="1"/>
        <pt x="76" y="19" on="1"/>
        <pt x="76" y="31" on="0"/>
        <pt x="78" y="34" on="0"/>
        <pt x="87" y="41" on="0"/>
        <pt x="87" y="45" on="0"/>
        <pt x="92" y="50" on="0"/>
        <pt x="112" y="54" on="0"/>
        <pt x="151" y="65" on="0"/>
        <pt x="151" y="76" on="1"/>
        <pt x="151" y="81" on="0"/>
        <pt x="147" y="89" on="0"/>
        <pt x="144" y="105" on="0"/>
        <pt x="143" y="130" on="0"/>
        <pt x="142" y="141" on="1"/>
        <pt x="130" y="165" on="0"/>
        <pt x="130" y="186" on="1"/>
        <pt x="132" y="203" on="1"/>
        <pt x="132" y="208" on="0"/>
        <pt x="128" y="219" on="0"/>
        <pt x="124" y="240" on="0"/>
        <pt x="125" y="272" on="0"/>
        <pt x="122" y="296" on="0"/>
        <pt x="118" y="309" on="0"/>
        <pt x="116" y="322" on="0"/>
        <pt x="117" y="333" on="0"/>
        <pt x="117" y="350" on="0"/>
        <pt x="106" y="372" on="0"/>
        <pt x="106" y="383" on="1"/>
        <pt x="108" y="401" on="1"/>
        <pt x="108" y="404" on="0"/>
        <pt x="106" y="409" on="1"/>
        <pt x="108" y="432" on="1"/>
        <pt x="106" y="446" on="1"/>
        <pt x="108" y="462" on="1"/>
        <pt x="101" y="545" on="1"/>
        <pt x="103" y="551" on="1"/>
        <pt x="99" y="580" on="1"/>
        <pt x="99" y="589" on="0"/>
        <pt x="103" y="594" on="1"/>
        <pt x="98" y="601" on="0"/>
        <pt x="99" y="627" on="0"/>
        <pt x="99" y="635" on="1"/>
        <pt x="99" y="641" on="1"/>
        <pt x="97" y="644" on="0"/>
        <pt x="83" y="654" on="0"/>
        <pt x="80" y="654" on="1"/>
        <pt x="77" y="654" on="0"/>
        <pt x="73" y="647" on="0"/>
        <pt x="67" y="649" on="1"/>
        <pt x="64" y="649" on="1"/>
        <pt x="36" y="645" on="1"/>
        <pt x="14" y="645" on="0"/>
        <pt x="14" y="670" on="0"/>
        <pt x="21" y="678" on="0"/>
        <pt x="42" y="683" on="0"/>
        <pt x="54" y="685" on="1"/>
        <pt x="87" y="690" on="0"/>
        <pt x="103" y="698" on="1"/>
        <pt x="109" y="699" on="0"/>
        <pt x="122" y="698" on="0"/>
        <pt x="135" y="701" on="0"/>
        <pt x="145" y="707" on="0"/>
        <pt x="153" y="707" on="1"/>
        <pt x="179" y="703" on="1"/>
        <pt x="191" y="706" on="1"/>
        <pt x="195" y="706" on="0"/>
        <pt x="201" y="702" on="0"/>
        <pt x="205" y="703" on="1"/>
        <pt x="219" y="689" on="0"/>
        <pt x="219" y="673" on="0"/>
        <pt x="210" y="664" on="0"/>
        <pt x="204" y="664" on="1"/>
        <pt x="186" y="667" on="1"/>
        <pt x="175" y="667" on="0"/>
        <pt x="164" y="658" on="1"/>
        <pt x="161" y="653" on="0"/>
        <pt x="158" y="621" on="0"/>
        <pt x="155" y="603" on="0"/>
      </contour>
    </TTGlyph>
    <TTGlyph name="Iacute" xMin="14" yMin="8" xMax="360" yMax="943">
      <component glyphName="I" x="0" y="0" flags="0x1204"/>
      <component glyphName="acute" x="148" y="120" flags="0x1004"/>
    </TTGlyph>
    <TTGlyph name="Icircumflex" xMin="14" yMin="8" xMax="299" yMax="959">
      <component glyphName="I" x="0" y="0" flags="0x1204"/>
      <component glyphName="circumflex" x="40" y="86" flags="0x1004"/>
    </TTGlyph>
    <TTGlyph name="Idieresis" xMin="14" yMin="8" xMax="288" yMax="862">
      <component glyphName="I" x="0" y="0" flags="0x1204"/>
      <component glyphName="dieresis" x="38" y="59" flags="0x1004"/>
    </TTGlyph>
    <TTGlyph name="Igrave" xMin="14" yMin="8" xMax="272" yMax="914">
      <component glyphName="I" x="0" y="0" flags="0x1204"/>
      <component glyphName="grave" x="6" y="86" flags="0x1004"/>
    </TTGlyph>
    <TTGlyph name="J" xMin="-20" yMin="-132" xMax="363" yMax="753">
      <contour>
        <pt x="17" y="73" on="1"/>
        <pt x="33" y="93" on="0"/>
        <pt x="82" y="93" on="0"/>
        <pt x="97" y="89" on="0"/>
        <pt x="101" y="81" on="1"/>
        <pt x="109" y="80" on="0"/>
        <pt x="124" y="78" on="0"/>
        <pt x="126" y="67" on="1"/>
        <pt x="126" y="65" on="1"/>
        <pt x="127" y="61" on="0"/>
        <pt x="118" y="54" on="0"/>
        <pt x="116" y="41" on="0"/>
        <pt x="81" y="41" on="0"/>
        <pt x="72" y="49" on="0"/>
        <pt x="63" y="49" on="0"/>
        <pt x="54" y="44" on="0"/>
        <pt x="43" y="43" on="0"/>
        <pt x="40" y="41" on="1"/>
        <pt x="26" y="34" on="0"/>
        <pt x="19" y="15" on="0"/>
        <pt x="9" y="8" on="1"/>
        <pt x="10" y="5" on="0"/>
        <pt x="10" y="1" on="1"/>
        <pt x="4" y="-27" on="1"/>
        <pt x="4" y="-29" on="0"/>
        <pt x="10" y="-28" on="0"/>
        <pt x="13" y="-28" on="0"/>
        <pt x="14" y="-36" on="1"/>
        <pt x="18" y="-63" on="0"/>
        <pt x="40" y="-69" on="1"/>
        <pt x="43" y="-74" on="0"/>
        <pt x="51" y="-80" on="0"/>
        <pt x="54" y="-85" on="1"/>
        <pt x="61" y="-85" on="0"/>
        <pt x="66" y="-89" on="1"/>
        <pt x="115" y="-97" on="1"/>
        <pt x="135" y="-95" on="1"/>
        <pt x="140" y="-95" on="0"/>
        <pt x="143" y="-96" on="1"/>
        <pt x="154" y="-90" on="0"/>
        <pt x="181" y="-89" on="0"/>
        <pt x="192" y="-83" on="1"/>
        <pt x="192" y="-79" on="1"/>
        <pt x="194" y="-78" on="0"/>
        <pt x="203" y="-77" on="0"/>
        <pt x="210" y="-72" on="0"/>
        <pt x="216" y="-63" on="0"/>
        <pt x="223" y="-59" on="1"/>
        <pt x="253" y="-43" on="0"/>
        <pt x="267" y="-18" on="1"/>
        <pt x="273" y="-7" on="0"/>
        <pt x="276" y="-6" on="1"/>
        <pt x="276" y="-3" on="1"/>
        <pt x="284" y="28" on="1"/>
        <pt x="288" y="33" on="1"/>
        <pt x="287" y="41" on="1"/>
        <pt x="287" y="45" on="0"/>
        <pt x="296" y="58" on="0"/>
        <pt x="296" y="81" on="1"/>
        <pt x="290" y="124" on="1"/>
        <pt x="288" y="125" on="0"/>
        <pt x="288" y="128" on="1"/>
        <pt x="290" y="130" on="0"/>
        <pt x="290" y="137" on="0"/>
        <pt x="285" y="150" on="0"/>
        <pt x="283" y="160" on="0"/>
        <pt x="284" y="167" on="0"/>
        <pt x="284" y="183" on="0"/>
        <pt x="278" y="207" on="0"/>
        <pt x="275" y="226" on="0"/>
        <pt x="276" y="245" on="0"/>
        <pt x="273" y="259" on="0"/>
        <pt x="268" y="269" on="0"/>
        <pt x="268" y="275" on="1"/>
        <pt x="270" y="287" on="1"/>
        <pt x="263" y="309" on="1"/>
        <pt x="265" y="316" on="1"/>
        <pt x="263" y="325" on="1"/>
        <pt x="263" y="341" on="1"/>
        <pt x="260" y="353" on="1"/>
        <pt x="260" y="355" on="0"/>
        <pt x="263" y="355" on="0"/>
        <pt x="263" y="360" on="0"/>
        <pt x="257" y="374" on="0"/>
        <pt x="254" y="383" on="0"/>
        <pt x="255" y="395" on="0"/>
        <pt x="254" y="401" on="1"/>
        <pt x="250" y="411" on="1"/>
        <pt x="248" y="419" on="0"/>
        <pt x="248" y="426" on="1"/>
        <pt x="248" y="440" on="0"/>
        <pt x="240" y="459" on="0"/>
        <pt x="240" y="464" on="1"/>
        <pt x="240" y="472" on="1"/>
        <pt x="240" y="505" on="0"/>
        <pt x="230" y="520" on="0"/>
        <pt x="226" y="540" on="0"/>
        <pt x="225" y="570" on="0"/>
        <pt x="222" y="593" on="0"/>
        <pt x="218" y="605" on="0"/>
        <pt x="215" y="620" on="0"/>
        <pt x="214" y="648" on="0"/>
        <pt x="209" y="659" on="0"/>
        <pt x="197" y="665" on="0"/>
        <pt x="195" y="673" on="1"/>
        <pt x="194" y="673" on="1"/>
        <pt x="183" y="673" on="0"/>
        <pt x="159" y="664" on="0"/>
        <pt x="141" y="664" on="0"/>
        <pt x="124" y="672" on="0"/>
        <pt x="124" y="680" on="1"/>
        <pt x="124" y="693" on="0"/>
        <pt x="144" y="696" on="1"/>
        <pt x="150" y="700" on="0"/>
        <pt x="154" y="706" on="1"/>
        <pt x="165" y="708" on="0"/>
        <pt x="201" y="721" on="0"/>
        <pt x="210" y="721" on="1"/>
        <pt x="211" y="722" on="1"/>
        <pt x="213" y="725" on="1"/>
        <pt x="215" y="726" on="0"/>
        <pt x="218" y="725" on="0"/>
        <pt x="225" y="725" on="0"/>
        <pt x="241" y="735" on="0"/>
        <pt x="246" y="737" on="1"/>
        <pt x="248" y="735" on="1"/>
        <pt x="277" y="742" on="1"/>
        <pt x="281" y="742" on="0"/>
        <pt x="282" y="741" on="1"/>
        <pt x="310" y="753" on="0"/>
        <pt x="333" y="753" on="0"/>
        <pt x="344" y="745" on="1"/>
        <pt x="346" y="735" on="0"/>
        <pt x="346" y="731" on="1"/>
        <pt x="346" y="712" on="0"/>
        <pt x="321" y="700" on="0"/>
        <pt x="300" y="697" on="0"/>
        <pt x="296" y="688" on="0"/>
        <pt x="290" y="685" on="0"/>
        <pt x="287" y="685" on="0"/>
        <pt x="281" y="681" on="0"/>
        <pt x="272" y="666" on="0"/>
        <pt x="272" y="651" on="0"/>
        <pt x="278" y="639" on="0"/>
        <pt x="282" y="621" on="0"/>
        <pt x="283" y="599" on="0"/>
        <pt x="289" y="588" on="0"/>
        <pt x="293" y="584" on="0"/>
        <pt x="293" y="582" on="1"/>
        <pt x="291" y="578" on="1"/>
        <pt x="294" y="578" on="0"/>
        <pt x="294" y="558" on="0"/>
        <pt x="296" y="552" on="0"/>
        <pt x="299" y="551" on="0"/>
        <pt x="301" y="544" on="0"/>
        <pt x="300" y="531" on="0"/>
        <pt x="301" y="526" on="1"/>
        <pt x="308" y="507" on="1"/>
        <pt x="310" y="507" on="0"/>
        <pt x="310" y="505" on="1"/>
        <pt x="308" y="505" on="0"/>
        <pt x="308" y="503" on="1"/>
        <pt x="308" y="501" on="0"/>
        <pt x="317" y="469" on="0"/>
        <pt x="317" y="458" on="1"/>
        <pt x="317" y="456" on="1"/>
        <pt x="321" y="452" on="1"/>
        <pt x="321" y="451" on="1"/>
        <pt x="319" y="446" on="1"/>
        <pt x="319" y="435" on="0"/>
        <pt x="328" y="416" on="0"/>
        <pt x="332" y="401" on="0"/>
        <pt x="331" y="394" on="0"/>
        <pt x="335" y="388" on="0"/>
        <pt x="337" y="381" on="1"/>
        <pt x="337" y="367" on="1"/>
        <pt x="340" y="333" on="1"/>
        <pt x="344" y="323" on="1"/>
        <pt x="346" y="312" on="0"/>
        <pt x="346" y="292" on="0"/>
        <pt x="349" y="281" on="1"/>
        <pt x="353" y="271" on="1"/>
        <pt x="359" y="224" on="1"/>
        <pt x="357" y="216" on="1"/>
        <pt x="361" y="199" on="1"/>
        <pt x="356" y="166" on="1"/>
        <pt x="363" y="132" on="1"/>
        <pt x="357" y="71" on="1"/>
        <pt x="357" y="62" on="0"/>
        <pt x="349" y="52" on="0"/>
        <pt x="349" y="45" on="1"/>
        <pt x="340" y="42" on="0"/>
        <pt x="340" y="26" on="1"/>
        <pt x="332" y="23" on="0"/>
        <pt x="327" y="3" on="0"/>
        <pt x="323" y="-6" on="0"/>
        <pt x="317" y="-8" on="1"/>
        <pt x="314" y="-28" on="1"/>
        <pt x="309" y="-31" on="0"/>
        <pt x="299" y="-35" on="0"/>
        <pt x="293" y="-42" on="0"/>
        <pt x="292" y="-50" on="0"/>
        <pt x="290" y="-53" on="1"/>
        <pt x="281" y="-56" on="0"/>
        <pt x="282" y="-60" on="0"/>
        <pt x="276" y="-65" on="0"/>
        <pt x="274" y="-63" on="0"/>
        <pt x="272" y="-66" on="1"/>
        <pt x="270" y="-69" on="1"/>
        <pt x="265" y="-69" on="1"/>
        <pt x="263" y="-73" on="1"/>
        <pt x="252" y="-79" on="0"/>
        <pt x="250" y="-85" on="1"/>
        <pt x="244" y="-87" on="0"/>
        <pt x="239" y="-89" on="0"/>
        <pt x="237" y="-96" on="1"/>
        <pt x="229" y="-102" on="0"/>
        <pt x="206" y="-111" on="0"/>
        <pt x="197" y="-115" on="1"/>
        <pt x="193" y="-113" on="0"/>
        <pt x="189" y="-113" on="1"/>
        <pt x="164" y="-116" on="1"/>
        <pt x="159" y="-116" on="0"/>
        <pt x="156" y="-123" on="0"/>
        <pt x="152" y="-124" on="1"/>
        <pt x="150" y="-124" on="1"/>
        <pt x="148" y="-124" on="0"/>
        <pt x="142" y="-127" on="0"/>
        <pt x="136" y="-126" on="0"/>
        <pt x="133" y="-126" on="1"/>
        <pt x="111" y="-132" on="1"/>
        <pt x="108" y="-132" on="0"/>
        <pt x="102" y="-129" on="0"/>
        <pt x="97" y="-127" on="0"/>
        <pt x="90" y="-128" on="0"/>
        <pt x="85" y="-128" on="0"/>
        <pt x="60" y="-118" on="1"/>
        <pt x="50" y="-119" on="1"/>
        <pt x="44" y="-119" on="0"/>
        <pt x="23" y="-103" on="0"/>
        <pt x="11" y="-96" on="0"/>
        <pt x="9" y="-94" on="1"/>
        <pt x="8" y="-87" on="0"/>
        <pt x="2" y="-81" on="1"/>
        <pt x="-9" y="-71" on="0"/>
        <pt x="-10" y="-45" on="0"/>
        <pt x="-17" y="-36" on="1"/>
        <pt x="-20" y="-24" on="0"/>
        <pt x="-20" y="19" on="0"/>
        <pt x="-8" y="45" on="0"/>
        <pt x="-3" y="47" on="0"/>
        <pt x="0" y="52" on="0"/>
        <pt x="0" y="61" on="0"/>
        <pt x="2" y="65" on="1"/>
        <pt x="9" y="67" on="0"/>
        <pt x="11" y="69" on="1"/>
        <pt x="13" y="73" on="1"/>
      </contour>
    </TTGlyph>
    <TTGlyph name="K" xMin="7" yMin="-59" xMax="683" yMax="742">
      <contour>
        <pt x="678" y="109" on="1"/>
        <pt x="683" y="89" on="1"/>
        <pt x="683" y="88" on="1"/>
        <pt x="683" y="78" on="0"/>
        <pt x="677" y="73" on="1"/>
        <pt x="665" y="63" on="0"/>
        <pt x="665" y="54" on="1"/>
        <pt x="667" y="46" on="0"/>
        <pt x="662" y="48" on="1"/>
        <pt x="656" y="48" on="0"/>
        <pt x="658" y="43" on="0"/>
        <pt x="652" y="36" on="0"/>
        <pt x="624" y="17" on="0"/>
        <pt x="617" y="18" on="1"/>
        <pt x="605" y="7" on="1"/>
        <pt x="592" y="9" on="1"/>
        <pt x="589" y="9" on="1"/>
        <pt x="576" y="1" on="0"/>
        <pt x="540" y="1" on="0"/>
        <pt x="526" y="15" on="0"/>
        <pt x="512" y="27" on="0"/>
        <pt x="504" y="33" on="0"/>
        <pt x="503" y="39" on="1"/>
        <pt x="500" y="40" on="0"/>
        <pt x="493" y="42" on="0"/>
        <pt x="494" y="47" on="1"/>
        <pt x="473" y="52" on="0"/>
        <pt x="466" y="68" on="1"/>
        <pt x="463" y="74" on="0"/>
        <pt x="459" y="86" on="0"/>
        <pt x="453" y="89" on="1"/>
        <pt x="454" y="101" on="1"/>
        <pt x="454" y="104" on="0"/>
        <pt x="442" y="105" on="0"/>
        <pt x="440" y="108" on="1"/>
        <pt x="440" y="117" on="0"/>
        <pt x="434" y="123" on="0"/>
        <pt x="431" y="122" on="0"/>
        <pt x="430" y="124" on="1"/>
        <pt x="426" y="132" on="0"/>
        <pt x="421" y="144" on="0"/>
        <pt x="412" y="147" on="1"/>
        <pt x="410" y="157" on="0"/>
        <pt x="393" y="184" on="0"/>
        <pt x="383" y="194" on="0"/>
        <pt x="375" y="198" on="0"/>
        <pt x="373" y="200" on="1"/>
        <pt x="371" y="204" on="0"/>
        <pt x="367" y="215" on="0"/>
        <pt x="359" y="227" on="0"/>
        <pt x="354" y="241" on="0"/>
        <pt x="348" y="257" on="0"/>
        <pt x="327" y="285" on="0"/>
        <pt x="322" y="288" on="1"/>
        <pt x="294" y="305" on="0"/>
        <pt x="282" y="305" on="1"/>
        <pt x="265" y="305" on="1"/>
        <pt x="254" y="305" on="0"/>
        <pt x="252" y="301" on="1"/>
        <pt x="244" y="303" on="0"/>
        <pt x="229" y="303" on="0"/>
        <pt x="201" y="291" on="0"/>
        <pt x="184" y="288" on="0"/>
        <pt x="179" y="282" on="0"/>
        <pt x="177" y="280" on="1"/>
        <pt x="175" y="272" on="1"/>
        <pt x="180" y="246" on="1"/>
        <pt x="178" y="222" on="1"/>
        <pt x="181" y="183" on="1"/>
        <pt x="180" y="152" on="1"/>
        <pt x="180" y="139" on="1"/>
        <pt x="180" y="127" on="0"/>
        <pt x="185" y="117" on="0"/>
        <pt x="185" y="105" on="0"/>
        <pt x="183" y="94" on="0"/>
        <pt x="182" y="88" on="1"/>
        <pt x="180" y="2" on="1"/>
        <pt x="183" y="0" on="0"/>
        <pt x="188" y="0" on="1"/>
        <pt x="199" y="0" on="1"/>
        <pt x="210" y="-2" on="0"/>
        <pt x="210" y="-11" on="1"/>
        <pt x="208" y="-27" on="1"/>
        <pt x="203" y="-30" on="0"/>
        <pt x="198" y="-33" on="1"/>
        <pt x="186" y="-40" on="0"/>
        <pt x="163" y="-39" on="0"/>
        <pt x="148" y="-46" on="0"/>
        <pt x="131" y="-51" on="0"/>
        <pt x="113" y="-55" on="0"/>
        <pt x="97" y="-59" on="0"/>
        <pt x="88" y="-59" on="0"/>
        <pt x="79" y="-52" on="0"/>
        <pt x="76" y="-54" on="1"/>
        <pt x="74" y="-46" on="0"/>
        <pt x="74" y="-40" on="1"/>
        <pt x="74" y="-31" on="0"/>
        <pt x="110" y="-18" on="0"/>
        <pt x="114" y="-12" on="1"/>
        <pt x="118" y="-1" on="0"/>
        <pt x="118" y="13" on="1"/>
        <pt x="116" y="51" on="1"/>
        <pt x="119" y="98" on="1"/>
        <pt x="114" y="126" on="1"/>
        <pt x="116" y="137" on="1"/>
        <pt x="112" y="197" on="1"/>
        <pt x="114" y="216" on="1"/>
        <pt x="110" y="233" on="1"/>
        <pt x="111" y="251" on="1"/>
        <pt x="111" y="255" on="0"/>
        <pt x="109" y="261" on="0"/>
        <pt x="107" y="268" on="0"/>
        <pt x="108" y="273" on="0"/>
        <pt x="108" y="283" on="0"/>
        <pt x="105" y="282" on="0"/>
        <pt x="105" y="304" on="0"/>
        <pt x="101" y="316" on="1"/>
        <pt x="94" y="337" on="0"/>
        <pt x="94" y="372" on="1"/>
        <pt x="94" y="408" on="1"/>
        <pt x="95" y="461" on="1"/>
        <pt x="95" y="480" on="0"/>
        <pt x="86" y="516" on="0"/>
        <pt x="86" y="536" on="1"/>
        <pt x="92" y="569" on="1"/>
        <pt x="88" y="600" on="1"/>
        <pt x="90" y="615" on="1"/>
        <pt x="90" y="622" on="0"/>
        <pt x="89" y="624" on="1"/>
        <pt x="90" y="641" on="1"/>
        <pt x="90" y="649" on="0"/>
        <pt x="82" y="667" on="0"/>
        <pt x="80" y="678" on="0"/>
        <pt x="74" y="682" on="0"/>
        <pt x="73" y="685" on="1"/>
        <pt x="62" y="688" on="0"/>
        <pt x="51" y="688" on="1"/>
        <pt x="27" y="684" on="1"/>
        <pt x="23" y="684" on="0"/>
        <pt x="20" y="689" on="0"/>
        <pt x="17" y="689" on="1"/>
        <pt x="14" y="688" on="1"/>
        <pt x="12" y="695" on="0"/>
        <pt x="7" y="705" on="0"/>
        <pt x="7" y="712" on="1"/>
        <pt x="7" y="716" on="1"/>
        <pt x="19" y="723" on="0"/>
        <pt x="79" y="729" on="0"/>
        <pt x="89" y="736" on="1"/>
        <pt x="98" y="736" on="0"/>
        <pt x="113" y="735" on="0"/>
        <pt x="126" y="738" on="0"/>
        <pt x="138" y="742" on="0"/>
        <pt x="143" y="742" on="1"/>
        <pt x="167" y="737" on="1"/>
        <pt x="170" y="737" on="0"/>
        <pt x="177" y="739" on="1"/>
        <pt x="182" y="733" on="0"/>
        <pt x="190" y="725" on="0"/>
        <pt x="190" y="716" on="1"/>
        <pt x="184" y="710" on="0"/>
        <pt x="175" y="707" on="1"/>
        <pt x="169" y="702" on="0"/>
        <pt x="160" y="700" on="1"/>
        <pt x="142" y="694" on="0"/>
        <pt x="142" y="640" on="1"/>
        <pt x="142" y="621" on="1"/>
        <pt x="148" y="593" on="1"/>
        <pt x="145" y="581" on="1"/>
        <pt x="147" y="577" on="1"/>
        <pt x="147" y="575" on="0"/>
        <pt x="145" y="573" on="1"/>
        <pt x="149" y="561" on="1"/>
        <pt x="150" y="549" on="0"/>
        <pt x="148" y="524" on="0"/>
        <pt x="148" y="514" on="1"/>
        <pt x="148" y="500" on="0"/>
        <pt x="156" y="470" on="0"/>
        <pt x="155" y="434" on="0"/>
        <pt x="155" y="397" on="0"/>
        <pt x="162" y="354" on="0"/>
        <pt x="164" y="333" on="1"/>
        <pt x="169" y="333" on="1"/>
        <pt x="185" y="333" on="0"/>
        <pt x="198" y="350" on="0"/>
        <pt x="206" y="361" on="1"/>
        <pt x="224" y="371" on="0"/>
        <pt x="244" y="394" on="1"/>
        <pt x="271" y="424" on="0"/>
        <pt x="281" y="427" on="0"/>
        <pt x="281" y="434" on="0"/>
        <pt x="299" y="452" on="0"/>
        <pt x="310" y="459" on="1"/>
        <pt x="318" y="477" on="0"/>
        <pt x="348" y="504" on="0"/>
        <pt x="360" y="518" on="1"/>
        <pt x="368" y="530" on="1"/>
        <pt x="370" y="532" on="0"/>
        <pt x="378" y="539" on="0"/>
        <pt x="380" y="542" on="1"/>
        <pt x="380" y="546" on="1"/>
        <pt x="382" y="551" on="0"/>
        <pt x="389" y="558" on="0"/>
        <pt x="391" y="563" on="1"/>
        <pt x="412" y="577" on="0"/>
        <pt x="428" y="601" on="1"/>
        <pt x="433" y="603" on="0"/>
        <pt x="440" y="613" on="0"/>
        <pt x="452" y="626" on="0"/>
        <pt x="466" y="638" on="0"/>
        <pt x="469" y="651" on="1"/>
        <pt x="473" y="656" on="0"/>
        <pt x="482" y="658" on="0"/>
        <pt x="482" y="670" on="0"/>
        <pt x="476" y="675" on="0"/>
        <pt x="473" y="678" on="1"/>
        <pt x="463" y="684" on="0"/>
        <pt x="463" y="695" on="1"/>
        <pt x="463" y="712" on="0"/>
        <pt x="489" y="712" on="1"/>
        <pt x="530" y="710" on="1"/>
        <pt x="539" y="710" on="0"/>
        <pt x="555" y="702" on="0"/>
        <pt x="564" y="702" on="1"/>
        <pt x="583" y="705" on="1"/>
        <pt x="590" y="705" on="0"/>
        <pt x="606" y="695" on="0"/>
        <pt x="606" y="684" on="1"/>
        <pt x="606" y="667" on="0"/>
        <pt x="571" y="667" on="1"/>
        <pt x="550" y="669" on="1"/>
        <pt x="538" y="667" on="0"/>
        <pt x="534" y="655" on="0"/>
        <pt x="522" y="643" on="0"/>
        <pt x="512" y="629" on="0"/>
        <pt x="506" y="622" on="1"/>
        <pt x="494" y="607" on="1"/>
        <pt x="492" y="604" on="0"/>
        <pt x="487" y="596" on="0"/>
        <pt x="482" y="596" on="1"/>
        <pt x="480" y="585" on="0"/>
        <pt x="465" y="575" on="0"/>
        <pt x="458" y="565" on="0"/>
        <pt x="458" y="564" on="1"/>
        <pt x="460" y="560" on="0"/>
        <pt x="446" y="555" on="0"/>
        <pt x="443" y="543" on="0"/>
        <pt x="434" y="546" on="0"/>
        <pt x="421" y="525" on="0"/>
        <pt x="423" y="523" on="1"/>
        <pt x="415" y="519" on="0"/>
        <pt x="397" y="498" on="0"/>
        <pt x="397" y="494" on="0"/>
        <pt x="389" y="487" on="0"/>
        <pt x="381" y="482" on="0"/>
        <pt x="378" y="475" on="1"/>
        <pt x="374" y="472" on="0"/>
        <pt x="366" y="469" on="0"/>
        <pt x="361" y="464" on="0"/>
        <pt x="360" y="458" on="0"/>
        <pt x="355" y="450" on="0"/>
        <pt x="343" y="440" on="0"/>
        <pt x="343" y="432" on="1"/>
        <pt x="340" y="429" on="0"/>
        <pt x="328" y="423" on="1"/>
        <pt x="314" y="401" on="0"/>
        <pt x="299" y="394" on="1"/>
        <pt x="297" y="381" on="0"/>
        <pt x="276" y="368" on="0"/>
        <pt x="273" y="359" on="1"/>
        <pt x="278" y="354" on="0"/>
        <pt x="298" y="353" on="0"/>
        <pt x="310" y="349" on="0"/>
        <pt x="319" y="344" on="0"/>
        <pt x="327" y="341" on="0"/>
        <pt x="333" y="342" on="0"/>
        <pt x="335" y="340" on="1"/>
        <pt x="337" y="336" on="1"/>
        <pt x="343" y="336" on="1"/>
        <pt x="350" y="332" on="0"/>
        <pt x="371" y="309" on="0"/>
        <pt x="376" y="307" on="0"/>
        <pt x="379" y="307" on="0"/>
        <pt x="381" y="304" on="0"/>
        <pt x="380" y="301" on="0"/>
        <pt x="386" y="294" on="0"/>
        <pt x="399" y="284" on="0"/>
        <pt x="405" y="275" on="0"/>
        <pt x="404" y="271" on="0"/>
        <pt x="407" y="266" on="0"/>
        <pt x="412" y="260" on="0"/>
        <pt x="417" y="250" on="0"/>
        <pt x="420" y="238" on="0"/>
        <pt x="429" y="222" on="0"/>
        <pt x="447" y="208" on="0"/>
        <pt x="457" y="189" on="0"/>
        <pt x="470" y="168" on="0"/>
        <pt x="479" y="151" on="0"/>
        <pt x="484" y="145" on="0"/>
        <pt x="488" y="139" on="0"/>
        <pt x="488" y="134" on="0"/>
        <pt x="498" y="124" on="1"/>
        <pt x="499" y="122" on="0"/>
        <pt x="499" y="119" on="1"/>
        <pt x="499" y="114" on="0"/>
        <pt x="523" y="90" on="1"/>
        <pt x="526" y="84" on="0"/>
        <pt x="532" y="72" on="0"/>
        <pt x="541" y="57" on="0"/>
        <pt x="563" y="44" on="0"/>
        <pt x="570" y="36" on="1"/>
        <pt x="575" y="36" on="0"/>
        <pt x="579" y="43" on="0"/>
        <pt x="584" y="43" on="1"/>
        <pt x="584" y="41" on="0"/>
        <pt x="597" y="41" on="0"/>
        <pt x="599" y="42" on="0"/>
        <pt x="610" y="48" on="0"/>
        <pt x="616" y="48" on="0"/>
        <pt x="618" y="50" on="1"/>
        <pt x="626" y="57" on="1"/>
        <pt x="628" y="59" on="0"/>
        <pt x="633" y="61" on="0"/>
        <pt x="640" y="68" on="0"/>
        <pt x="644" y="79" on="0"/>
        <pt x="650" y="83" on="1"/>
        <pt x="649" y="84" on="0"/>
        <pt x="649" y="96" on="1"/>
        <pt x="644" y="100" on="1"/>
        <pt x="643" y="102" on="0"/>
        <pt x="644" y="105" on="0"/>
        <pt x="644" y="112" on="0"/>
        <pt x="633" y="126" on="0"/>
        <pt x="631" y="132" on="1"/>
        <pt x="628" y="132" on="1"/>
        <pt x="623" y="132" on="0"/>
        <pt x="619" y="136" on="0"/>
        <pt x="616" y="138" on="1"/>
        <pt x="614" y="135" on="0"/>
        <pt x="606" y="135" on="0"/>
        <pt x="602" y="133" on="1"/>
        <pt x="600" y="129" on="1"/>
        <pt x="590" y="125" on="0"/>
        <pt x="585" y="125" on="1"/>
        <pt x="580" y="125" on="0"/>
        <pt x="578" y="126" on="1"/>
        <pt x="574" y="131" on="0"/>
        <pt x="574" y="154" on="0"/>
        <pt x="583" y="169" on="1"/>
        <pt x="585" y="172" on="0"/>
        <pt x="597" y="173" on="0"/>
        <pt x="606" y="176" on="0"/>
        <pt x="612" y="180" on="0"/>
        <pt x="617" y="180" on="1"/>
        <pt x="642" y="173" on="1"/>
        <pt x="644" y="171" on="0"/>
        <pt x="643" y="167" on="0"/>
        <pt x="649" y="164" on="0"/>
        <pt x="652" y="165" on="0"/>
        <pt x="655" y="162" on="0"/>
        <pt x="658" y="154" on="1"/>
        <pt x="673" y="116" on="0"/>
        <pt x="678" y="114" on="1"/>
      </contour>
    </TTGlyph>
    <TTGlyph name="L" xMin="28" yMin="-58" xMax="394" yMax="784">
      <contour>
        <pt x="95" y="745" on="1"/>
        <pt x="90" y="748" on="0"/>
        <pt x="67" y="748" on="0"/>
        <pt x="61" y="753" on="1"/>
        <pt x="61" y="762" on="1"/>
        <pt x="62" y="775" on="0"/>
        <pt x="88" y="781" on="0"/>
        <pt x="121" y="781" on="0"/>
        <pt x="154" y="779" on="0"/>
        <pt x="161" y="784" on="1"/>
        <pt x="167" y="782" on="0"/>
        <pt x="188" y="777" on="0"/>
        <pt x="187" y="762" on="0"/>
        <pt x="177" y="758" on="0"/>
        <pt x="156" y="754" on="0"/>
        <pt x="151" y="748" on="1"/>
        <pt x="148" y="743" on="0"/>
        <pt x="149" y="736" on="0"/>
        <pt x="143" y="732" on="1"/>
        <pt x="149" y="693" on="0"/>
        <pt x="138" y="590" on="0"/>
        <pt x="145" y="516" on="0"/>
        <pt x="146" y="477" on="1"/>
        <pt x="143" y="475" on="0"/>
        <pt x="143" y="474" on="1"/>
        <pt x="145" y="472" on="1"/>
        <pt x="148" y="464" on="0"/>
        <pt x="145" y="413" on="0"/>
        <pt x="151" y="401" on="1"/>
        <pt x="149" y="399" on="0"/>
        <pt x="149" y="396" on="1"/>
        <pt x="150" y="386" on="1"/>
        <pt x="147" y="382" on="1"/>
        <pt x="147" y="379" on="0"/>
        <pt x="154" y="371" on="0"/>
        <pt x="148" y="365" on="1"/>
        <pt x="149" y="359" on="0"/>
        <pt x="154" y="348" on="0"/>
        <pt x="149" y="339" on="1"/>
        <pt x="151" y="313" on="1"/>
        <pt x="151" y="290" on="0"/>
        <pt x="148" y="239" on="0"/>
        <pt x="151" y="210" on="1"/>
        <pt x="148" y="203" on="1"/>
        <pt x="152" y="201" on="1"/>
        <pt x="153" y="193" on="0"/>
        <pt x="153" y="178" on="1"/>
        <pt x="153" y="111" on="1"/>
        <pt x="153" y="86" on="0"/>
        <pt x="146" y="69" on="0"/>
        <pt x="146" y="61" on="1"/>
        <pt x="145" y="39" on="1"/>
        <pt x="162" y="32" on="0"/>
        <pt x="192" y="34" on="0"/>
        <pt x="200" y="34" on="1"/>
        <pt x="218" y="37" on="1"/>
        <pt x="292" y="30" on="1"/>
        <pt x="300" y="27" on="1"/>
        <pt x="306" y="30" on="0"/>
        <pt x="322" y="26" on="1"/>
        <pt x="336" y="25" on="0"/>
        <pt x="349" y="48" on="0"/>
        <pt x="351" y="62" on="0"/>
        <pt x="350" y="66" on="1"/>
        <pt x="349" y="78" on="0"/>
        <pt x="359" y="92" on="1"/>
        <pt x="377" y="113" on="0"/>
        <pt x="389" y="90" on="1"/>
        <pt x="397" y="78" on="0"/>
        <pt x="394" y="73" on="1"/>
        <pt x="385" y="55" on="0"/>
        <pt x="391" y="45" on="0"/>
        <pt x="392" y="42" on="1"/>
        <pt x="388" y="35" on="0"/>
        <pt x="386" y="25" on="1"/>
        <pt x="387" y="12" on="1"/>
        <pt x="384" y="2" on="1"/>
        <pt x="383" y="-3" on="0"/>
        <pt x="386" y="-9" on="1"/>
        <pt x="390" y="-21" on="0"/>
        <pt x="383" y="-38" on="1"/>
        <pt x="375" y="-53" on="1"/>
        <pt x="363" y="-58" on="0"/>
        <pt x="351" y="-58" on="1"/>
        <pt x="341" y="-56" on="0"/>
        <pt x="334" y="-51" on="1"/>
        <pt x="331" y="-47" on="0"/>
        <pt x="331" y="-36" on="0"/>
        <pt x="334" y="-34" on="1"/>
        <pt x="328" y="-31" on="0"/>
        <pt x="330" y="-25" on="0"/>
        <pt x="329" y="-19" on="1"/>
        <pt x="326" y="-14" on="0"/>
        <pt x="280" y="-2" on="0"/>
        <pt x="276" y="-2" on="0"/>
        <pt x="204" y="2" on="1"/>
        <pt x="157" y="-3" on="1"/>
        <pt x="152" y="-3" on="0"/>
        <pt x="131" y="-1" on="0"/>
        <pt x="118" y="-10" on="0"/>
        <pt x="106" y="-13" on="0"/>
        <pt x="99" y="-12" on="1"/>
        <pt x="83" y="-8" on="0"/>
        <pt x="75" y="-12" on="1"/>
        <pt x="72" y="-9" on="1"/>
        <pt x="64" y="-8" on="0"/>
        <pt x="50" y="-10" on="0"/>
        <pt x="39" y="-8" on="0"/>
        <pt x="32" y="-7" on="0"/>
        <pt x="28" y="-5" on="1"/>
        <pt x="22" y="18" on="0"/>
        <pt x="40" y="24" on="1"/>
        <pt x="46" y="25" on="0"/>
        <pt x="57" y="26" on="0"/>
        <pt x="68" y="30" on="0"/>
        <pt x="78" y="33" on="0"/>
        <pt x="83" y="35" on="1"/>
        <pt x="86" y="41" on="0"/>
        <pt x="86" y="51" on="1"/>
        <pt x="91" y="80" on="1"/>
        <pt x="91" y="83" on="0"/>
        <pt x="94" y="88" on="0"/>
        <pt x="93" y="90" on="1"/>
        <pt x="86" y="102" on="0"/>
        <pt x="95" y="154" on="0"/>
        <pt x="93" y="172" on="1"/>
        <pt x="90" y="188" on="1"/>
        <pt x="90" y="190" on="0"/>
        <pt x="92" y="190" on="0"/>
        <pt x="92" y="193" on="1"/>
        <pt x="86" y="206" on="0"/>
        <pt x="94" y="271" on="0"/>
        <pt x="93" y="306" on="0"/>
        <pt x="91" y="318" on="0"/>
        <pt x="93" y="332" on="1"/>
        <pt x="91" y="354" on="1"/>
        <pt x="90" y="366" on="0"/>
        <pt x="94" y="391" on="0"/>
        <pt x="91" y="402" on="1"/>
        <pt x="85" y="506" on="1"/>
        <pt x="85" y="509" on="0"/>
        <pt x="88" y="512" on="1"/>
        <pt x="86" y="518" on="0"/>
        <pt x="88" y="529" on="0"/>
        <pt x="86" y="543" on="0"/>
        <pt x="88" y="554" on="0"/>
        <pt x="84" y="555" on="0"/>
        <pt x="84" y="560" on="1"/>
        <pt x="88" y="584" on="1"/>
        <pt x="89" y="593" on="0"/>
        <pt x="86" y="620" on="0"/>
        <pt x="90" y="638" on="1"/>
        <pt x="100" y="693" on="0"/>
      </contour>
    </TTGlyph>
</ttFont>
